<?xml version="1.0" encoding="UTF-8" standalone="no"?>
<!DOCTYPE svg PUBLIC "-//W3C//DTD SVG 1.1//EN"
 "http://www.w3.org/Graphics/SVG/1.1/DTD/svg11.dtd">
<!-- Generated by graphviz version 2.47.3 (20210619.1520)
 -->
<!-- Title: dependencies Pages: 1 -->
<svg width="763pt" height="174pt"
 viewBox="0.00 0.00 763.00 173.80" xmlns="http://www.w3.org/2000/svg" xmlns:xlink="http://www.w3.org/1999/xlink">
<g id="graph0" class="graph" transform="scale(1 1) rotate(0) translate(4 169.8)">
<title>dependencies</title>
<polygon fill="white" stroke="transparent" points="-4,4 -4,-169.8 759,-169.8 759,4 -4,4"/>
<text text-anchor="middle" x="377.5" y="-8.2" font-family="sans-serif" font-size="14.00">dependencies</text>
<g id="clust1" class="cluster">
<title>cluster_ClientMenusModule</title>
<polygon fill="none" stroke="black" stroke-dasharray="1,5" points="8,-32.8 8,-157.8 747,-157.8 747,-32.8 8,-32.8"/>
</g>
<g id="clust2" class="cluster">
<title>cluster_ClientMenusModule_declarations</title>
<polygon fill="none" stroke="black" points="569,-40.8 569,-92.8 739,-92.8 739,-40.8 569,-40.8"/>
</g>
<g id="clust4" class="cluster">
<title>cluster_ClientMenusModule_imports</title>
<polygon fill="none" stroke="black" points="16,-40.8 16,-92.8 561,-92.8 561,-40.8 16,-40.8"/>
</g>
<!-- ClientMenusComponent -->
<g id="node1" class="node">
<title>ClientMenusComponent</title>
<polygon fill="#ffffb3" stroke="black" points="730.66,-84.8 577.34,-84.8 577.34,-48.8 730.66,-48.8 730.66,-84.8"/>
<text text-anchor="middle" x="654" y="-62.6" font-family="Times,serif" font-size="14.00">ClientMenusComponent</text>
</g>
<!-- ClientMenusModule -->
<g id="node2" class="node">
<title>ClientMenusModule</title>
<polygon fill="#8dd3c7" stroke="black" points="377.88,-149.8 374.88,-153.8 353.88,-153.8 350.88,-149.8 246.12,-149.8 246.12,-113.8 377.88,-113.8 377.88,-149.8"/>
<text text-anchor="middle" x="312" y="-127.6" font-family="Times,serif" font-size="14.00">ClientMenusModule</text>
</g>
<!-- ClientMenusComponent&#45;&gt;ClientMenusModule -->
<g id="edge1" class="edge">
<title>ClientMenusComponent&#45;&gt;ClientMenusModule</title>
<path fill="none" stroke="black" d="M654,-84.91C654,-104.14 654,-131.8 654,-131.8 654,-131.8 387.94,-131.8 387.94,-131.8"/>
<polygon fill="black" stroke="black" points="387.94,-128.3 377.94,-131.8 387.94,-135.3 387.94,-128.3"/>
</g>
<!-- ClientMenusRoutingModule -->
<g id="node3" class="node">
<title>ClientMenusRoutingModule</title>
<polygon fill="#8dd3c7" stroke="black" points="553.49,-84.8 550.49,-88.8 529.49,-88.8 526.49,-84.8 376.51,-84.8 376.51,-48.8 553.49,-48.8 553.49,-84.8"/>
<text text-anchor="middle" x="465" y="-62.6" font-family="Times,serif" font-size="14.00">ClientMenusRoutingModule</text>
</g>
<!-- ClientMenusRoutingModule&#45;&gt;ClientMenusModule -->
<g id="edge2" class="edge">
<title>ClientMenusRoutingModule&#45;&gt;ClientMenusModule</title>
<path fill="none" stroke="black" d="M376.33,-66.8C370.97,-66.8 367.69,-66.8 367.69,-66.8 367.69,-66.8 367.69,-103.69 367.69,-103.69"/>
<polygon fill="black" stroke="black" points="364.19,-103.69 367.69,-113.69 371.19,-103.69 364.19,-103.69"/>
</g>
<!-- HomeModule -->
<g id="node4" class="node">
<title>HomeModule</title>
<polygon fill="#8dd3c7" stroke="black" points="358.76,-84.8 355.76,-88.8 334.76,-88.8 331.76,-84.8 265.24,-84.8 265.24,-48.8 358.76,-48.8 358.76,-84.8"/>
<text text-anchor="middle" x="312" y="-62.6" font-family="Times,serif" font-size="14.00">HomeModule</text>
</g>
<!-- HomeModule&#45;&gt;ClientMenusModule -->
<g id="edge3" class="edge">
<title>HomeModule&#45;&gt;ClientMenusModule</title>
<path fill="none" stroke="black" d="M312,-84.91C312,-84.91 312,-103.79 312,-103.79"/>
<polygon fill="black" stroke="black" points="308.5,-103.79 312,-113.79 315.5,-103.79 308.5,-103.79"/>
</g>
<!-- MaterialModule -->
<g id="node5" class="node">
<title>MaterialModule</title>
<polygon fill="#8dd3c7" stroke="black" points="247.47,-84.8 244.47,-88.8 223.47,-88.8 220.47,-84.8 140.53,-84.8 140.53,-48.8 247.47,-48.8 247.47,-84.8"/>
<text text-anchor="middle" x="194" y="-62.6" font-family="Times,serif" font-size="14.00">MaterialModule</text>
</g>
<!-- MaterialModule&#45;&gt;ClientMenusModule -->
<g id="edge4" class="edge">
<title>MaterialModule&#45;&gt;ClientMenusModule</title>
<path fill="none" stroke="black" d="M247.64,-66.8C252.88,-66.8 256.3,-66.8 256.3,-66.8 256.3,-66.8 256.3,-103.69 256.3,-103.69"/>
<polygon fill="black" stroke="black" points="252.8,-103.69 256.3,-113.69 259.8,-103.69 252.8,-103.69"/>
</g>
<!-- SharedModule -->
<g id="node6" class="node">
<title>SharedModule</title>
<polygon fill="#8dd3c7" stroke="black" points="122.42,-84.8 119.42,-88.8 98.42,-88.8 95.42,-84.8 23.58,-84.8 23.58,-48.8 122.42,-48.8 122.42,-84.8"/>
<text text-anchor="middle" x="73" y="-62.6" font-family="Times,serif" font-size="14.00">SharedModule</text>
</g>
<!-- SharedModule&#45;&gt;ClientMenusModule -->
<g id="edge5" class="edge">
<title>SharedModule&#45;&gt;ClientMenusModule</title>
<path fill="none" stroke="black" d="M73,-84.91C73,-104.14 73,-131.8 73,-131.8 73,-131.8 236.06,-131.8 236.06,-131.8"/>
<polygon fill="black" stroke="black" points="236.06,-135.3 246.06,-131.8 236.06,-128.3 236.06,-135.3"/>
</g>
</g>
</svg>
