<?xml version="1.0" encoding="UTF-8" standalone="no"?>
<!DOCTYPE svg PUBLIC "-//W3C//DTD SVG 1.1//EN"
 "http://www.w3.org/Graphics/SVG/1.1/DTD/svg11.dtd">
<!-- Generated by graphviz version 2.47.3 (20210619.1520)
 -->
<!-- Title: dependencies Pages: 1 -->
<svg width="795pt" height="174pt"
 viewBox="0.00 0.00 795.00 173.80" xmlns="http://www.w3.org/2000/svg" xmlns:xlink="http://www.w3.org/1999/xlink">
<g id="graph0" class="graph" transform="scale(1 1) rotate(0) translate(4 169.8)">
<title>dependencies</title>
<polygon fill="white" stroke="transparent" points="-4,4 -4,-169.8 791,-169.8 791,4 -4,4"/>
<text text-anchor="middle" x="393.5" y="-8.2" font-family="sans-serif" font-size="14.00">dependencies</text>
<g id="clust1" class="cluster">
<title>cluster_BusinessMenusModule</title>
<polygon fill="none" stroke="black" stroke-dasharray="1,5" points="8,-32.8 8,-157.8 779,-157.8 779,-32.8 8,-32.8"/>
</g>
<g id="clust4" class="cluster">
<title>cluster_BusinessMenusModule_imports</title>
<polygon fill="none" stroke="black" points="210,-40.8 210,-92.8 771,-92.8 771,-40.8 210,-40.8"/>
</g>
<g id="clust2" class="cluster">
<title>cluster_BusinessMenusModule_declarations</title>
<polygon fill="none" stroke="black" points="16,-40.8 16,-92.8 202,-92.8 202,-40.8 16,-40.8"/>
</g>
<!-- BusinessMenusComponent -->
<g id="node1" class="node">
<title>BusinessMenusComponent</title>
<polygon fill="#ffffb3" stroke="black" points="193.71,-84.8 24.29,-84.8 24.29,-48.8 193.71,-48.8 193.71,-84.8"/>
<text text-anchor="middle" x="109" y="-62.6" font-family="Times,serif" font-size="14.00">BusinessMenusComponent</text>
</g>
<!-- BusinessMenusModule -->
<g id="node2" class="node">
<title>BusinessMenusModule</title>
<polygon fill="#8dd3c7" stroke="black" points="461.93,-149.8 458.93,-153.8 437.93,-153.8 434.93,-149.8 314.07,-149.8 314.07,-113.8 461.93,-113.8 461.93,-149.8"/>
<text text-anchor="middle" x="388" y="-127.6" font-family="Times,serif" font-size="14.00">BusinessMenusModule</text>
</g>
<!-- BusinessMenusComponent&#45;&gt;BusinessMenusModule -->
<g id="edge1" class="edge">
<title>BusinessMenusComponent&#45;&gt;BusinessMenusModule</title>
<path fill="none" stroke="black" d="M109,-84.91C109,-104.14 109,-131.8 109,-131.8 109,-131.8 303.97,-131.8 303.97,-131.8"/>
<polygon fill="black" stroke="black" points="303.97,-135.3 313.97,-131.8 303.97,-128.3 303.97,-135.3"/>
</g>
<!-- BusinessMenusRoutingModule -->
<g id="node3" class="node">
<title>BusinessMenusRoutingModule</title>
<polygon fill="#8dd3c7" stroke="black" points="763.05,-84.8 760.05,-88.8 739.05,-88.8 736.05,-84.8 570.95,-84.8 570.95,-48.8 763.05,-48.8 763.05,-84.8"/>
<text text-anchor="middle" x="667" y="-62.6" font-family="Times,serif" font-size="14.00">BusinessMenusRoutingModule</text>
</g>
<!-- BusinessMenusRoutingModule&#45;&gt;BusinessMenusModule -->
<g id="edge2" class="edge">
<title>BusinessMenusRoutingModule&#45;&gt;BusinessMenusModule</title>
<path fill="none" stroke="black" d="M667,-84.91C667,-104.14 667,-131.8 667,-131.8 667,-131.8 472.03,-131.8 472.03,-131.8"/>
<polygon fill="black" stroke="black" points="472.03,-128.3 462.03,-131.8 472.03,-135.3 472.03,-128.3"/>
</g>
<!-- HomeModule -->
<g id="node4" class="node">
<title>HomeModule</title>
<polygon fill="#8dd3c7" stroke="black" points="552.76,-84.8 549.76,-88.8 528.76,-88.8 525.76,-84.8 459.24,-84.8 459.24,-48.8 552.76,-48.8 552.76,-84.8"/>
<text text-anchor="middle" x="506" y="-62.6" font-family="Times,serif" font-size="14.00">HomeModule</text>
</g>
<!-- HomeModule&#45;&gt;BusinessMenusModule -->
<g id="edge3" class="edge">
<title>HomeModule&#45;&gt;BusinessMenusModule</title>
<path fill="none" stroke="black" d="M459.01,-66.8C453.78,-66.8 450.3,-66.8 450.3,-66.8 450.3,-66.8 450.3,-103.69 450.3,-103.69"/>
<polygon fill="black" stroke="black" points="446.8,-103.69 450.3,-113.69 453.8,-103.69 446.8,-103.69"/>
</g>
<!-- MaterialModule -->
<g id="node5" class="node">
<title>MaterialModule</title>
<polygon fill="#8dd3c7" stroke="black" points="441.47,-84.8 438.47,-88.8 417.47,-88.8 414.47,-84.8 334.53,-84.8 334.53,-48.8 441.47,-48.8 441.47,-84.8"/>
<text text-anchor="middle" x="388" y="-62.6" font-family="Times,serif" font-size="14.00">MaterialModule</text>
</g>
<!-- MaterialModule&#45;&gt;BusinessMenusModule -->
<g id="edge4" class="edge">
<title>MaterialModule&#45;&gt;BusinessMenusModule</title>
<path fill="none" stroke="black" d="M388,-84.91C388,-84.91 388,-103.79 388,-103.79"/>
<polygon fill="black" stroke="black" points="384.5,-103.79 388,-113.79 391.5,-103.79 384.5,-103.79"/>
</g>
<!-- SharedModule -->
<g id="node6" class="node">
<title>SharedModule</title>
<polygon fill="#8dd3c7" stroke="black" points="316.42,-84.8 313.42,-88.8 292.42,-88.8 289.42,-84.8 217.58,-84.8 217.58,-48.8 316.42,-48.8 316.42,-84.8"/>
<text text-anchor="middle" x="267" y="-62.6" font-family="Times,serif" font-size="14.00">SharedModule</text>
</g>
<!-- SharedModule&#45;&gt;BusinessMenusModule -->
<g id="edge5" class="edge">
<title>SharedModule&#45;&gt;BusinessMenusModule</title>
<path fill="none" stroke="black" d="M316.24,-66.8C321.72,-66.8 325.36,-66.8 325.36,-66.8 325.36,-66.8 325.36,-103.69 325.36,-103.69"/>
<polygon fill="black" stroke="black" points="321.86,-103.69 325.36,-113.69 328.86,-103.69 321.86,-103.69"/>
</g>
</g>
</svg>
