<svg width="243" height="235" viewBox="0 0 243 235" fill="none" xmlns="http://www.w3.org/2000/svg">
<path d="M232.371 62.0169C244.459 89.0837 246.304 119.621 237.56 147.946C228.817 176.271 210.081 200.455 184.839 215.999C159.598 231.542 129.568 237.387 100.34 232.444C98.5379 232.14 97.3241 230.432 97.6288 228.63C97.9334 226.829 99.6409 225.615 101.443 225.92C129.09 230.594 157.494 225.066 181.37 210.364C205.245 195.661 222.967 172.786 231.237 145.994C239.507 119.202 237.763 90.3175 226.328 64.7155C214.894 39.1134 194.548 18.5372 169.076 6.81522C167.416 6.05129 166.69 4.0863 167.454 2.42631C168.217 0.767688 170.179 0.0411237 171.838 0.801865L171.843 0.803809C198.772 13.1965 220.282 34.95 232.371 62.0169Z" fill="#A40909"/>
<path d="M227.232 126.657C229.033 126.965 230.243 128.675 229.935 130.476C225.276 157.736 210.58 182.265 188.742 199.234C166.904 216.203 139.504 224.383 111.938 222.163C84.3707 219.943 58.6334 207.485 39.7916 187.24C20.9499 166.996 10.3687 140.431 10.1308 112.776C9.89303 85.1212 20.0158 58.3789 38.5066 37.8133C56.9974 17.2476 82.5167 4.34841 110.041 1.65487C137.566 -1.03868 165.102 6.66861 187.229 23.2594C209.355 39.8502 224.471 64.1227 229.599 91.2991C229.937 93.0948 228.756 94.8251 226.961 95.1639C225.165 95.5028 223.435 94.3217 223.096 92.5261C218.275 66.9743 204.063 44.1528 183.259 28.5538C162.455 12.9548 136.565 5.7083 110.686 8.24082C84.8067 10.7733 60.8129 22.9014 43.4275 42.2377C26.0421 61.5739 16.5244 86.7175 16.748 112.719C16.9716 138.721 26.9203 163.697 44.6357 182.732C62.3511 201.766 86.5498 213.48 112.469 215.567C138.388 217.654 164.149 209.963 184.682 194.009C205.214 178.054 219.031 154.992 223.413 129.361C223.721 127.56 225.43 126.349 227.232 126.657Z" fill="#A40909"/>
<path d="M81.7527 220.7C83.4711 221.322 84.3604 223.219 83.739 224.937C83.1176 226.656 81.2208 227.545 79.5024 226.923C58.6896 219.397 40.3077 206.367 26.3137 189.222C12.3198 172.076 3.23789 151.455 0.0350591 129.557C-0.229406 127.748 1.02215 126.068 2.83013 125.804C4.63841 125.54 6.31838 126.791 6.58282 128.599C9.61245 149.314 18.2033 168.819 31.4404 185.037C44.6776 201.256 62.0655 213.581 81.7527 220.7Z" fill="#A40909"/>
<rect x="72.4677" y="171.56" width="101" height="6" rx="3" transform="rotate(-50.208 72.4677 171.56)" fill="#A40909" stroke="#A40909"/>
<rect x="138.796" y="92.8135" width="26" height="6" rx="3" transform="rotate(-50.208 138.796 92.8135)" fill="#A40909" stroke="#A40909"/>
<rect x="158.089" y="70.6128" width="13" height="6" rx="3" transform="rotate(-50.208 158.089 70.6128)" fill="#A40909" stroke="#A40909"/>
<rect x="144.706" y="155.614" width="101" height="6" rx="3" transform="rotate(-125.208 144.706 155.614)" fill="#A40909" stroke="#A40909"/>
<rect x="160.466" y="178.335" width="26" height="6" rx="3" transform="rotate(-125.208 160.466 178.335)" fill="#A40909" stroke="#A40909"/>
<rect x="84.9696" y="70.7124" width="13" height="6" rx="3" transform="rotate(-125.208 84.9696 70.7124)" fill="#A40909" stroke="#A40909"/>
</svg>
