<svg width="24" height="24" viewBox="0 0 24 24" fill="none" xmlns="http://www.w3.org/2000/svg">
<path d="M23.807 9.77868C23.9137 9.77868 24.0002 9.86516 24.0002 9.97185V12C24.0002 12.7591 23.9297 13.5013 23.7945 14.2213C22.7484 19.8139 17.8213 24.0404 11.9156 23.9996C5.28894 23.954 -0.0143974 18.5997 0.00027451 11.9729C0.0148526 5.35809 5.38194 0 12.0002 0C15.2427 0 18.1847 1.28634 20.3446 3.37584C20.4226 3.45126 20.4246 3.57557 20.3479 3.65226L17.4786 6.52153C17.4048 6.5954 17.2854 6.59732 17.2097 6.52527C15.854 5.23485 14.0198 4.44262 12.0002 4.44262C7.8297 4.44262 4.47135 7.77712 4.44304 11.9475C4.41458 16.1453 7.80908 19.5573 12.0002 19.5573C15.4008 19.5573 18.2769 17.3109 19.2253 14.2213H12.1934C12.0867 14.2213 12.0002 14.1348 12.0002 14.0281V9.9718C12.0002 9.86512 12.0867 9.77863 12.1934 9.77863H23.807V9.77868Z" fill="white"/>
</svg>
