<svg width="324" height="122" viewBox="0 0 324 122" fill="none" xmlns="http://www.w3.org/2000/svg">
<path d="M8.28775 46.464C8.54375 45.0133 8.94908 43.0293 9.50375 40.512C10.0584 37.952 10.7411 35.1573 11.5518 32.128C12.4051 29.0987 13.3438 25.9627 14.3678 22.72C15.3918 19.4773 16.5224 16.4267 17.7598 13.568C16.9491 13.568 15.9891 13.4827 14.8798 13.312C13.8131 13.1413 12.7038 12.9707 11.5518 12.8C10.3998 12.6293 9.24775 12.48 8.09575 12.352C6.94375 12.224 5.87708 12.224 4.89575 12.352C3.91442 12.4373 3.08242 12.6933 2.39975 13.12C1.67442 13.504 1.20508 14.1227 0.99175 14.976C0.821083 15.6587 0.821083 16.512 0.99175 17.536C1.16242 18.56 1.50375 19.456 2.01575 20.224C2.52775 20.992 3.18908 21.504 3.99975 21.76C4.81042 22.016 5.77042 21.7173 6.87975 20.864C7.30642 20.48 7.64775 20.2667 7.90375 20.224C8.20242 20.1387 8.43708 20.1387 8.60775 20.224C8.77842 20.2667 8.90642 20.3733 8.99175 20.544C9.07708 20.7147 9.14108 20.8213 9.18375 20.864C9.31175 21.12 9.24775 21.4187 8.99175 21.76C8.73575 22.0587 8.24508 22.3147 7.51975 22.528C6.11175 22.8693 4.87442 22.7627 3.80775 22.208C2.69842 21.6533 1.82375 20.8853 1.18375 19.904C0.54375 18.88 0.202416 17.7493 0.15975 16.512C0.0744165 15.2747 0.35175 14.1653 0.99175 13.184C1.88775 11.8187 3.10375 11.008 4.63975 10.752C6.17575 10.496 7.79708 10.496 9.50375 10.752C11.2104 11.008 12.8531 11.328 14.4318 11.712C16.0531 12.096 17.3758 12.2453 18.3998 12.16C19.1678 10.496 19.9571 8.96 20.7678 7.552C21.6211 6.144 22.4744 4.928 23.3278 3.904C24.2238 2.88 25.1198 2.09066 26.0158 1.536C26.9544 0.938666 27.9144 0.639999 28.8958 0.639999C29.9624 0.682666 30.6878 0.895999 31.0718 1.28C31.4558 1.62133 31.5838 2.112 31.4558 2.752C31.3278 3.34933 31.0078 4.032 30.4958 4.8C29.9838 5.568 29.3651 6.35733 28.6398 7.168C27.9144 7.936 27.1678 8.704 26.3998 9.472C25.6318 10.24 24.9278 10.9227 24.2878 11.52C24.0744 12.1173 23.7544 13.184 23.3278 14.72C22.9011 16.256 22.3251 18.176 21.5998 20.48C22.3251 19.0293 23.1358 17.6 24.0318 16.192C24.9704 14.7413 25.9944 13.4187 27.1038 12.224C28.2131 10.9867 29.4078 9.96267 30.6878 9.152C32.0104 8.29866 33.4184 7.76533 34.9118 7.552C36.4478 7.59466 37.5571 7.89333 38.2397 8.448C38.9651 8.96 39.3491 9.62133 39.3918 10.432C39.4344 11.2 39.1571 12.0747 38.5598 13.056C38.0051 14.0373 37.1944 14.9973 36.1278 15.936C35.1038 16.832 33.8664 17.664 32.4158 18.432C30.9651 19.1573 29.4078 19.712 27.7438 20.096C30.7731 21.12 33.0984 22.7413 34.7198 24.96C36.3838 27.136 37.4291 29.5893 37.8558 32.32C38.2824 35.0507 38.1758 37.8667 37.5358 40.768C36.8958 43.6267 35.8078 46.2293 34.2718 48.576C32.7358 50.9227 30.7944 52.8427 28.4478 54.336C26.1011 55.8293 23.4771 56.5333 20.5758 56.448C19.5944 56.4053 18.7838 56.1707 18.1438 55.744C17.5464 55.3173 17.0558 54.8053 16.6718 54.208C16.3304 53.6107 16.0958 52.9707 15.9678 52.288C15.8824 51.648 15.8824 51.0293 15.9678 50.432C16.0958 49.4933 16.3518 48.4907 16.7358 47.424C17.1624 46.3573 17.6744 45.3547 18.2718 44.416C18.9118 43.4347 19.5944 42.5387 20.3198 41.728C21.0878 40.8747 21.8984 40.192 22.7518 39.68C23.1358 39.424 23.5838 39.2747 24.0958 39.232C24.6504 39.1893 25.0984 39.296 25.4398 39.552C25.8238 39.808 26.0158 40.1067 26.0158 40.448C26.0158 40.7893 25.7811 41.088 25.3118 41.344C24.0744 41.7707 23.0078 42.368 22.1118 43.136C21.2584 43.904 20.5544 44.7573 19.9998 45.696C19.4878 46.6347 19.1251 47.5733 18.9118 48.512C18.6984 49.4933 18.6344 50.3893 18.7198 51.2C18.8051 52.0107 19.0398 52.672 19.4238 53.184C19.8078 53.7387 20.3198 54.016 20.9598 54.016C22.1971 54.016 23.3491 53.6107 24.4158 52.8C25.5251 51.9893 26.4851 50.9013 27.2958 49.536C28.1491 48.1707 28.8531 46.592 29.4078 44.8C29.9624 43.008 30.3251 41.1733 30.4958 39.296C30.6664 37.4187 30.6451 35.5627 30.4318 33.728C30.2184 31.8507 29.7491 30.1653 29.0238 28.672C28.2984 27.136 27.2958 25.856 26.0158 24.832C24.7784 23.7653 23.2211 23.0827 21.3438 22.784C21.0024 23.3813 20.5758 24.3627 20.0638 25.728C19.5944 27.0507 19.0611 28.5653 18.4638 30.272C17.9091 31.9787 17.3544 33.7707 16.7998 35.648C16.2451 37.5253 15.7331 39.2747 15.2638 40.896C14.7944 42.4747 14.3891 43.8613 14.0478 45.056C13.7491 46.208 13.5784 46.9333 13.5358 47.232C13.4078 47.8293 13.2371 48.5547 13.0238 49.408C12.8104 50.304 12.5118 50.944 12.1278 51.328C11.7011 51.6693 11.2318 51.776 10.7198 51.648C10.2078 51.5627 9.73842 51.2853 9.31175 50.816C8.92775 50.3893 8.60775 49.792 8.35175 49.024C8.13842 48.2987 8.11708 47.4453 8.28775 46.464ZM24.5438 18.56C25.5678 18.56 26.6344 18.3893 27.7438 18.048C28.8958 17.664 29.9838 17.1947 31.0078 16.64C32.0318 16.0427 32.9278 15.4027 33.6958 14.72C34.5064 14.0373 35.1038 13.376 35.4878 12.736C35.8718 12.096 35.9784 11.5413 35.8078 11.072C35.6371 10.56 35.1251 10.1973 34.2718 9.984C33.8878 9.984 33.4398 10.112 32.9278 10.368C32.4584 10.5813 31.9678 10.88 31.4558 11.264C30.9438 11.648 30.4104 12.096 29.8558 12.608C29.3011 13.12 28.7678 13.6533 28.2558 14.208C27.0611 15.488 25.8238 16.9387 24.5438 18.56ZM24.6718 10.112C26.6771 7.59467 27.9998 5.73867 28.6398 4.544C29.2798 3.30667 29.4931 2.64533 29.2798 2.56C29.0238 2.432 28.4264 3.02933 27.4878 4.352C26.5918 5.632 25.6531 7.552 24.6718 10.112ZM48.8113 29.184C48.0859 30.336 47.3393 31.6373 46.5713 33.088C45.8459 34.5387 45.1846 35.968 44.5873 37.376C44.0326 38.7413 43.6273 39.9787 43.3713 41.088C43.1579 42.1973 43.2219 42.9653 43.5633 43.392C43.8619 43.776 44.6086 43.648 45.8033 43.008C47.0406 42.3253 48.4486 41.3867 50.0273 40.192C51.6486 38.9547 53.2699 37.6107 54.8913 36.16C56.5553 34.7093 57.9419 33.3653 59.0513 32.128V33.536C58.0273 34.688 56.7686 35.9253 55.2753 37.248C53.7819 38.5707 52.2673 39.808 50.7313 40.96C49.1953 42.112 47.7233 43.1147 46.3153 43.968C44.9073 44.7787 43.7766 45.2693 42.9233 45.44C41.6006 45.696 40.6833 45.4827 40.1713 44.8C39.7019 44.0747 39.4886 43.0933 39.5312 41.856C39.5739 40.6187 39.8299 39.2107 40.2993 37.632C40.8113 36.0107 41.3659 34.432 41.9633 32.896C42.6033 31.36 43.2646 29.9733 43.9473 28.736C44.6299 27.456 45.1846 26.5387 45.6113 25.984C45.9953 25.5147 46.4006 25.216 46.8273 25.088C47.2539 24.96 47.7873 25.2587 48.4273 25.984C48.8539 26.496 49.1313 26.9653 49.2593 27.392C49.3873 27.776 49.2379 28.3733 48.8113 29.184ZM50.7313 19.584C51.3286 19.7973 51.7766 20.1387 52.0753 20.608C52.4166 21.0347 52.4806 21.5467 52.2673 22.144C52.0539 22.656 51.6913 23.04 51.1793 23.296C50.7099 23.5093 50.1766 23.5093 49.5793 23.296C48.9819 23.0827 48.5126 22.7413 48.1713 22.272C47.8726 21.76 47.8299 21.248 48.0433 20.736C48.1713 20.224 48.4913 19.8613 49.0033 19.648C49.5579 19.392 50.1339 19.3707 50.7313 19.584ZM58.0873 43.136C58.8979 44.032 60.1139 44.3733 61.7353 44.16C63.3566 43.904 65.1486 43.264 67.1113 42.24C69.1166 41.1733 71.1433 39.7867 73.1913 38.08C75.2819 36.3733 77.1593 34.5173 78.8233 32.512V33.92C77.2019 36.0107 75.3033 37.952 73.1273 39.744C70.9939 41.536 68.8179 43.0293 66.5993 44.224C64.4233 45.376 62.3113 46.144 60.2633 46.528C58.2579 46.8693 56.5939 46.6347 55.2713 45.824C54.2473 45.2267 53.5859 44.2453 53.2873 42.88C52.9886 41.472 52.9886 39.9147 53.2873 38.208C53.5859 36.5013 54.1406 34.7733 54.9513 33.024C55.7619 31.232 56.7646 29.6533 57.9593 28.288C59.1539 26.88 60.4979 25.792 61.9913 25.024C63.4846 24.256 65.0846 24.0213 66.7913 24.32C68.3699 24.6613 69.1379 25.2373 69.0953 26.048C69.0953 26.816 68.6473 27.6693 67.7513 28.608C66.8979 29.504 65.7886 30.4213 64.4233 31.36C63.1006 32.256 61.9273 32.9813 60.9033 33.536C60.3486 34.5173 59.8366 35.52 59.3673 36.544C58.9406 37.568 58.5779 38.528 58.2793 39.424C58.0233 40.2773 57.8526 41.0453 57.7673 41.728C57.7246 42.368 57.8313 42.8373 58.0873 43.136ZM67.0473 27.136C66.7059 27.0507 66.3006 27.136 65.8313 27.392C65.4046 27.648 64.9566 28.032 64.4873 28.544C64.0179 29.056 63.5273 29.6747 63.0153 30.4C62.5033 31.0827 62.0126 31.8293 61.5433 32.64C62.2259 32.128 62.9726 31.5733 63.7833 30.976C64.6366 30.3787 65.3619 29.824 65.9593 29.312C66.5993 28.7573 67.0473 28.288 67.3033 27.904C67.5593 27.4773 67.4739 27.2213 67.0473 27.136ZM79.5623 38.912C80.2876 38.3147 81.0129 37.696 81.7383 37.056C82.5063 36.3733 83.2316 35.776 83.9143 35.264C84.5969 34.7093 85.2369 34.2827 85.8343 33.984C86.4743 33.6427 87.0289 33.4933 87.4983 33.536C88.3943 33.5787 88.9063 33.9627 89.0343 34.688C89.1623 35.4133 89.0769 36.3093 88.7783 37.376C88.4796 38.4427 88.0529 39.5947 87.4983 40.832C86.9863 42.0693 86.5383 43.1787 86.1543 44.16C85.7703 45.1413 85.5356 45.9307 85.4503 46.528C85.4076 47.0827 85.7063 47.232 86.3463 46.976C86.9863 46.7627 87.9463 46.08 89.2263 44.928C90.5063 43.7333 91.8503 42.3893 93.2583 40.896C94.7089 39.4027 96.0743 37.9093 97.3543 36.416C98.6769 34.88 99.7009 33.6213 100.426 32.64L100.298 33.792C98.8476 35.7547 97.3756 37.6107 95.8823 39.36C94.4316 41.0667 93.0449 42.6027 91.7222 43.968C90.4422 45.2907 89.2689 46.4 88.2023 47.296C87.1356 48.192 86.3036 48.768 85.7063 49.024C85.1943 49.28 84.6183 49.344 83.9783 49.216C83.3809 49.1307 83.0183 48.896 82.8903 48.512C82.8049 48.0427 82.8263 47.5307 82.9543 46.976C83.1249 46.3787 83.2743 45.9093 83.4023 45.568C83.6156 44.672 83.8929 43.7333 84.2343 42.752C84.5756 41.728 84.8743 40.7893 85.1303 39.936C85.3863 39.0827 85.5569 38.3573 85.6423 37.76C85.7703 37.1627 85.7489 36.8213 85.5783 36.736C85.2796 36.608 84.8529 36.7147 84.2983 37.056C83.7863 37.3973 83.1889 37.888 82.5063 38.528C81.8236 39.168 81.0983 39.8933 80.3303 40.704C79.5623 41.5147 78.7943 42.3253 78.0263 43.136C77.8983 43.648 77.7916 44.1387 77.7063 44.608C77.6636 45.0347 77.5996 45.4827 77.5143 45.952C77.5143 46.464 77.3009 46.7413 76.8743 46.784C76.4476 46.8267 75.9569 46.7413 75.4023 46.528C74.8903 46.3147 74.3783 46.016 73.8663 45.632C73.3969 45.2053 73.1196 44.8 73.0343 44.416C72.9062 44.032 72.9062 43.3707 73.0343 42.432C73.2049 41.4933 73.4183 40.448 73.6743 39.296C73.9729 38.1013 74.3143 36.864 74.6983 35.584C75.0823 34.304 75.4663 33.088 75.8503 31.936C76.2343 30.784 76.5756 29.7813 76.8743 28.928C77.2156 28.0747 77.4716 27.4773 77.6423 27.136C78.4103 25.5147 79.0929 24.6187 79.6903 24.448C80.3303 24.2773 81.0983 24.96 81.9943 26.496C82.2503 27.008 82.5276 27.4987 82.8263 27.968C83.1676 28.4373 83.2743 28.928 83.1463 29.44C82.7623 30.9333 82.2289 32.4907 81.5463 34.112C80.8636 35.6907 80.2023 37.2907 79.5623 38.912ZM126.178 33.408C125.922 33.6213 125.602 33.856 125.218 34.112C124.834 34.368 124.514 34.56 124.258 34.688C123.149 35.2853 122.146 35.7333 121.25 36.032C120.354 36.288 119.544 36.4373 118.818 36.48C118.136 36.48 117.496 36.3733 116.898 36.16C116.344 35.9467 115.853 35.6693 115.426 35.328C114.274 37.2053 112.952 39.1893 111.458 41.28C109.965 43.328 108.429 45.1413 106.85 46.72C105.272 48.256 103.736 49.3867 102.242 50.112C100.749 50.88 99.4263 50.9013 98.2743 50.176C97.5489 49.7067 96.9943 49.0027 96.6103 48.064C96.2689 47.1253 96.0556 46.0587 95.9703 44.864C95.8849 43.6267 95.9276 42.304 96.0983 40.896C96.3116 39.488 96.5889 38.1013 96.9303 36.736C97.3143 35.328 97.7623 33.984 98.2743 32.704C98.7863 31.424 99.3409 30.2933 99.9383 29.312C100.109 29.0133 100.28 28.7573 100.45 28.544C100.621 28.3307 100.813 28.224 101.026 28.224C101.282 28.1813 101.581 28.2453 101.922 28.416C102.264 28.544 102.712 28.8 103.266 29.184C103.821 29.6107 104.248 29.9733 104.546 30.272C104.888 30.5707 105.101 30.8693 105.186 31.168C105.272 31.424 105.272 31.7013 105.186 32C105.101 32.2987 104.973 32.64 104.802 33.024C104.333 34.0907 103.757 35.4133 103.074 36.992C102.392 38.5707 101.794 40.128 101.282 41.664C100.77 43.2 100.408 44.5867 100.194 45.824C100.024 47.0187 100.194 47.7867 100.706 48.128C101.048 48.3413 101.517 48.256 102.114 47.872C102.754 47.488 103.458 46.8907 104.226 46.08C105.037 45.2693 105.869 44.3093 106.722 43.2C107.618 42.0907 108.472 40.9387 109.282 39.744C110.136 38.5493 110.925 37.376 111.65 36.224C112.376 35.072 112.994 34.048 113.506 33.152C113.378 33.024 113.272 32.8747 113.186 32.704C113.101 32.5333 112.994 32.3413 112.866 32.128C112.312 31.232 111.885 30.336 111.586 29.44C111.33 28.544 111.266 27.7333 111.394 27.008C111.522 26.24 111.864 25.6213 112.418 25.152C113.016 24.6827 113.933 24.4053 115.17 24.32C115.853 24.2773 116.514 24.32 117.154 24.448C117.794 24.5333 118.306 24.768 118.69 25.152C119.074 25.536 119.266 26.112 119.266 26.88C119.266 27.648 118.968 28.672 118.37 29.952C118.114 30.464 117.794 31.0613 117.41 31.744C117.069 32.4267 116.664 33.1947 116.194 34.048C116.578 34.5173 117.026 34.88 117.538 35.136C118.05 35.392 118.669 35.4987 119.394 35.456C120.162 35.4133 121.037 35.2 122.018 34.816C123 34.3893 124.173 33.7067 125.538 32.768L126.178 33.408ZM115.17 25.856C114.786 25.8133 114.445 25.8987 114.146 26.112C113.848 26.3253 113.634 26.6667 113.506 27.136C113.378 27.5627 113.378 28.1387 113.506 28.864C113.677 29.5467 114.018 30.3787 114.53 31.36C115.17 29.9947 115.618 28.9493 115.874 28.224C116.13 27.456 116.258 26.9013 116.258 26.56C116.258 26.2187 116.152 26.0267 115.938 25.984C115.725 25.8987 115.469 25.856 115.17 25.856ZM126.962 43.136C127.773 44.032 128.989 44.3733 130.61 44.16C132.232 43.904 134.024 43.264 135.986 42.24C137.992 41.1733 140.018 39.7867 142.066 38.08C144.157 36.3733 146.034 34.5173 147.698 32.512V33.92C146.077 36.0107 144.178 37.952 142.002 39.744C139.869 41.536 137.693 43.0293 135.474 44.224C133.298 45.376 131.186 46.144 129.138 46.528C127.133 46.8693 125.469 46.6347 124.146 45.824C123.122 45.2267 122.461 44.2453 122.162 42.88C121.864 41.472 121.864 39.9147 122.162 38.208C122.461 36.5013 123.016 34.7733 123.826 33.024C124.637 31.232 125.64 29.6533 126.834 28.288C128.029 26.88 129.373 25.792 130.866 25.024C132.36 24.256 133.96 24.0213 135.666 24.32C137.245 24.6613 138.013 25.2373 137.97 26.048C137.97 26.816 137.522 27.6693 136.626 28.608C135.773 29.504 134.664 30.4213 133.298 31.36C131.976 32.256 130.802 32.9813 129.778 33.536C129.224 34.5173 128.712 35.52 128.242 36.544C127.816 37.568 127.453 38.528 127.154 39.424C126.898 40.2773 126.728 41.0453 126.642 41.728C126.6 42.368 126.706 42.8373 126.962 43.136ZM135.922 27.136C135.581 27.0507 135.176 27.136 134.706 27.392C134.28 27.648 133.832 28.032 133.362 28.544C132.893 29.056 132.402 29.6747 131.89 30.4C131.378 31.0827 130.888 31.8293 130.418 32.64C131.101 32.128 131.848 31.5733 132.658 30.976C133.512 30.3787 134.237 29.824 134.834 29.312C135.474 28.7573 135.922 28.288 136.178 27.904C136.434 27.4773 136.349 27.2213 135.922 27.136ZM148.437 38.912C149.163 38.3147 149.888 37.696 150.613 37.056C151.381 36.3733 152.107 35.776 152.789 35.264C153.472 34.7093 154.112 34.2827 154.709 33.984C155.349 33.6427 155.904 33.4933 156.373 33.536C157.269 33.5787 157.781 33.9627 157.909 34.688C158.037 35.4133 157.952 36.3093 157.653 37.376C157.355 38.4427 156.928 39.5947 156.373 40.832C155.861 42.0693 155.413 43.1787 155.029 44.16C154.645 45.1413 154.411 45.9307 154.325 46.528C154.283 47.0827 154.581 47.232 155.221 46.976C155.861 46.7627 156.821 46.08 158.101 44.928C159.381 43.7333 160.725 42.3893 162.133 40.896C163.584 39.4027 164.949 37.9093 166.229 36.416C167.552 34.88 168.576 33.6213 169.301 32.64L169.173 33.792C167.723 35.7547 166.251 37.6107 164.757 39.36C163.307 41.0667 161.92 42.6027 160.597 43.968C159.317 45.2907 158.144 46.4 157.077 47.296C156.011 48.192 155.179 48.768 154.581 49.024C154.069 49.28 153.493 49.344 152.853 49.216C152.256 49.1307 151.893 48.896 151.765 48.512C151.68 48.0427 151.701 47.5307 151.829 46.976C152 46.3787 152.149 45.9093 152.277 45.568C152.491 44.672 152.768 43.7333 153.109 42.752C153.451 41.728 153.749 40.7893 154.005 39.936C154.261 39.0827 154.432 38.3573 154.517 37.76C154.645 37.1627 154.624 36.8213 154.453 36.736C154.155 36.608 153.728 36.7147 153.173 37.056C152.661 37.3973 152.064 37.888 151.381 38.528C150.699 39.168 149.973 39.8933 149.205 40.704C148.437 41.5147 147.669 42.3253 146.901 43.136C146.773 43.648 146.667 44.1387 146.581 44.608C146.539 45.0347 146.475 45.4827 146.389 45.952C146.389 46.464 146.176 46.7413 145.749 46.784C145.323 46.8267 144.832 46.7413 144.277 46.528C143.765 46.3147 143.253 46.016 142.741 45.632C142.272 45.2053 141.995 44.8 141.909 44.416C141.781 44.032 141.781 43.3707 141.909 42.432C142.08 41.4933 142.293 40.448 142.549 39.296C142.848 38.1013 143.189 36.864 143.573 35.584C143.957 34.304 144.341 33.088 144.725 31.936C145.109 30.784 145.451 29.7813 145.749 28.928C146.091 28.0747 146.347 27.4773 146.517 27.136C147.285 25.5147 147.968 24.6187 148.565 24.448C149.205 24.2773 149.973 24.96 150.869 26.496C151.125 27.008 151.403 27.4987 151.701 27.968C152.043 28.4373 152.149 28.928 152.021 29.44C151.637 30.9333 151.104 32.4907 150.421 34.112C149.739 35.6907 149.077 37.2907 148.437 38.912ZM174.061 29.184C173.336 30.336 172.589 31.6373 171.821 33.088C171.096 34.5387 170.435 35.968 169.837 37.376C169.283 38.7413 168.877 39.9787 168.621 41.088C168.408 42.1973 168.472 42.9653 168.813 43.392C169.112 43.776 169.859 43.648 171.053 43.008C172.291 42.3253 173.699 41.3867 175.277 40.192C176.899 38.9547 178.52 37.6107 180.141 36.16C181.805 34.7093 183.192 33.3653 184.301 32.128V33.536C183.277 34.688 182.019 35.9253 180.525 37.248C179.032 38.5707 177.517 39.808 175.981 40.96C174.445 42.112 172.973 43.1147 171.565 43.968C170.157 44.7787 169.027 45.2693 168.173 45.44C166.851 45.696 165.933 45.4827 165.421 44.8C164.952 44.0747 164.739 43.0933 164.781 41.856C164.824 40.6187 165.08 39.2107 165.549 37.632C166.061 36.0107 166.616 34.432 167.213 32.896C167.853 31.36 168.515 29.9733 169.197 28.736C169.88 27.456 170.435 26.5387 170.861 25.984C171.245 25.5147 171.651 25.216 172.077 25.088C172.504 24.96 173.037 25.2587 173.677 25.984C174.104 26.496 174.381 26.9653 174.509 27.392C174.637 27.776 174.488 28.3733 174.061 29.184ZM175.981 19.584C176.579 19.7973 177.027 20.1387 177.325 20.608C177.667 21.0347 177.731 21.5467 177.517 22.144C177.304 22.656 176.941 23.04 176.429 23.296C175.96 23.5093 175.427 23.5093 174.829 23.296C174.232 23.0827 173.763 22.7413 173.421 22.272C173.123 21.76 173.08 21.248 173.293 20.736C173.421 20.224 173.741 19.8613 174.253 19.648C174.808 19.392 175.384 19.3707 175.981 19.584ZM180.073 43.904C179.22 43.3493 178.687 42.4533 178.473 41.216C178.26 39.9787 178.281 38.6133 178.537 37.12C178.836 35.6267 179.348 34.1333 180.073 32.64C180.841 31.1467 181.737 29.824 182.761 28.672C183.828 27.52 185.023 26.688 186.345 26.176C187.668 25.6213 189.033 25.5573 190.441 25.984C191.252 26.24 191.828 26.6667 192.169 27.264C192.553 27.8613 192.745 28.5227 192.745 29.248C192.788 29.9733 192.703 30.6987 192.489 31.424C192.276 32.1493 192.02 32.768 191.721 33.28C191.38 33.8773 191.06 34.1973 190.761 34.24C190.505 34.24 190.569 33.8773 190.953 33.152C191.167 32.7253 191.316 32.32 191.401 31.936C191.487 31.5093 191.487 31.1467 191.401 30.848C191.316 30.5067 191.124 30.2293 190.825 30.016C190.527 29.8027 190.1 29.696 189.545 29.696C189.076 29.696 188.543 29.952 187.945 30.464C187.348 30.9333 186.751 31.5733 186.153 32.384C185.556 33.152 184.98 34.0053 184.425 34.944C183.913 35.8827 183.487 36.8213 183.145 37.76C182.804 38.656 182.569 39.4667 182.441 40.192C182.356 40.9173 182.463 41.4293 182.761 41.728C183.359 42.496 184.361 42.688 185.769 42.304C187.177 41.8773 188.692 41.0453 190.313 39.808C190.399 39.68 190.441 39.5733 190.441 39.488C190.441 39.4027 190.484 39.296 190.569 39.168C191.209 36.6933 192.063 34.0267 193.129 31.168C194.196 28.3093 195.327 25.5147 196.521 22.784C197.716 20.0533 198.889 17.5147 200.041 15.168C201.236 12.8213 202.26 10.9227 203.113 9.472C203.625 8.576 204.18 7.72267 204.777 6.912C205.417 6.10133 206.057 5.48267 206.697 5.056C207.38 4.58666 208.063 4.37333 208.745 4.416C209.428 4.416 210.068 4.82133 210.665 5.632C211.476 6.74133 211.903 7.89333 211.945 9.088C212.031 10.24 211.839 11.4133 211.369 12.608C210.943 13.8027 210.324 14.9973 209.513 16.192C208.745 17.3867 207.892 18.5387 206.953 19.648C206.057 20.7573 205.161 21.824 204.265 22.848C203.412 23.8293 202.687 24.7467 202.089 25.6C201.236 26.752 200.361 28.1813 199.465 29.888C198.569 31.552 197.737 33.3227 196.969 35.2C196.201 37.0347 195.54 38.8693 194.985 40.704C194.473 42.496 194.153 44.1173 194.025 45.568C193.855 47.1893 194.025 48.2773 194.537 48.832C195.092 49.3867 195.881 49.5573 196.905 49.344C197.929 49.1307 199.124 48.6187 200.489 47.808C201.855 46.9547 203.284 45.9733 204.777 44.864C206.271 43.7547 207.743 42.56 209.193 41.28C210.644 39.9573 211.967 38.7413 213.161 37.632C214.399 36.48 215.423 35.4987 216.233 34.688C217.087 33.8347 217.62 33.28 217.833 33.024C217.919 32.8533 218.047 32.6827 218.217 32.512V34.432C217.492 35.328 216.511 36.3947 215.273 37.632C214.079 38.8267 212.713 40.1067 211.177 41.472C209.684 42.7947 208.105 44.1173 206.441 45.44C204.777 46.72 203.156 47.872 201.577 48.896C200.041 49.92 198.612 50.7307 197.289 51.328C195.967 51.968 194.879 52.2667 194.025 52.224C193.3 52.1813 192.617 51.904 191.977 51.392C191.38 50.9227 190.868 50.2187 190.441 49.28C190.057 48.384 189.801 47.2747 189.673 45.952C189.588 44.5867 189.716 43.008 190.057 41.216C188.137 42.496 186.281 43.456 184.489 44.096C182.697 44.736 181.225 44.672 180.073 43.904ZM202.729 21.632C203.327 20.992 204.031 20.1813 204.841 19.2C205.695 18.2187 206.463 17.1733 207.145 16.064C207.871 14.9547 208.447 13.8453 208.873 12.736C209.343 11.6267 209.513 10.624 209.385 9.728C209.257 8.96 208.916 8.91733 208.361 9.6C207.892 10.0267 207.359 10.688 206.761 11.584C206.164 12.48 205.567 13.4613 204.969 14.528C204.372 15.5947 203.817 16.6613 203.305 17.728C202.793 18.7947 202.388 19.6693 202.089 20.352C201.62 21.4613 201.407 22.144 201.449 22.4C201.535 22.656 201.961 22.4 202.729 21.632ZM241.274 32.128C241.445 32.0427 241.573 32.064 241.658 32.192C241.786 32.32 241.808 32.512 241.722 32.768C241.68 32.9813 241.509 33.2373 241.21 33.536C240.912 33.8347 240.464 34.0907 239.866 34.304C238.373 34.816 236.922 35.2 235.514 35.456C234.149 35.712 232.826 35.8827 231.546 35.968C231.333 37.6747 230.778 39.36 229.882 41.024C229.029 42.688 227.962 44.1173 226.682 45.312C225.445 46.464 224.058 47.296 222.522 47.808C221.029 48.2773 219.514 48.1707 217.978 47.488C217.04 47.0613 216.314 46.2507 215.802 45.056C215.29 43.8613 215.013 42.5387 214.97 41.088C214.928 39.5947 215.12 38.0587 215.546 36.48C216.016 34.9013 216.741 33.4933 217.722 32.256C217.936 31.9573 218.128 31.7227 218.298 31.552C218.469 31.3813 218.661 31.296 218.874 31.296C219.13 31.296 219.408 31.3813 219.706 31.552C220.048 31.68 220.496 31.9147 221.05 32.256C221.605 32.5973 222.01 32.9173 222.266 33.216C222.522 33.472 222.65 33.7493 222.65 34.048C222.65 34.304 222.565 34.5813 222.394 34.88C222.266 35.1787 222.117 35.5413 221.946 35.968C221.434 36.992 220.922 38.0373 220.41 39.104C219.941 40.128 219.557 41.1093 219.258 42.048C218.96 42.944 218.81 43.7547 218.81 44.48C218.81 45.2053 219.045 45.7387 219.514 46.08C220.069 46.5067 220.709 46.528 221.434 46.144C222.16 45.7173 222.885 45.0773 223.61 44.224C224.378 43.328 225.104 42.2827 225.786 41.088C226.512 39.8933 227.109 38.6987 227.578 37.504C227.706 37.1627 227.792 36.8427 227.834 36.544C227.92 36.2453 228.005 35.968 228.09 35.712C226.554 35.3707 225.189 34.7947 223.994 33.984C222.842 33.1733 221.946 32.0853 221.306 30.72C220.837 29.7813 220.688 28.992 220.858 28.352C221.072 27.712 221.456 27.2427 222.01 26.944C222.608 26.6453 223.333 26.5173 224.186 26.56C225.04 26.6027 225.893 26.7947 226.746 27.136C227.6 27.4347 228.389 27.904 229.114 28.544C229.882 29.184 230.48 29.952 230.906 30.848C231.589 32.3413 231.802 33.8773 231.546 35.456C233.082 35.3707 234.661 35.072 236.282 34.56C237.946 34.048 239.61 33.2373 241.274 32.128ZM222.458 29.696C222.714 31.0613 223.333 32.2133 224.314 33.152C225.338 34.048 226.597 34.688 228.09 35.072C228.133 33.8347 227.834 32.768 227.194 31.872C226.597 30.9333 225.914 30.208 225.146 29.696C224.421 29.184 223.76 28.928 223.162 28.928C222.608 28.8853 222.373 29.1413 222.458 29.696ZM263.323 43.904C262.47 43.3493 261.937 42.4533 261.723 41.216C261.51 39.9787 261.531 38.6133 261.787 37.12C262.086 35.6267 262.598 34.1333 263.323 32.64C264.091 31.1467 264.987 29.824 266.011 28.672C267.078 27.52 268.273 26.688 269.595 26.176C270.918 25.6213 272.283 25.5573 273.691 25.984C274.502 26.24 275.078 26.6667 275.419 27.264C275.803 27.8613 275.995 28.5227 275.995 29.248C276.038 29.9733 275.953 30.6987 275.739 31.424C275.526 32.1493 275.27 32.768 274.971 33.28C274.63 33.8773 274.31 34.1973 274.011 34.24C273.755 34.24 273.819 33.8773 274.203 33.152C274.417 32.7253 274.566 32.32 274.651 31.936C274.737 31.5093 274.737 31.1467 274.651 30.848C274.566 30.5067 274.374 30.2293 274.075 30.016C273.777 29.8027 273.35 29.696 272.795 29.696C272.326 29.696 271.793 29.952 271.195 30.464C270.598 30.9333 270.001 31.5733 269.403 32.384C268.806 33.152 268.23 34.0053 267.675 34.944C267.163 35.8827 266.737 36.8213 266.395 37.76C266.054 38.656 265.819 39.4667 265.691 40.192C265.606 40.9173 265.713 41.4293 266.011 41.728C266.609 42.496 267.611 42.688 269.019 42.304C270.427 41.8773 271.942 41.0453 273.563 39.808C273.649 39.68 273.691 39.5733 273.691 39.488C273.691 39.4027 273.734 39.296 273.819 39.168C274.459 36.6933 275.313 34.0267 276.379 31.168C277.446 28.3093 278.577 25.5147 279.771 22.784C280.966 20.0533 282.139 17.5147 283.291 15.168C284.486 12.8213 285.51 10.9227 286.363 9.472C286.875 8.576 287.43 7.72267 288.027 6.912C288.667 6.10133 289.307 5.48267 289.947 5.056C290.63 4.58666 291.313 4.37333 291.995 4.416C292.678 4.416 293.318 4.82133 293.915 5.632C294.726 6.74133 295.153 7.89333 295.195 9.088C295.281 10.24 295.089 11.4133 294.619 12.608C294.193 13.8027 293.574 14.9973 292.763 16.192C291.995 17.3867 291.142 18.5387 290.203 19.648C289.307 20.7573 288.411 21.824 287.515 22.848C286.662 23.8293 285.937 24.7467 285.339 25.6C284.486 26.752 283.611 28.1813 282.715 29.888C281.819 31.552 280.987 33.3227 280.219 35.2C279.451 37.0347 278.79 38.8693 278.235 40.704C277.723 42.496 277.403 44.1173 277.275 45.568C277.105 47.1893 277.275 48.2773 277.787 48.832C278.342 49.3867 279.131 49.5573 280.155 49.344C281.179 49.1307 282.374 48.6187 283.739 47.808C285.105 46.9547 286.534 45.9733 288.027 44.864C289.521 43.7547 290.993 42.56 292.443 41.28C293.894 39.9573 295.217 38.7413 296.411 37.632C297.649 36.48 298.673 35.4987 299.483 34.688C300.337 33.8347 300.87 33.28 301.083 33.024C301.169 32.8533 301.297 32.6827 301.467 32.512V34.432C300.742 35.328 299.761 36.3947 298.523 37.632C297.329 38.8267 295.963 40.1067 294.427 41.472C292.934 42.7947 291.355 44.1173 289.691 45.44C288.027 46.72 286.406 47.872 284.827 48.896C283.291 49.92 281.862 50.7307 280.539 51.328C279.217 51.968 278.129 52.2667 277.275 52.224C276.55 52.1813 275.867 51.904 275.227 51.392C274.63 50.9227 274.118 50.2187 273.691 49.28C273.307 48.384 273.051 47.2747 272.923 45.952C272.838 44.5867 272.966 43.008 273.307 41.216C271.387 42.496 269.531 43.456 267.739 44.096C265.947 44.736 264.475 44.672 263.323 43.904ZM285.979 21.632C286.577 20.992 287.281 20.1813 288.091 19.2C288.945 18.2187 289.713 17.1733 290.395 16.064C291.121 14.9547 291.697 13.8453 292.123 12.736C292.593 11.6267 292.763 10.624 292.635 9.728C292.507 8.96 292.166 8.91733 291.611 9.6C291.142 10.0267 290.609 10.688 290.011 11.584C289.414 12.48 288.817 13.4613 288.219 14.528C287.622 15.5947 287.067 16.6613 286.555 17.728C286.043 18.7947 285.638 19.6693 285.339 20.352C284.87 21.4613 284.657 22.144 284.699 22.4C284.785 22.656 285.211 22.4 285.979 21.632ZM303.212 43.136C304.023 44.032 305.239 44.3733 306.86 44.16C308.482 43.904 310.274 43.264 312.236 42.24C314.242 41.1733 316.268 39.7867 318.316 38.08C320.407 36.3733 322.284 34.5173 323.948 32.512V33.92C322.327 36.0107 320.428 37.952 318.252 39.744C316.119 41.536 313.943 43.0293 311.724 44.224C309.548 45.376 307.436 46.144 305.388 46.528C303.383 46.8693 301.719 46.6347 300.396 45.824C299.372 45.2267 298.711 44.2453 298.412 42.88C298.114 41.472 298.114 39.9147 298.412 38.208C298.711 36.5013 299.266 34.7733 300.076 33.024C300.887 31.232 301.89 29.6533 303.084 28.288C304.279 26.88 305.623 25.792 307.116 25.024C308.61 24.256 310.21 24.0213 311.916 24.32C313.495 24.6613 314.263 25.2373 314.22 26.048C314.22 26.816 313.772 27.6693 312.876 28.608C312.023 29.504 310.914 30.4213 309.548 31.36C308.226 32.256 307.052 32.9813 306.028 33.536C305.474 34.5173 304.962 35.52 304.492 36.544C304.066 37.568 303.703 38.528 303.404 39.424C303.148 40.2773 302.978 41.0453 302.892 41.728C302.85 42.368 302.956 42.8373 303.212 43.136ZM312.172 27.136C311.831 27.0507 311.426 27.136 310.956 27.392C310.53 27.648 310.082 28.032 309.612 28.544C309.143 29.056 308.652 29.6747 308.14 30.4C307.628 31.0827 307.138 31.8293 306.668 32.64C307.351 32.128 308.098 31.5733 308.908 30.976C309.762 30.3787 310.487 29.824 311.084 29.312C311.724 28.7573 312.172 28.288 312.428 27.904C312.684 27.4773 312.599 27.2213 312.172 27.136ZM103.502 110.848C102.948 109.355 102.5 107.371 102.158 104.896C101.86 102.379 101.689 99.648 101.646 96.704C101.604 93.7173 101.732 90.6453 102.03 87.488C102.372 84.288 102.905 81.2373 103.63 78.336C102.308 78.5493 100.793 78.72 99.0863 78.848C97.4223 78.976 95.8436 79.1893 94.3503 79.488C92.8569 79.7867 91.5983 80.256 90.5742 80.896C89.5502 81.4933 89.0382 82.3893 89.0382 83.584C88.9956 84.3093 89.1876 85.1413 89.6142 86.08C89.9982 87.0187 90.5316 87.808 91.2142 88.448C91.8969 89.088 92.6649 89.4507 93.5182 89.536C94.3716 89.5787 95.2249 89.0453 96.0783 87.936C96.3769 87.4667 96.6543 87.168 96.9103 87.04C97.1663 86.8693 97.3796 86.8053 97.5503 86.848C97.7636 86.8907 97.9343 86.9973 98.0623 87.168C98.1903 87.296 98.2969 87.3813 98.3823 87.424C98.5103 87.6373 98.4889 87.936 98.3183 88.32C98.1903 88.6613 97.8276 89.0027 97.2303 89.344C95.9503 90.0267 94.6916 90.24 93.4543 89.984C92.2596 89.6853 91.2356 89.1307 90.3822 88.32C89.5289 87.4667 88.9102 86.464 88.5262 85.312C88.1422 84.16 88.1422 83.0293 88.5262 81.92C89.0382 80.4693 89.9129 79.4453 91.1502 78.848C92.3876 78.208 93.7743 77.7813 95.3103 77.568C96.8463 77.3547 98.3823 77.248 99.9183 77.248C101.497 77.248 102.862 77.1413 104.014 76.928C104.868 74.112 105.934 71.616 107.214 69.44C108.537 67.2213 110.158 65.6213 112.078 64.64C113.017 64.384 113.7 64.384 114.126 64.64C114.553 64.896 114.766 65.3227 114.766 65.92C114.809 66.4747 114.702 67.1573 114.446 67.968C114.19 68.7787 113.849 69.632 113.422 70.528C112.996 71.3813 112.526 72.2347 112.014 73.088C111.502 73.9413 111.054 74.7093 110.67 75.392C110.372 76.5867 110.073 78.0587 109.774 79.808C109.518 81.5573 109.284 83.4773 109.07 85.568C108.857 87.6587 108.665 89.8347 108.494 92.096C108.366 94.3147 108.26 96.4907 108.174 98.624C108.132 100.757 108.132 102.784 108.174 104.704C108.217 106.581 108.324 108.203 108.494 109.568C108.494 109.611 108.708 109.184 109.134 108.288C109.561 107.349 110.158 106.112 110.926 104.576C111.737 103.04 112.718 101.269 113.87 99.264C115.022 97.216 116.302 95.0827 117.71 92.864C119.161 90.6453 120.718 88.4053 122.382 86.144C124.089 83.8827 125.902 81.7493 127.822 79.744C128.462 79.0613 129.358 78.2293 130.51 77.248C131.662 76.2667 132.942 75.2853 134.35 74.304C135.758 73.28 137.23 72.32 138.766 71.424C140.345 70.528 141.902 69.824 143.438 69.312C144.974 68.8 146.404 68.544 147.726 68.544C149.092 68.5013 150.265 68.864 151.246 69.632C152.185 70.3573 152.633 71.232 152.59 72.256C152.59 73.2373 152.228 74.1973 151.502 75.136C150.82 76.0747 149.881 76.9067 148.686 77.632C147.492 78.3147 146.169 78.72 144.718 78.848C144.078 78.9333 143.566 78.848 143.182 78.592C142.841 78.336 142.713 78.08 142.798 77.824C142.798 77.7813 142.82 77.6747 142.862 77.504C142.905 77.2907 142.99 77.12 143.118 76.992C143.246 76.8213 143.46 76.736 143.758 76.736C144.057 76.6933 144.462 76.8 144.974 77.056C145.913 77.3973 146.852 77.3547 147.79 76.928C148.772 76.5013 149.582 75.9253 150.222 75.2C150.862 74.432 151.268 73.6427 151.438 72.832C151.652 72.0213 151.46 71.3813 150.862 70.912C150.308 70.4427 149.262 70.2933 147.726 70.464C146.233 70.592 144.121 71.2533 141.39 72.448C140.665 72.832 139.982 73.1947 139.342 73.536C138.702 73.8347 138.062 74.1547 137.422 74.496C134.777 76.032 132.409 77.8453 130.318 79.936C128.228 81.984 126.35 84.16 124.686 86.464C123.065 88.768 121.614 91.136 120.334 93.568C119.054 96 117.902 98.3467 116.878 100.608C115.897 102.827 115.001 104.917 114.19 106.88C113.38 108.843 112.612 110.528 111.886 111.936C111.161 113.344 110.457 114.389 109.774 115.072C109.092 115.755 108.366 115.968 107.598 115.712C106.958 115.456 106.212 114.901 105.358 114.048C104.505 113.195 103.886 112.128 103.502 110.848ZM110.67 74.112C111.822 71.424 112.526 69.4613 112.782 68.224C113.038 66.944 113.06 66.304 112.846 66.304C112.59 66.2187 112.206 66.88 111.694 68.288C111.225 69.6533 110.884 71.5947 110.67 74.112ZM155.776 95.488C155.179 96.512 154.624 97.6 154.112 98.752C153.6 99.8613 153.216 100.864 152.96 101.76C152.704 102.656 152.598 103.381 152.64 103.936C152.683 104.491 153.003 104.704 153.6 104.576C154.283 104.405 155.115 104.021 156.096 103.424C157.078 102.827 158.08 102.123 159.104 101.312C160.171 100.501 161.195 99.648 162.176 98.752C163.158 97.8133 164.011 96.9387 164.736 96.128L164.608 97.408C164.48 97.664 164.118 98.112 163.52 98.752C162.966 99.3493 162.262 100.032 161.408 100.8C160.598 101.568 159.702 102.357 158.72 103.168C157.739 103.936 156.779 104.619 155.84 105.216C154.902 105.813 154.027 106.24 153.216 106.496C152.406 106.709 151.766 106.667 151.296 106.368C150.955 106.155 150.806 105.728 150.848 105.088C150.934 104.448 151.062 103.787 151.232 103.104C151.446 102.379 151.616 101.739 151.744 101.184C151.872 100.587 151.808 100.224 151.552 100.096C151.083 100.053 150.507 100.352 149.824 100.992C149.142 101.589 148.395 102.357 147.584 103.296C146.774 104.235 145.92 105.259 145.024 106.368C144.171 107.435 143.318 108.416 142.464 109.312C141.654 110.208 140.864 110.933 140.096 111.488C139.328 112 138.667 112.171 138.112 112C137.643 111.872 137.216 111.659 136.832 111.36C136.448 111.061 136.107 110.72 135.808 110.336C135.552 109.952 135.318 109.568 135.104 109.184C134.934 108.8 134.827 108.459 134.784 108.16C134.571 107.221 134.592 106.048 134.848 104.64C135.147 103.232 135.552 101.76 136.064 100.224C136.576 98.6453 137.195 97.0667 137.92 95.488C138.646 93.9093 139.35 92.5013 140.032 91.264C140.715 89.984 141.355 88.9387 141.952 88.128C142.592 87.2747 143.062 86.784 143.36 86.656C143.744 86.528 144.256 86.528 144.896 86.656C145.579 86.784 146.219 86.976 146.816 87.232C147.456 87.488 147.947 87.7867 148.288 88.128C148.672 88.4267 148.779 88.704 148.608 88.96C147.2 90.9227 145.878 93.0987 144.64 95.488C143.446 97.8773 142.422 100.117 141.568 102.208C140.758 104.299 140.16 106.048 139.776 107.456C139.435 108.864 139.435 109.568 139.776 109.568C139.99 109.568 140.395 109.205 140.992 108.48C141.59 107.712 142.272 106.795 143.04 105.728C143.851 104.661 144.683 103.552 145.536 102.4C146.432 101.248 147.286 100.267 148.096 99.456C148.224 99.328 148.48 99.0507 148.864 98.624C149.248 98.1547 149.696 97.6427 150.208 97.088C150.763 96.5333 151.339 95.9787 151.936 95.424C152.534 94.8267 153.131 94.336 153.728 93.952C154.496 93.44 155.094 93.4187 155.52 93.888C155.99 94.3147 156.075 94.848 155.776 95.488ZM165.775 107.136C166.585 108.032 167.801 108.373 169.423 108.16C171.044 107.904 172.836 107.264 174.799 106.24C176.804 105.173 178.831 103.787 180.879 102.08C182.969 100.373 184.847 98.5173 186.511 96.512V97.92C184.889 100.011 182.991 101.952 180.815 103.744C178.681 105.536 176.505 107.029 174.287 108.224C172.111 109.376 169.999 110.144 167.951 110.528C165.945 110.869 164.281 110.635 162.959 109.824C161.935 109.227 161.273 108.245 160.975 106.88C160.676 105.472 160.676 103.915 160.975 102.208C161.273 100.501 161.828 98.7733 162.639 97.024C163.449 95.232 164.452 93.6533 165.647 92.288C166.841 90.88 168.185 89.792 169.679 89.024C171.172 88.256 172.772 88.0213 174.479 88.32C176.057 88.6613 176.825 89.2373 176.783 90.048C176.783 90.816 176.335 91.6693 175.439 92.608C174.585 93.504 173.476 94.4213 172.111 95.36C170.788 96.256 169.615 96.9813 168.591 97.536C168.036 98.5173 167.524 99.52 167.055 100.544C166.628 101.568 166.265 102.528 165.967 103.424C165.711 104.277 165.54 105.045 165.455 105.728C165.412 106.368 165.519 106.837 165.775 107.136ZM174.735 91.136C174.393 91.0507 173.988 91.136 173.519 91.392C173.092 91.648 172.644 92.032 172.175 92.544C171.705 93.056 171.215 93.6747 170.703 94.4C170.191 95.0827 169.7 95.8293 169.231 96.64C169.913 96.128 170.66 95.5733 171.471 94.976C172.324 94.3787 173.049 93.824 173.647 93.312C174.287 92.7573 174.735 92.288 174.991 91.904C175.247 91.4773 175.161 91.2213 174.735 91.136ZM186.674 113.792C187.954 113.195 189.426 112.213 191.09 110.848C192.754 109.44 194.439 107.904 196.146 106.24C197.852 104.533 199.495 102.805 201.074 101.056C202.652 99.3067 203.996 97.7493 205.106 96.384V97.664C204.21 98.8587 203.122 100.288 201.842 101.952C200.562 103.573 199.154 105.237 197.618 106.944C196.124 108.651 194.588 110.272 193.01 111.808C191.431 113.344 189.895 114.624 188.402 115.648C186.951 116.715 185.586 117.419 184.306 117.76C183.068 118.101 182.066 117.888 181.298 117.12C180.103 116.011 179.442 114.304 179.314 112C179.186 109.696 179.442 107.093 180.082 104.192C180.679 101.248 181.596 98.1547 182.834 94.912C184.114 91.6693 185.522 88.5333 187.058 85.504C188.636 82.4747 190.279 79.7227 191.986 77.248C193.735 74.7307 195.399 72.7893 196.978 71.424C198.599 70.016 200.05 69.312 201.33 69.312C202.61 69.2693 203.612 70.2293 204.338 72.192C204.892 73.8133 204.892 75.5413 204.338 77.376C203.826 79.2107 202.908 81.0667 201.586 82.944C200.263 84.7787 198.62 86.5493 196.658 88.256C194.738 89.9627 192.647 91.4773 190.386 92.8C189.276 95.104 188.274 97.3653 187.378 99.584C186.482 101.803 185.735 103.808 185.138 105.6C184.882 106.453 184.626 107.328 184.37 108.224C184.156 109.077 183.986 109.952 183.858 110.848C183.772 111.232 183.73 111.659 183.73 112.128C183.73 112.64 183.815 113.088 183.986 113.472C184.156 113.856 184.434 114.091 184.818 114.176C185.244 114.304 185.863 114.176 186.674 113.792ZM202.29 73.728C202.076 73.1733 201.607 73.3013 200.882 74.112C200.156 74.88 199.282 76.096 198.258 77.76C197.234 79.424 196.103 81.408 194.866 83.712C193.671 86.016 192.476 88.4053 191.282 90.88C192.86 89.8133 194.418 88.5547 195.954 87.104C197.49 85.6533 198.812 84.16 199.922 82.624C201.031 81.088 201.82 79.552 202.29 78.016C202.802 76.48 202.802 75.0507 202.29 73.728ZM230.343 77.696C229.49 77.696 228.466 77.7387 227.271 77.824C226.119 77.8667 224.839 77.952 223.431 78.08C219.847 84.3093 216.861 89.664 214.471 94.144C212.082 98.5813 210.269 102.315 209.031 105.344C207.837 108.331 207.197 110.635 207.111 112.256C207.026 113.92 207.474 115.029 208.455 115.584C208.925 115.755 209.949 115.477 211.527 114.752C213.149 114.069 215.047 112.96 217.223 111.424C219.399 109.845 221.767 107.84 224.327 105.408C226.887 102.933 229.362 100.011 231.751 96.64L232.903 96.768C232.349 97.4507 231.431 98.5173 230.151 99.968C228.914 101.419 227.463 103.019 225.799 104.768C224.135 106.517 222.322 108.331 220.359 110.208C218.397 112.085 216.434 113.792 214.471 115.328C212.551 116.907 210.674 118.229 208.839 119.296C207.005 120.405 205.383 121.045 203.975 121.216C202.226 121.429 200.925 121.195 200.071 120.512C199.218 119.829 198.706 118.805 198.535 117.44C198.322 116.075 198.407 114.432 198.791 112.512C199.175 110.635 199.773 108.587 200.583 106.368C201.351 104.149 202.269 101.845 203.335 99.456C204.445 97.024 205.597 94.6133 206.791 92.224C208.029 89.792 209.266 87.4453 210.503 85.184C211.783 82.9227 212.978 80.8533 214.087 78.976C212.509 79.104 210.973 79.232 209.479 79.36C208.029 79.488 206.685 79.5947 205.447 79.68C204.21 79.7227 203.122 79.744 202.183 79.744C201.245 79.744 200.562 79.7013 200.135 79.616C199.495 79.4453 199.175 79.1253 199.175 78.656C199.175 78.1867 199.41 77.696 199.879 77.184C200.306 76.672 200.925 76.2453 201.735 75.904C202.589 75.52 203.549 75.3493 204.615 75.392C205.981 75.52 207.645 75.6053 209.607 75.648C211.613 75.648 213.746 75.6053 216.007 75.52C216.733 74.368 217.351 73.3867 217.863 72.576C218.418 71.7653 218.823 71.1253 219.079 70.656C219.549 69.9307 219.997 69.2053 220.423 68.48C220.893 67.7547 221.383 67.2853 221.895 67.072C222.322 66.9013 222.855 66.88 223.495 67.008C224.178 67.136 224.839 67.328 225.479 67.584C226.119 67.84 226.653 68.16 227.079 68.544C227.549 68.8853 227.826 69.2053 227.911 69.504C227.997 70.1013 227.826 70.6987 227.399 71.296C226.973 71.8933 226.631 72.448 226.375 72.96C226.119 73.3013 225.885 73.6427 225.671 73.984C225.501 74.3253 225.309 74.6667 225.095 75.008C227.143 74.88 229.021 74.7307 230.727 74.56C232.477 74.3467 233.97 74.112 235.207 73.856C236.018 73.728 236.381 73.8773 236.295 74.304C236.253 74.688 235.933 75.136 235.335 75.648C234.781 76.16 234.034 76.6507 233.095 77.12C232.199 77.5467 231.282 77.7387 230.343 77.696ZM262.294 96.768C262.379 96.768 262.422 96.7467 262.422 96.704C262.422 96.6613 262.464 96.64 262.55 96.64V97.664C261.995 98.304 261.206 99.136 260.182 100.16C259.158 101.184 257.984 102.272 256.662 103.424C255.339 104.576 253.91 105.728 252.374 106.88C250.88 107.989 249.408 108.971 247.958 109.824C246.507 110.635 245.12 111.253 243.798 111.68C242.518 112.064 241.43 112.085 240.534 111.744C239.851 111.531 239.382 111.04 239.126 110.272C238.912 109.504 238.806 108.651 238.806 107.712C238.806 106.731 238.891 105.771 239.062 104.832C239.232 103.893 239.424 103.125 239.638 102.528C238.784 102.997 237.995 103.573 237.27 104.256C236.587 104.939 235.862 105.557 235.094 106.112C234.368 106.624 233.6 107.008 232.79 107.264C231.979 107.52 231.062 107.477 230.038 107.136C228.758 106.709 227.904 105.92 227.478 104.768C227.094 103.573 227.03 102.229 227.286 100.736C227.542 99.2 228.075 97.6427 228.886 96.064C229.739 94.4427 230.784 92.992 232.022 91.712C233.302 90.3893 234.731 89.3653 236.31 88.64C237.888 87.872 239.552 87.5947 241.302 87.808C242.88 88.0213 243.904 88.4693 244.374 89.152C244.843 89.792 244.971 90.5387 244.758 91.392C244.587 92.2027 244.203 93.0347 243.606 93.888C243.008 94.7413 242.454 95.4453 241.942 96C241.259 96.6827 240.875 96.8533 240.79 96.512C240.619 96.3413 240.662 96.0853 240.918 95.744C241.174 95.3173 241.494 94.784 241.878 94.144C242.262 93.504 242.56 92.8853 242.774 92.288C242.987 91.6907 243.03 91.1787 242.902 90.752C242.774 90.3253 242.326 90.0693 241.558 89.984C241.046 89.984 240.406 90.2827 239.638 90.88C238.912 91.4347 238.166 92.1813 237.398 93.12C236.63 94.016 235.862 95.0187 235.094 96.128C234.368 97.2373 233.728 98.304 233.174 99.328C232.662 100.352 232.299 101.248 232.086 102.016C231.872 102.784 231.915 103.296 232.214 103.552C232.384 103.723 232.726 103.659 233.238 103.36C233.792 103.019 234.432 102.592 235.158 102.08C235.926 101.568 236.779 101.013 237.718 100.416C238.656 99.8187 239.638 99.328 240.662 98.944C241.814 98.5173 242.624 98.4533 243.094 98.752C243.606 99.008 243.883 99.4987 243.926 100.224C244.011 100.949 243.926 101.824 243.67 102.848C243.456 103.829 243.2 104.789 242.902 105.728C242.646 106.667 242.411 107.52 242.198 108.288C242.027 109.056 241.984 109.568 242.07 109.824C242.24 110.336 242.944 110.464 244.182 110.208C245.419 109.952 246.998 109.291 248.918 108.224C250.838 107.157 252.95 105.685 255.254 103.808C257.6 101.888 259.947 99.5413 262.294 96.768Z" fill="white"/>
</svg>
