<svg width="242" height="240" viewBox="0 0 242 240" fill="none" xmlns="http://www.w3.org/2000/svg">
<path fill-rule="evenodd" clip-rule="evenodd" d="M154.441 12.0658C128.055 3.92099 99.608 5.63904 74.394 16.9003C49.1801 28.1616 28.9157 48.1992 17.3714 73.2849C16.5635 75.0405 14.4853 75.8087 12.7297 75.0008C10.9741 74.1929 10.2058 72.1147 11.0138 70.3591C23.2674 43.7321 44.7768 22.4634 71.54 10.5102C98.3032 -1.44304 128.498 -3.26666 156.505 5.37863C184.512 14.0239 208.425 32.5493 223.794 57.508C239.163 82.4666 244.942 112.159 240.055 141.06C239.733 142.965 237.927 144.249 236.022 143.927C234.116 143.604 232.833 141.799 233.155 139.893C237.759 112.665 232.314 84.6915 217.835 61.1776C203.355 37.6637 180.827 20.2107 154.441 12.0658ZM135.197 15.7558C135.522 13.8509 137.331 12.5706 139.235 12.8962C166.196 17.5047 190.454 32.0382 207.236 53.6359C224.018 75.2335 232.107 102.331 229.912 129.594C227.717 156.857 215.396 182.311 195.374 200.945C175.353 219.579 149.081 230.043 121.731 230.279C94.3806 230.514 67.933 220.503 47.594 202.216C27.255 183.929 14.4979 158.69 11.8341 131.469C9.17021 104.248 16.7926 77.0156 33.2005 55.1325C49.6085 33.2494 73.6135 18.3008 100.49 13.2294C102.39 12.871 104.22 14.12 104.578 16.0191C104.936 17.9182 103.687 19.7482 101.788 20.1065C76.6294 24.8538 54.1589 38.8467 38.7999 59.3309C23.4409 79.815 16.3058 105.307 18.7994 130.788C21.2929 156.269 33.2345 179.893 52.2732 197.011C71.312 214.129 96.0689 223.501 121.671 223.28C147.272 223.06 171.865 213.265 190.606 195.822C209.348 178.379 220.881 154.552 222.936 129.032C224.991 103.512 217.419 78.147 201.71 57.93C186.001 37.713 163.293 24.1086 138.056 19.7947C136.151 19.4691 134.871 17.6608 135.197 15.7558ZM195.087 74.4756C196.497 75.7973 196.569 78.0118 195.247 79.4217L193.865 80.8962C192.543 82.3061 190.328 82.3776 188.918 81.0559C187.508 79.7342 187.437 77.5197 188.759 76.1098L190.141 74.6353C191.463 73.2253 193.677 73.1538 195.087 74.4756ZM184.297 86.1256C185.711 87.4429 185.79 89.6571 184.472 91.0713L175.073 101.162C173.755 102.576 171.541 102.655 170.127 101.337C168.713 100.02 168.634 97.806 169.952 96.3918L179.351 86.301C180.669 84.8869 182.883 84.8084 184.297 86.1256ZM5.7483 97.6308C7.65354 97.9548 8.93538 99.762 8.61137 101.667C3.54751 131.443 10.5171 162.011 27.9875 186.649C45.458 211.287 71.9988 227.978 101.773 233.051C103.678 233.375 104.96 235.183 104.635 237.088C104.311 238.993 102.503 240.274 100.598 239.95C68.994 234.565 40.8224 216.849 22.2786 190.697C3.73467 164.546 -3.66311 132.099 1.71188 100.494C2.03589 98.5886 3.84306 97.3068 5.7483 97.6308ZM166.691 105.059C168.108 106.374 168.19 108.588 166.875 110.004L105.547 176.078C104.842 176.838 103.837 177.246 102.802 177.192C101.767 177.139 100.809 176.629 100.186 175.801L54.9848 115.717C53.823 114.173 54.1331 111.979 55.6774 110.817C57.2218 109.655 59.4156 109.966 60.5775 111.51L103.264 168.251L161.746 105.243C163.061 103.827 165.275 103.744 166.691 105.059Z" fill="#A40909"/>
</svg>
