<svg width="351" height="351" viewBox="0 0 351 351" fill="none" xmlns="http://www.w3.org/2000/svg">
<path d="M175.517 331.348L245.051 313.789C284.741 280.832 310.021 231.121 310.021 175.501C310.021 89.7086 249.891 17.9614 169.476 0.102173C75.3396 3.27694 0 80.5902 0 175.5C0 224.251 19.8809 268.355 51.9727 300.157L175.517 331.348Z" fill="#FFCBCB"/>
<path d="M306.381 175.5C306.381 233.028 278.698 284.084 235.93 316.091L299.022 300.158C331.116 268.356 351 224.252 351 175.5C351 78.574 272.426 0 175.5 0C167.943 0 160.496 0.478512 153.19 1.40537C239.582 12.3659 306.381 86.1321 306.381 175.5Z" fill="#FFA3A3"/>
<path d="M219.115 66.4652C219.115 57.5017 211.849 50.2356 202.886 50.2356H146.957C126.329 50.2356 109.605 66.9588 109.605 87.5876V129.058H241.374V88.1758C241.374 79.2123 234.108 71.9462 225.144 71.9462H224.597C221.57 71.9462 219.115 69.4926 219.115 66.4652Z" fill="#7D5036"/>
<path d="M225.144 71.9461H224.597C221.57 71.9461 219.115 69.4919 219.115 66.4645C219.115 57.501 211.849 50.2349 202.886 50.2349H196.753V129.058H241.373V88.1751C241.374 79.2129 234.107 71.9461 225.144 71.9461Z" fill="#6A3F27"/>
<path d="M291.388 255.267C287.097 251.029 281.79 247.751 275.765 245.844L227.851 230.674L175.511 228.835L123.149 230.674L75.2354 245.844C59.0263 250.976 48.0103 266.018 48.0103 283.021V296.11C78.7152 328.556 121.673 349.287 169.477 350.899C223.038 339.003 267.599 303.202 291.388 255.267Z" fill="#4A80AA"/>
<path d="M302.99 296.11V283.02C302.99 270.998 297.478 259.961 288.521 252.71C263.08 304.555 212.822 342.015 153.231 349.589C160.424 350.5 167.75 350.986 175.187 350.999C182.332 350.988 189.383 350.574 196.318 349.778C238.158 344.834 275.488 325.171 302.99 296.11Z" fill="#407093"/>
<path d="M179.474 348.373C190.092 327.292 217.742 267.433 209.858 230.041L175.511 216.674L141.132 230.042C133.004 268.587 162.638 331.007 172.449 350.212C174.808 349.645 177.151 349.032 179.474 348.373Z" fill="#FFFDFA"/>
<path d="M170.908 350.935C172.331 350.972 173.756 350.997 175.187 351C176.842 350.997 178.493 350.968 180.138 350.923L188.986 341.147C182.022 343.591 174.857 345.608 167.522 347.166L170.908 350.935Z" fill="#407093"/>
<path d="M204.824 224.985V194.09H146.155V224.985C146.155 241.186 175.489 258.882 175.489 258.882C175.489 258.882 204.824 241.186 204.824 224.985Z" fill="#FFDDCE"/>
<path d="M241.374 123.616H230.159C223.922 123.616 218.866 118.561 218.866 112.323V106.143C218.866 98.0188 210.917 92.2746 203.203 94.8241C185.212 100.771 165.787 100.772 147.795 94.8283L147.774 94.8214C140.06 92.2732 132.113 98.0174 132.113 106.141V112.324C132.113 118.561 127.057 123.617 120.82 123.617H109.605V142.084C109.605 146.803 113.431 150.629 118.15 150.629C119.639 150.629 120.85 151.795 120.944 153.281C122.746 181.847 146.471 204.46 175.49 204.46C204.509 204.46 228.234 181.847 230.035 153.281C230.129 151.796 231.341 150.629 232.83 150.629C237.548 150.629 241.374 146.804 241.374 142.084V123.616H241.374Z" fill="#FFDDCE"/>
<path d="M230.159 123.616C223.922 123.616 218.866 118.561 218.866 112.323V106.143C218.866 98.0188 210.917 92.2746 203.203 94.8242C201.073 95.5282 198.921 96.1425 196.754 96.6799V157.674C196.454 177.52 185.58 194.791 169.521 204.126C171.482 204.339 173.472 204.459 175.489 204.459C204.509 204.459 228.233 181.845 230.035 153.28C230.129 151.794 231.34 150.628 232.829 150.628C237.548 150.628 241.374 146.802 241.374 142.083V123.616H230.159V123.616Z" fill="#FFCBBE"/>
</svg>
