<svg width="242" height="57" viewBox="0 0 242 57" fill="none" xmlns="http://www.w3.org/2000/svg">
<path d="M8.16275 46.464C8.41875 45.0133 8.82408 43.0293 9.37875 40.512C9.93342 37.952 10.6161 35.1573 11.4268 32.128C12.2801 29.0987 13.2188 25.9627 14.2428 22.72C15.2668 19.4773 16.3974 16.4267 17.6348 13.568C16.8241 13.568 15.8641 13.4827 14.7548 13.312C13.6881 13.1413 12.5788 12.9707 11.4268 12.8C10.2748 12.6293 9.12275 12.48 7.97075 12.352C6.81875 12.224 5.75208 12.224 4.77075 12.352C3.78942 12.4373 2.95742 12.6933 2.27475 13.12C1.54942 13.504 1.08008 14.1227 0.86675 14.976C0.696083 15.6587 0.696083 16.512 0.86675 17.536C1.03742 18.56 1.37875 19.456 1.89075 20.224C2.40275 20.992 3.06408 21.504 3.87475 21.76C4.68542 22.016 5.64542 21.7173 6.75475 20.864C7.18142 20.48 7.52275 20.2667 7.77875 20.224C8.07742 20.1387 8.31208 20.1387 8.48275 20.224C8.65342 20.2667 8.78142 20.3733 8.86675 20.544C8.95208 20.7147 9.01608 20.8213 9.05875 20.864C9.18675 21.12 9.12275 21.4187 8.86675 21.76C8.61075 22.0587 8.12008 22.3147 7.39475 22.528C5.98675 22.8693 4.74942 22.7627 3.68275 22.208C2.57342 21.6533 1.69875 20.8853 1.05875 19.904C0.41875 18.88 0.0774164 17.7493 0.03475 16.512C-0.0505835 15.2747 0.22675 14.1653 0.86675 13.184C1.76275 11.8187 2.97875 11.008 4.51475 10.752C6.05075 10.496 7.67208 10.496 9.37875 10.752C11.0854 11.008 12.7281 11.328 14.3068 11.712C15.9281 12.096 17.2508 12.2453 18.2748 12.16C19.0428 10.496 19.8321 8.96 20.6428 7.552C21.4961 6.144 22.3494 4.928 23.2028 3.904C24.0988 2.88 24.9948 2.09066 25.8908 1.536C26.8294 0.938666 27.7894 0.639999 28.7708 0.639999C29.8374 0.682666 30.5628 0.895999 30.9468 1.28C31.3308 1.62133 31.4588 2.112 31.3308 2.752C31.2028 3.34933 30.8828 4.032 30.3708 4.8C29.8588 5.568 29.2401 6.35733 28.5148 7.168C27.7894 7.936 27.0428 8.704 26.2748 9.472C25.5068 10.24 24.8028 10.9227 24.1628 11.52C23.9494 12.1173 23.6294 13.184 23.2028 14.72C22.7761 16.256 22.2001 18.176 21.4748 20.48C22.2001 19.0293 23.0108 17.6 23.9068 16.192C24.8454 14.7413 25.8694 13.4187 26.9788 12.224C28.0881 10.9867 29.2828 9.96267 30.5628 9.152C31.8854 8.29866 33.2934 7.76533 34.7868 7.552C36.3228 7.59466 37.4321 7.89333 38.1147 8.448C38.8401 8.96 39.2241 9.62133 39.2668 10.432C39.3094 11.2 39.0321 12.0747 38.4348 13.056C37.8801 14.0373 37.0694 14.9973 36.0028 15.936C34.9788 16.832 33.7414 17.664 32.2908 18.432C30.8401 19.1573 29.2828 19.712 27.6188 20.096C30.6481 21.12 32.9734 22.7413 34.5948 24.96C36.2588 27.136 37.3041 29.5893 37.7308 32.32C38.1574 35.0507 38.0508 37.8667 37.4108 40.768C36.7708 43.6267 35.6828 46.2293 34.1468 48.576C32.6108 50.9227 30.6694 52.8427 28.3228 54.336C25.9761 55.8293 23.3521 56.5333 20.4508 56.448C19.4694 56.4053 18.6588 56.1707 18.0188 55.744C17.4214 55.3173 16.9308 54.8053 16.5468 54.208C16.2054 53.6107 15.9708 52.9707 15.8428 52.288C15.7574 51.648 15.7574 51.0293 15.8428 50.432C15.9708 49.4933 16.2268 48.4907 16.6108 47.424C17.0374 46.3573 17.5494 45.3547 18.1468 44.416C18.7868 43.4347 19.4694 42.5387 20.1948 41.728C20.9628 40.8747 21.7734 40.192 22.6268 39.68C23.0108 39.424 23.4588 39.2747 23.9708 39.232C24.5254 39.1893 24.9734 39.296 25.3148 39.552C25.6988 39.808 25.8908 40.1067 25.8908 40.448C25.8908 40.7893 25.6561 41.088 25.1868 41.344C23.9494 41.7707 22.8828 42.368 21.9868 43.136C21.1334 43.904 20.4294 44.7573 19.8748 45.696C19.3628 46.6347 19.0001 47.5733 18.7868 48.512C18.5734 49.4933 18.5094 50.3893 18.5948 51.2C18.6801 52.0107 18.9148 52.672 19.2988 53.184C19.6828 53.7387 20.1948 54.016 20.8348 54.016C22.0721 54.016 23.2241 53.6107 24.2908 52.8C25.4001 51.9893 26.3601 50.9013 27.1708 49.536C28.0241 48.1707 28.7281 46.592 29.2828 44.8C29.8374 43.008 30.2001 41.1733 30.3708 39.296C30.5414 37.4187 30.5201 35.5627 30.3068 33.728C30.0934 31.8507 29.6241 30.1653 28.8988 28.672C28.1734 27.136 27.1708 25.856 25.8908 24.832C24.6534 23.7653 23.0961 23.0827 21.2188 22.784C20.8774 23.3813 20.4508 24.3627 19.9388 25.728C19.4694 27.0507 18.9361 28.5653 18.3388 30.272C17.7841 31.9787 17.2294 33.7707 16.6748 35.648C16.1201 37.5253 15.6081 39.2747 15.1388 40.896C14.6694 42.4747 14.2641 43.8613 13.9228 45.056C13.6241 46.208 13.4534 46.9333 13.4108 47.232C13.2828 47.8293 13.1121 48.5547 12.8988 49.408C12.6854 50.304 12.3868 50.944 12.0028 51.328C11.5761 51.6693 11.1068 51.776 10.5948 51.648C10.0828 51.5627 9.61342 51.2853 9.18675 50.816C8.80275 50.3893 8.48275 49.792 8.22675 49.024C8.01342 48.2987 7.99208 47.4453 8.16275 46.464ZM24.4188 18.56C25.4428 18.56 26.5094 18.3893 27.6188 18.048C28.7708 17.664 29.8588 17.1947 30.8828 16.64C31.9068 16.0427 32.8028 15.4027 33.5708 14.72C34.3814 14.0373 34.9788 13.376 35.3628 12.736C35.7468 12.096 35.8534 11.5413 35.6828 11.072C35.5121 10.56 35.0001 10.1973 34.1468 9.984C33.7628 9.984 33.3148 10.112 32.8028 10.368C32.3334 10.5813 31.8428 10.88 31.3308 11.264C30.8188 11.648 30.2854 12.096 29.7308 12.608C29.1761 13.12 28.6428 13.6533 28.1308 14.208C26.9361 15.488 25.6988 16.9387 24.4188 18.56ZM24.5468 10.112C26.5521 7.59467 27.8748 5.73867 28.5148 4.544C29.1548 3.30667 29.3681 2.64533 29.1548 2.56C28.8988 2.432 28.3014 3.02933 27.3628 4.352C26.4668 5.632 25.5281 7.552 24.5468 10.112ZM48.6863 29.184C47.9609 30.336 47.2143 31.6373 46.4463 33.088C45.7209 34.5387 45.0596 35.968 44.4623 37.376C43.9076 38.7413 43.5023 39.9787 43.2463 41.088C43.0329 42.1973 43.0969 42.9653 43.4383 43.392C43.7369 43.776 44.4836 43.648 45.6783 43.008C46.9156 42.3253 48.3236 41.3867 49.9023 40.192C51.5236 38.9547 53.1449 37.6107 54.7663 36.16C56.4303 34.7093 57.8169 33.3653 58.9263 32.128V33.536C57.9023 34.688 56.6436 35.9253 55.1503 37.248C53.6569 38.5707 52.1423 39.808 50.6063 40.96C49.0703 42.112 47.5983 43.1147 46.1903 43.968C44.7823 44.7787 43.6516 45.2693 42.7983 45.44C41.4756 45.696 40.5583 45.4827 40.0463 44.8C39.5769 44.0747 39.3636 43.0933 39.4062 41.856C39.4489 40.6187 39.7049 39.2107 40.1743 37.632C40.6863 36.0107 41.2409 34.432 41.8383 32.896C42.4783 31.36 43.1396 29.9733 43.8223 28.736C44.5049 27.456 45.0596 26.5387 45.4863 25.984C45.8703 25.5147 46.2756 25.216 46.7023 25.088C47.1289 24.96 47.6623 25.2587 48.3023 25.984C48.7289 26.496 49.0063 26.9653 49.1343 27.392C49.2623 27.776 49.1129 28.3733 48.6863 29.184ZM50.6063 19.584C51.2036 19.7973 51.6516 20.1387 51.9503 20.608C52.2916 21.0347 52.3556 21.5467 52.1423 22.144C51.9289 22.656 51.5663 23.04 51.0543 23.296C50.5849 23.5093 50.0516 23.5093 49.4543 23.296C48.8569 23.0827 48.3876 22.7413 48.0463 22.272C47.7476 21.76 47.7049 21.248 47.9183 20.736C48.0463 20.224 48.3663 19.8613 48.8783 19.648C49.4329 19.392 50.0089 19.3707 50.6063 19.584ZM57.9623 43.136C58.7729 44.032 59.9889 44.3733 61.6103 44.16C63.2316 43.904 65.0236 43.264 66.9863 42.24C68.9916 41.1733 71.0183 39.7867 73.0663 38.08C75.1569 36.3733 77.0343 34.5173 78.6983 32.512V33.92C77.0769 36.0107 75.1783 37.952 73.0023 39.744C70.8689 41.536 68.6929 43.0293 66.4743 44.224C64.2983 45.376 62.1863 46.144 60.1383 46.528C58.1329 46.8693 56.4689 46.6347 55.1463 45.824C54.1223 45.2267 53.4609 44.2453 53.1623 42.88C52.8636 41.472 52.8636 39.9147 53.1623 38.208C53.4609 36.5013 54.0156 34.7733 54.8263 33.024C55.6369 31.232 56.6396 29.6533 57.8343 28.288C59.0289 26.88 60.3729 25.792 61.8663 25.024C63.3596 24.256 64.9596 24.0213 66.6663 24.32C68.2449 24.6613 69.0129 25.2373 68.9703 26.048C68.9703 26.816 68.5223 27.6693 67.6263 28.608C66.7729 29.504 65.6636 30.4213 64.2983 31.36C62.9756 32.256 61.8023 32.9813 60.7783 33.536C60.2236 34.5173 59.7116 35.52 59.2423 36.544C58.8156 37.568 58.4529 38.528 58.1543 39.424C57.8983 40.2773 57.7276 41.0453 57.6423 41.728C57.5996 42.368 57.7063 42.8373 57.9623 43.136ZM66.9223 27.136C66.5809 27.0507 66.1756 27.136 65.7063 27.392C65.2796 27.648 64.8316 28.032 64.3623 28.544C63.8929 29.056 63.4023 29.6747 62.8903 30.4C62.3783 31.0827 61.8876 31.8293 61.4183 32.64C62.1009 32.128 62.8476 31.5733 63.6583 30.976C64.5116 30.3787 65.2369 29.824 65.8343 29.312C66.4743 28.7573 66.9223 28.288 67.1783 27.904C67.4343 27.4773 67.3489 27.2213 66.9223 27.136ZM79.4373 38.912C80.1626 38.3147 80.8879 37.696 81.6133 37.056C82.3813 36.3733 83.1066 35.776 83.7893 35.264C84.4719 34.7093 85.1119 34.2827 85.7093 33.984C86.3493 33.6427 86.9039 33.4933 87.3733 33.536C88.2693 33.5787 88.7813 33.9627 88.9093 34.688C89.0373 35.4133 88.9519 36.3093 88.6533 37.376C88.3546 38.4427 87.9279 39.5947 87.3733 40.832C86.8613 42.0693 86.4133 43.1787 86.0293 44.16C85.6453 45.1413 85.4106 45.9307 85.3253 46.528C85.2826 47.0827 85.5813 47.232 86.2213 46.976C86.8613 46.7627 87.8213 46.08 89.1013 44.928C90.3813 43.7333 91.7253 42.3893 93.1333 40.896C94.5839 39.4027 95.9493 37.9093 97.2293 36.416C98.5519 34.88 99.5759 33.6213 100.301 32.64L100.173 33.792C98.7226 35.7547 97.2506 37.6107 95.7573 39.36C94.3066 41.0667 92.9199 42.6027 91.5972 43.968C90.3172 45.2907 89.1439 46.4 88.0773 47.296C87.0106 48.192 86.1786 48.768 85.5813 49.024C85.0693 49.28 84.4933 49.344 83.8533 49.216C83.2559 49.1307 82.8933 48.896 82.7653 48.512C82.6799 48.0427 82.7013 47.5307 82.8293 46.976C82.9999 46.3787 83.1493 45.9093 83.2773 45.568C83.4906 44.672 83.7679 43.7333 84.1093 42.752C84.4506 41.728 84.7493 40.7893 85.0053 39.936C85.2613 39.0827 85.4319 38.3573 85.5173 37.76C85.6453 37.1627 85.6239 36.8213 85.4533 36.736C85.1546 36.608 84.7279 36.7147 84.1733 37.056C83.6613 37.3973 83.0639 37.888 82.3813 38.528C81.6986 39.168 80.9733 39.8933 80.2053 40.704C79.4373 41.5147 78.6693 42.3253 77.9013 43.136C77.7733 43.648 77.6666 44.1387 77.5813 44.608C77.5386 45.0347 77.4746 45.4827 77.3893 45.952C77.3893 46.464 77.1759 46.7413 76.7493 46.784C76.3226 46.8267 75.8319 46.7413 75.2773 46.528C74.7653 46.3147 74.2533 46.016 73.7413 45.632C73.2719 45.2053 72.9946 44.8 72.9093 44.416C72.7812 44.032 72.7812 43.3707 72.9093 42.432C73.0799 41.4933 73.2933 40.448 73.5493 39.296C73.8479 38.1013 74.1893 36.864 74.5733 35.584C74.9573 34.304 75.3413 33.088 75.7253 31.936C76.1093 30.784 76.4506 29.7813 76.7493 28.928C77.0906 28.0747 77.3466 27.4773 77.5173 27.136C78.2853 25.5147 78.9679 24.6187 79.5653 24.448C80.2053 24.2773 80.9733 24.96 81.8693 26.496C82.1253 27.008 82.4026 27.4987 82.7013 27.968C83.0426 28.4373 83.1493 28.928 83.0213 29.44C82.6373 30.9333 82.1039 32.4907 81.4213 34.112C80.7386 35.6907 80.0773 37.2907 79.4373 38.912ZM126.053 33.408C125.797 33.6213 125.477 33.856 125.093 34.112C124.709 34.368 124.389 34.56 124.133 34.688C123.024 35.2853 122.021 35.7333 121.125 36.032C120.229 36.288 119.419 36.4373 118.693 36.48C118.011 36.48 117.371 36.3733 116.773 36.16C116.219 35.9467 115.728 35.6693 115.301 35.328C114.149 37.2053 112.827 39.1893 111.333 41.28C109.84 43.328 108.304 45.1413 106.725 46.72C105.147 48.256 103.611 49.3867 102.117 50.112C100.624 50.88 99.3013 50.9013 98.1493 50.176C97.4239 49.7067 96.8693 49.0027 96.4853 48.064C96.1439 47.1253 95.9306 46.0587 95.8453 44.864C95.7599 43.6267 95.8026 42.304 95.9733 40.896C96.1866 39.488 96.4639 38.1013 96.8053 36.736C97.1893 35.328 97.6373 33.984 98.1493 32.704C98.6613 31.424 99.2159 30.2933 99.8133 29.312C99.9839 29.0133 100.155 28.7573 100.325 28.544C100.496 28.3307 100.688 28.224 100.901 28.224C101.157 28.1813 101.456 28.2453 101.797 28.416C102.139 28.544 102.587 28.8 103.141 29.184C103.696 29.6107 104.123 29.9733 104.421 30.272C104.763 30.5707 104.976 30.8693 105.061 31.168C105.147 31.424 105.147 31.7013 105.061 32C104.976 32.2987 104.848 32.64 104.677 33.024C104.208 34.0907 103.632 35.4133 102.949 36.992C102.267 38.5707 101.669 40.128 101.157 41.664C100.645 43.2 100.283 44.5867 100.069 45.824C99.8986 47.0187 100.069 47.7867 100.581 48.128C100.923 48.3413 101.392 48.256 101.989 47.872C102.629 47.488 103.333 46.8907 104.101 46.08C104.912 45.2693 105.744 44.3093 106.597 43.2C107.493 42.0907 108.347 40.9387 109.157 39.744C110.011 38.5493 110.8 37.376 111.525 36.224C112.251 35.072 112.869 34.048 113.381 33.152C113.253 33.024 113.147 32.8747 113.061 32.704C112.976 32.5333 112.869 32.3413 112.741 32.128C112.187 31.232 111.76 30.336 111.461 29.44C111.205 28.544 111.141 27.7333 111.269 27.008C111.397 26.24 111.739 25.6213 112.293 25.152C112.891 24.6827 113.808 24.4053 115.045 24.32C115.728 24.2773 116.389 24.32 117.029 24.448C117.669 24.5333 118.181 24.768 118.565 25.152C118.949 25.536 119.141 26.112 119.141 26.88C119.141 27.648 118.843 28.672 118.245 29.952C117.989 30.464 117.669 31.0613 117.285 31.744C116.944 32.4267 116.539 33.1947 116.069 34.048C116.453 34.5173 116.901 34.88 117.413 35.136C117.925 35.392 118.544 35.4987 119.269 35.456C120.037 35.4133 120.912 35.2 121.893 34.816C122.875 34.3893 124.048 33.7067 125.413 32.768L126.053 33.408ZM115.045 25.856C114.661 25.8133 114.32 25.8987 114.021 26.112C113.723 26.3253 113.509 26.6667 113.381 27.136C113.253 27.5627 113.253 28.1387 113.381 28.864C113.552 29.5467 113.893 30.3787 114.405 31.36C115.045 29.9947 115.493 28.9493 115.749 28.224C116.005 27.456 116.133 26.9013 116.133 26.56C116.133 26.2187 116.027 26.0267 115.813 25.984C115.6 25.8987 115.344 25.856 115.045 25.856ZM126.837 43.136C127.648 44.032 128.864 44.3733 130.485 44.16C132.107 43.904 133.899 43.264 135.861 42.24C137.867 41.1733 139.893 39.7867 141.941 38.08C144.032 36.3733 145.909 34.5173 147.573 32.512V33.92C145.952 36.0107 144.053 37.952 141.877 39.744C139.744 41.536 137.568 43.0293 135.349 44.224C133.173 45.376 131.061 46.144 129.013 46.528C127.008 46.8693 125.344 46.6347 124.021 45.824C122.997 45.2267 122.336 44.2453 122.037 42.88C121.739 41.472 121.739 39.9147 122.037 38.208C122.336 36.5013 122.891 34.7733 123.701 33.024C124.512 31.232 125.515 29.6533 126.709 28.288C127.904 26.88 129.248 25.792 130.741 25.024C132.235 24.256 133.835 24.0213 135.541 24.32C137.12 24.6613 137.888 25.2373 137.845 26.048C137.845 26.816 137.397 27.6693 136.501 28.608C135.648 29.504 134.539 30.4213 133.173 31.36C131.851 32.256 130.677 32.9813 129.653 33.536C129.099 34.5173 128.587 35.52 128.117 36.544C127.691 37.568 127.328 38.528 127.029 39.424C126.773 40.2773 126.603 41.0453 126.517 41.728C126.475 42.368 126.581 42.8373 126.837 43.136ZM135.797 27.136C135.456 27.0507 135.051 27.136 134.581 27.392C134.155 27.648 133.707 28.032 133.237 28.544C132.768 29.056 132.277 29.6747 131.765 30.4C131.253 31.0827 130.763 31.8293 130.293 32.64C130.976 32.128 131.723 31.5733 132.533 30.976C133.387 30.3787 134.112 29.824 134.709 29.312C135.349 28.7573 135.797 28.288 136.053 27.904C136.309 27.4773 136.224 27.2213 135.797 27.136ZM148.312 38.912C149.038 38.3147 149.763 37.696 150.488 37.056C151.256 36.3733 151.982 35.776 152.664 35.264C153.347 34.7093 153.987 34.2827 154.584 33.984C155.224 33.6427 155.779 33.4933 156.248 33.536C157.144 33.5787 157.656 33.9627 157.784 34.688C157.912 35.4133 157.827 36.3093 157.528 37.376C157.23 38.4427 156.803 39.5947 156.248 40.832C155.736 42.0693 155.288 43.1787 154.904 44.16C154.52 45.1413 154.286 45.9307 154.2 46.528C154.158 47.0827 154.456 47.232 155.096 46.976C155.736 46.7627 156.696 46.08 157.976 44.928C159.256 43.7333 160.6 42.3893 162.008 40.896C163.459 39.4027 164.824 37.9093 166.104 36.416C167.427 34.88 168.451 33.6213 169.176 32.64L169.048 33.792C167.598 35.7547 166.126 37.6107 164.632 39.36C163.182 41.0667 161.795 42.6027 160.472 43.968C159.192 45.2907 158.019 46.4 156.952 47.296C155.886 48.192 155.054 48.768 154.456 49.024C153.944 49.28 153.368 49.344 152.728 49.216C152.131 49.1307 151.768 48.896 151.64 48.512C151.555 48.0427 151.576 47.5307 151.704 46.976C151.875 46.3787 152.024 45.9093 152.152 45.568C152.366 44.672 152.643 43.7333 152.984 42.752C153.326 41.728 153.624 40.7893 153.88 39.936C154.136 39.0827 154.307 38.3573 154.392 37.76C154.52 37.1627 154.499 36.8213 154.328 36.736C154.03 36.608 153.603 36.7147 153.048 37.056C152.536 37.3973 151.939 37.888 151.256 38.528C150.574 39.168 149.848 39.8933 149.08 40.704C148.312 41.5147 147.544 42.3253 146.776 43.136C146.648 43.648 146.542 44.1387 146.456 44.608C146.414 45.0347 146.35 45.4827 146.264 45.952C146.264 46.464 146.051 46.7413 145.624 46.784C145.198 46.8267 144.707 46.7413 144.152 46.528C143.64 46.3147 143.128 46.016 142.616 45.632C142.147 45.2053 141.87 44.8 141.784 44.416C141.656 44.032 141.656 43.3707 141.784 42.432C141.955 41.4933 142.168 40.448 142.424 39.296C142.723 38.1013 143.064 36.864 143.448 35.584C143.832 34.304 144.216 33.088 144.6 31.936C144.984 30.784 145.326 29.7813 145.624 28.928C145.966 28.0747 146.222 27.4773 146.392 27.136C147.16 25.5147 147.843 24.6187 148.44 24.448C149.08 24.2773 149.848 24.96 150.744 26.496C151 27.008 151.278 27.4987 151.576 27.968C151.918 28.4373 152.024 28.928 151.896 29.44C151.512 30.9333 150.979 32.4907 150.296 34.112C149.614 35.6907 148.952 37.2907 148.312 38.912ZM173.936 29.184C173.211 30.336 172.464 31.6373 171.696 33.088C170.971 34.5387 170.31 35.968 169.712 37.376C169.158 38.7413 168.752 39.9787 168.496 41.088C168.283 42.1973 168.347 42.9653 168.688 43.392C168.987 43.776 169.734 43.648 170.928 43.008C172.166 42.3253 173.574 41.3867 175.152 40.192C176.774 38.9547 178.395 37.6107 180.016 36.16C181.68 34.7093 183.067 33.3653 184.176 32.128V33.536C183.152 34.688 181.894 35.9253 180.4 37.248C178.907 38.5707 177.392 39.808 175.856 40.96C174.32 42.112 172.848 43.1147 171.44 43.968C170.032 44.7787 168.902 45.2693 168.048 45.44C166.726 45.696 165.808 45.4827 165.296 44.8C164.827 44.0747 164.614 43.0933 164.656 41.856C164.699 40.6187 164.955 39.2107 165.424 37.632C165.936 36.0107 166.491 34.432 167.088 32.896C167.728 31.36 168.39 29.9733 169.072 28.736C169.755 27.456 170.31 26.5387 170.736 25.984C171.12 25.5147 171.526 25.216 171.952 25.088C172.379 24.96 172.912 25.2587 173.552 25.984C173.979 26.496 174.256 26.9653 174.384 27.392C174.512 27.776 174.363 28.3733 173.936 29.184ZM175.856 19.584C176.454 19.7973 176.902 20.1387 177.2 20.608C177.542 21.0347 177.606 21.5467 177.392 22.144C177.179 22.656 176.816 23.04 176.304 23.296C175.835 23.5093 175.302 23.5093 174.704 23.296C174.107 23.0827 173.638 22.7413 173.296 22.272C172.998 21.76 172.955 21.248 173.168 20.736C173.296 20.224 173.616 19.8613 174.128 19.648C174.683 19.392 175.259 19.3707 175.856 19.584ZM179.948 43.904C179.095 43.3493 178.562 42.4533 178.348 41.216C178.135 39.9787 178.156 38.6133 178.412 37.12C178.711 35.6267 179.223 34.1333 179.948 32.64C180.716 31.1467 181.612 29.824 182.636 28.672C183.703 27.52 184.898 26.688 186.22 26.176C187.543 25.6213 188.908 25.5573 190.316 25.984C191.127 26.24 191.703 26.6667 192.044 27.264C192.428 27.8613 192.62 28.5227 192.62 29.248C192.663 29.9733 192.578 30.6987 192.364 31.424C192.151 32.1493 191.895 32.768 191.596 33.28C191.255 33.8773 190.935 34.1973 190.636 34.24C190.38 34.24 190.444 33.8773 190.828 33.152C191.042 32.7253 191.191 32.32 191.276 31.936C191.362 31.5093 191.362 31.1467 191.276 30.848C191.191 30.5067 190.999 30.2293 190.7 30.016C190.402 29.8027 189.975 29.696 189.42 29.696C188.951 29.696 188.418 29.952 187.82 30.464C187.223 30.9333 186.626 31.5733 186.028 32.384C185.431 33.152 184.855 34.0053 184.3 34.944C183.788 35.8827 183.362 36.8213 183.02 37.76C182.679 38.656 182.444 39.4667 182.316 40.192C182.231 40.9173 182.338 41.4293 182.636 41.728C183.234 42.496 184.236 42.688 185.644 42.304C187.052 41.8773 188.567 41.0453 190.188 39.808C190.274 39.68 190.316 39.5733 190.316 39.488C190.316 39.4027 190.359 39.296 190.444 39.168C191.084 36.6933 191.938 34.0267 193.004 31.168C194.071 28.3093 195.202 25.5147 196.396 22.784C197.591 20.0533 198.764 17.5147 199.916 15.168C201.111 12.8213 202.135 10.9227 202.988 9.472C203.5 8.576 204.055 7.72267 204.652 6.912C205.292 6.10133 205.932 5.48267 206.572 5.056C207.255 4.58666 207.938 4.37333 208.62 4.416C209.303 4.416 209.943 4.82133 210.54 5.632C211.351 6.74133 211.778 7.89333 211.82 9.088C211.906 10.24 211.714 11.4133 211.244 12.608C210.818 13.8027 210.199 14.9973 209.388 16.192C208.62 17.3867 207.767 18.5387 206.828 19.648C205.932 20.7573 205.036 21.824 204.14 22.848C203.287 23.8293 202.562 24.7467 201.964 25.6C201.111 26.752 200.236 28.1813 199.34 29.888C198.444 31.552 197.612 33.3227 196.844 35.2C196.076 37.0347 195.415 38.8693 194.86 40.704C194.348 42.496 194.028 44.1173 193.9 45.568C193.73 47.1893 193.9 48.2773 194.412 48.832C194.967 49.3867 195.756 49.5573 196.78 49.344C197.804 49.1307 198.999 48.6187 200.364 47.808C201.73 46.9547 203.159 45.9733 204.652 44.864C206.146 43.7547 207.618 42.56 209.068 41.28C210.519 39.9573 211.842 38.7413 213.036 37.632C214.274 36.48 215.298 35.4987 216.108 34.688C216.962 33.8347 217.495 33.28 217.708 33.024C217.794 32.8533 217.922 32.6827 218.092 32.512V34.432C217.367 35.328 216.386 36.3947 215.148 37.632C213.954 38.8267 212.588 40.1067 211.052 41.472C209.559 42.7947 207.98 44.1173 206.316 45.44C204.652 46.72 203.031 47.872 201.452 48.896C199.916 49.92 198.487 50.7307 197.164 51.328C195.842 51.968 194.754 52.2667 193.9 52.224C193.175 52.1813 192.492 51.904 191.852 51.392C191.255 50.9227 190.743 50.2187 190.316 49.28C189.932 48.384 189.676 47.2747 189.548 45.952C189.463 44.5867 189.591 43.008 189.932 41.216C188.012 42.496 186.156 43.456 184.364 44.096C182.572 44.736 181.1 44.672 179.948 43.904ZM202.604 21.632C203.202 20.992 203.906 20.1813 204.716 19.2C205.57 18.2187 206.338 17.1733 207.02 16.064C207.746 14.9547 208.322 13.8453 208.748 12.736C209.218 11.6267 209.388 10.624 209.26 9.728C209.132 8.96 208.791 8.91733 208.236 9.6C207.767 10.0267 207.234 10.688 206.636 11.584C206.039 12.48 205.442 13.4613 204.844 14.528C204.247 15.5947 203.692 16.6613 203.18 17.728C202.668 18.7947 202.263 19.6693 201.964 20.352C201.495 21.4613 201.282 22.144 201.324 22.4C201.41 22.656 201.836 22.4 202.604 21.632ZM241.149 32.128C241.32 32.0427 241.448 32.064 241.533 32.192C241.661 32.32 241.683 32.512 241.597 32.768C241.555 32.9813 241.384 33.2373 241.085 33.536C240.787 33.8347 240.339 34.0907 239.741 34.304C238.248 34.816 236.797 35.2 235.389 35.456C234.024 35.712 232.701 35.8827 231.421 35.968C231.208 37.6747 230.653 39.36 229.757 41.024C228.904 42.688 227.837 44.1173 226.557 45.312C225.32 46.464 223.933 47.296 222.397 47.808C220.904 48.2773 219.389 48.1707 217.853 47.488C216.915 47.0613 216.189 46.2507 215.677 45.056C215.165 43.8613 214.888 42.5387 214.845 41.088C214.803 39.5947 214.995 38.0587 215.421 36.48C215.891 34.9013 216.616 33.4933 217.597 32.256C217.811 31.9573 218.003 31.7227 218.173 31.552C218.344 31.3813 218.536 31.296 218.749 31.296C219.005 31.296 219.283 31.3813 219.581 31.552C219.923 31.68 220.371 31.9147 220.925 32.256C221.48 32.5973 221.885 32.9173 222.141 33.216C222.397 33.472 222.525 33.7493 222.525 34.048C222.525 34.304 222.44 34.5813 222.269 34.88C222.141 35.1787 221.992 35.5413 221.821 35.968C221.309 36.992 220.797 38.0373 220.285 39.104C219.816 40.128 219.432 41.1093 219.133 42.048C218.835 42.944 218.685 43.7547 218.685 44.48C218.685 45.2053 218.92 45.7387 219.389 46.08C219.944 46.5067 220.584 46.528 221.309 46.144C222.035 45.7173 222.76 45.0773 223.485 44.224C224.253 43.328 224.979 42.2827 225.661 41.088C226.387 39.8933 226.984 38.6987 227.453 37.504C227.581 37.1627 227.667 36.8427 227.709 36.544C227.795 36.2453 227.88 35.968 227.965 35.712C226.429 35.3707 225.064 34.7947 223.869 33.984C222.717 33.1733 221.821 32.0853 221.181 30.72C220.712 29.7813 220.563 28.992 220.733 28.352C220.947 27.712 221.331 27.2427 221.885 26.944C222.483 26.6453 223.208 26.5173 224.061 26.56C224.915 26.6027 225.768 26.7947 226.621 27.136C227.475 27.4347 228.264 27.904 228.989 28.544C229.757 29.184 230.355 29.952 230.781 30.848C231.464 32.3413 231.677 33.8773 231.421 35.456C232.957 35.3707 234.536 35.072 236.157 34.56C237.821 34.048 239.485 33.2373 241.149 32.128ZM222.333 29.696C222.589 31.0613 223.208 32.2133 224.189 33.152C225.213 34.048 226.472 34.688 227.965 35.072C228.008 33.8347 227.709 32.768 227.069 31.872C226.472 30.9333 225.789 30.208 225.021 29.696C224.296 29.184 223.635 28.928 223.037 28.928C222.483 28.8853 222.248 29.1413 222.333 29.696Z" fill="#3C0000"/>
</svg>
