<?xml version="1.0" encoding="UTF-8" standalone="no"?>
<!DOCTYPE svg PUBLIC "-//W3C//DTD SVG 1.1//EN"
 "http://www.w3.org/Graphics/SVG/1.1/DTD/svg11.dtd">
<!-- Generated by graphviz version 2.47.3 (20210619.1520)
 -->
<!-- Title: dependencies Pages: 1 -->
<svg width="1332pt" height="174pt"
 viewBox="0.00 0.00 1332.00 173.80" xmlns="http://www.w3.org/2000/svg" xmlns:xlink="http://www.w3.org/1999/xlink">
<g id="graph0" class="graph" transform="scale(1 1) rotate(0) translate(4 169.8)">
<title>dependencies</title>
<polygon fill="white" stroke="transparent" points="-4,4 -4,-169.8 1328,-169.8 1328,4 -4,4"/>
<text text-anchor="middle" x="662" y="-8.2" font-family="sans-serif" font-size="14.00">dependencies</text>
<g id="clust1" class="cluster">
<title>cluster_ClientProfileModule</title>
<polygon fill="none" stroke="black" stroke-dasharray="1,5" points="8,-32.8 8,-157.8 1316,-157.8 1316,-32.8 8,-32.8"/>
</g>
<g id="clust9" class="cluster">
<title>cluster_ClientProfileModule_providers</title>
<polygon fill="none" stroke="black" points="1112,-40.8 1112,-92.8 1308,-92.8 1308,-40.8 1112,-40.8"/>
</g>
<g id="clust2" class="cluster">
<title>cluster_ClientProfileModule_declarations</title>
<polygon fill="none" stroke="black" points="569,-40.8 569,-92.8 1104,-92.8 1104,-40.8 569,-40.8"/>
</g>
<g id="clust6" class="cluster">
<title>cluster_ClientProfileModule_imports</title>
<polygon fill="none" stroke="black" points="16,-40.8 16,-92.8 561,-92.8 561,-40.8 16,-40.8"/>
</g>
<!-- ClientProfileComponent -->
<g id="node1" class="node">
<title>ClientProfileComponent</title>
<polygon fill="#ffffb3" stroke="black" points="1095.66,-84.8 942.34,-84.8 942.34,-48.8 1095.66,-48.8 1095.66,-84.8"/>
<text text-anchor="middle" x="1019" y="-62.6" font-family="Times,serif" font-size="14.00">ClientProfileComponent</text>
</g>
<!-- ClientProfileModule -->
<g id="node4" class="node">
<title>ClientProfileModule</title>
<polygon fill="#8dd3c7" stroke="black" points="624.87,-149.8 621.87,-153.8 600.87,-153.8 597.87,-149.8 493.13,-149.8 493.13,-113.8 624.87,-113.8 624.87,-149.8"/>
<text text-anchor="middle" x="559" y="-127.6" font-family="Times,serif" font-size="14.00">ClientProfileModule</text>
</g>
<!-- ClientProfileComponent&#45;&gt;ClientProfileModule -->
<g id="edge1" class="edge">
<title>ClientProfileComponent&#45;&gt;ClientProfileModule</title>
<path fill="none" stroke="black" d="M1019,-84.91C1019,-104.14 1019,-131.8 1019,-131.8 1019,-131.8 634.91,-131.8 634.91,-131.8"/>
<polygon fill="black" stroke="black" points="634.91,-128.3 624.91,-131.8 634.91,-135.3 634.91,-128.3"/>
</g>
<!-- ProfileContainerComponent -->
<g id="node2" class="node">
<title>ProfileContainerComponent</title>
<polygon fill="#ffffb3" stroke="black" points="924.14,-84.8 749.86,-84.8 749.86,-48.8 924.14,-48.8 924.14,-84.8"/>
<text text-anchor="middle" x="837" y="-62.6" font-family="Times,serif" font-size="14.00">ProfileContainerComponent</text>
</g>
<!-- ProfileContainerComponent&#45;&gt;ClientProfileModule -->
<g id="edge2" class="edge">
<title>ProfileContainerComponent&#45;&gt;ClientProfileModule</title>
<path fill="none" stroke="black" d="M837,-84.83C837,-101.2 837,-122.8 837,-122.8 837,-122.8 634.88,-122.8 634.88,-122.8"/>
<polygon fill="black" stroke="black" points="634.88,-119.3 624.88,-122.8 634.88,-126.3 634.88,-119.3"/>
</g>
<!-- ProfileImageComponent -->
<g id="node3" class="node">
<title>ProfileImageComponent</title>
<polygon fill="#ffffb3" stroke="black" points="731.41,-84.8 576.59,-84.8 576.59,-48.8 731.41,-48.8 731.41,-84.8"/>
<text text-anchor="middle" x="654" y="-62.6" font-family="Times,serif" font-size="14.00">ProfileImageComponent</text>
</g>
<!-- ProfileImageComponent&#45;&gt;ClientProfileModule -->
<g id="edge3" class="edge">
<title>ProfileImageComponent&#45;&gt;ClientProfileModule</title>
<path fill="none" stroke="black" d="M600.87,-84.91C600.87,-84.91 600.87,-103.79 600.87,-103.79"/>
<polygon fill="black" stroke="black" points="597.37,-103.79 600.87,-113.79 604.37,-103.79 597.37,-103.79"/>
</g>
<!-- ClientProfileRoutingModule -->
<g id="node5" class="node">
<title>ClientProfileRoutingModule</title>
<polygon fill="#8dd3c7" stroke="black" points="553.49,-84.8 550.49,-88.8 529.49,-88.8 526.49,-84.8 376.51,-84.8 376.51,-48.8 553.49,-48.8 553.49,-84.8"/>
<text text-anchor="middle" x="465" y="-62.6" font-family="Times,serif" font-size="14.00">ClientProfileRoutingModule</text>
</g>
<!-- ClientProfileRoutingModule&#45;&gt;ClientProfileModule -->
<g id="edge4" class="edge">
<title>ClientProfileRoutingModule&#45;&gt;ClientProfileModule</title>
<path fill="none" stroke="black" d="M523.28,-84.91C523.28,-84.91 523.28,-103.79 523.28,-103.79"/>
<polygon fill="black" stroke="black" points="519.78,-103.79 523.28,-113.79 526.78,-103.79 519.78,-103.79"/>
</g>
<!-- HomeModule -->
<g id="node6" class="node">
<title>HomeModule</title>
<polygon fill="#8dd3c7" stroke="black" points="358.76,-84.8 355.76,-88.8 334.76,-88.8 331.76,-84.8 265.24,-84.8 265.24,-48.8 358.76,-48.8 358.76,-84.8"/>
<text text-anchor="middle" x="312" y="-62.6" font-family="Times,serif" font-size="14.00">HomeModule</text>
</g>
<!-- HomeModule&#45;&gt;ClientProfileModule -->
<g id="edge5" class="edge">
<title>HomeModule&#45;&gt;ClientProfileModule</title>
<path fill="none" stroke="black" d="M312,-84.83C312,-101.2 312,-122.8 312,-122.8 312,-122.8 482.81,-122.8 482.81,-122.8"/>
<polygon fill="black" stroke="black" points="482.81,-126.3 492.81,-122.8 482.81,-119.3 482.81,-126.3"/>
</g>
<!-- MaterialModule -->
<g id="node7" class="node">
<title>MaterialModule</title>
<polygon fill="#8dd3c7" stroke="black" points="247.47,-84.8 244.47,-88.8 223.47,-88.8 220.47,-84.8 140.53,-84.8 140.53,-48.8 247.47,-48.8 247.47,-84.8"/>
<text text-anchor="middle" x="194" y="-62.6" font-family="Times,serif" font-size="14.00">MaterialModule</text>
</g>
<!-- MaterialModule&#45;&gt;ClientProfileModule -->
<g id="edge6" class="edge">
<title>MaterialModule&#45;&gt;ClientProfileModule</title>
<path fill="none" stroke="black" d="M194,-84.91C194,-104.14 194,-131.8 194,-131.8 194,-131.8 482.9,-131.8 482.9,-131.8"/>
<polygon fill="black" stroke="black" points="482.9,-135.3 492.9,-131.8 482.9,-128.3 482.9,-135.3"/>
</g>
<!-- SharedModule -->
<g id="node8" class="node">
<title>SharedModule</title>
<polygon fill="#8dd3c7" stroke="black" points="122.42,-84.8 119.42,-88.8 98.42,-88.8 95.42,-84.8 23.58,-84.8 23.58,-48.8 122.42,-48.8 122.42,-84.8"/>
<text text-anchor="middle" x="73" y="-62.6" font-family="Times,serif" font-size="14.00">SharedModule</text>
</g>
<!-- SharedModule&#45;&gt;ClientProfileModule -->
<g id="edge7" class="edge">
<title>SharedModule&#45;&gt;ClientProfileModule</title>
<path fill="none" stroke="black" d="M73,-85.09C73,-107.01 73,-140.8 73,-140.8 73,-140.8 482.95,-140.8 482.95,-140.8"/>
<polygon fill="black" stroke="black" points="482.95,-144.3 492.95,-140.8 482.95,-137.3 482.95,-144.3"/>
</g>
<!-- ClientProfileService -->
<g id="node9" class="node">
<title>ClientProfileService</title>
<ellipse fill="#fdb462" stroke="black" cx="1210" cy="-66.8" rx="89.76" ry="18"/>
<text text-anchor="middle" x="1210" y="-62.6" font-family="Times,serif" font-size="14.00">ClientProfileService</text>
</g>
<!-- ClientProfileService&#45;&gt;ClientProfileModule -->
<g id="edge8" class="edge">
<title>ClientProfileService&#45;&gt;ClientProfileModule</title>
<path fill="none" stroke="black" d="M1210,-85.09C1210,-107.01 1210,-140.8 1210,-140.8 1210,-140.8 635,-140.8 635,-140.8"/>
<polygon fill="black" stroke="black" points="635,-137.3 625,-140.8 635,-144.3 635,-137.3"/>
</g>
</g>
</svg>
