<?xml version="1.0" encoding="UTF-8" standalone="no"?>
<!DOCTYPE svg PUBLIC "-//W3C//DTD SVG 1.1//EN"
 "http://www.w3.org/Graphics/SVG/1.1/DTD/svg11.dtd">
<!-- Generated by graphviz version 2.47.3 (20210619.1520)
 -->
<!-- Title: dependencies Pages: 1 -->
<svg width="487pt" height="174pt"
 viewBox="0.00 0.00 487.00 173.80" xmlns="http://www.w3.org/2000/svg" xmlns:xlink="http://www.w3.org/1999/xlink">
<g id="graph0" class="graph" transform="scale(1 1) rotate(0) translate(4 169.8)">
<title>dependencies</title>
<polygon fill="white" stroke="transparent" points="-4,4 -4,-169.8 483,-169.8 483,4 -4,4"/>
<text text-anchor="middle" x="239.5" y="-8.2" font-family="sans-serif" font-size="14.00">dependencies</text>
<g id="clust1" class="cluster">
<title>cluster_CreateReservationModule</title>
<polygon fill="none" stroke="black" stroke-dasharray="1,5" points="8,-32.8 8,-157.8 471,-157.8 471,-32.8 8,-32.8"/>
</g>
<g id="clust2" class="cluster">
<title>cluster_CreateReservationModule_declarations</title>
<polygon fill="none" stroke="black" points="263,-40.8 263,-92.8 463,-92.8 463,-40.8 263,-40.8"/>
</g>
<g id="clust4" class="cluster">
<title>cluster_CreateReservationModule_imports</title>
<polygon fill="none" stroke="black" points="16,-40.8 16,-92.8 255,-92.8 255,-40.8 16,-40.8"/>
</g>
<!-- CreateReservationComponent -->
<g id="node1" class="node">
<title>CreateReservationComponent</title>
<polygon fill="#ffffb3" stroke="black" points="455.23,-84.8 270.77,-84.8 270.77,-48.8 455.23,-48.8 455.23,-84.8"/>
<text text-anchor="middle" x="363" y="-62.6" font-family="Times,serif" font-size="14.00">CreateReservationComponent</text>
</g>
<!-- CreateReservationModule -->
<g id="node2" class="node">
<title>CreateReservationModule</title>
<polygon fill="#8dd3c7" stroke="black" points="275.45,-149.8 272.45,-153.8 251.45,-153.8 248.45,-149.8 112.55,-149.8 112.55,-113.8 275.45,-113.8 275.45,-149.8"/>
<text text-anchor="middle" x="194" y="-127.6" font-family="Times,serif" font-size="14.00">CreateReservationModule</text>
</g>
<!-- CreateReservationComponent&#45;&gt;CreateReservationModule -->
<g id="edge1" class="edge">
<title>CreateReservationComponent&#45;&gt;CreateReservationModule</title>
<path fill="none" stroke="black" d="M270.58,-66.8C263.52,-66.8 259.06,-66.8 259.06,-66.8 259.06,-66.8 259.06,-103.69 259.06,-103.69"/>
<polygon fill="black" stroke="black" points="255.56,-103.69 259.06,-113.69 262.56,-103.69 255.56,-103.69"/>
</g>
<!-- MaterialModule -->
<g id="node3" class="node">
<title>MaterialModule</title>
<polygon fill="#8dd3c7" stroke="black" points="247.47,-84.8 244.47,-88.8 223.47,-88.8 220.47,-84.8 140.53,-84.8 140.53,-48.8 247.47,-48.8 247.47,-84.8"/>
<text text-anchor="middle" x="194" y="-62.6" font-family="Times,serif" font-size="14.00">MaterialModule</text>
</g>
<!-- MaterialModule&#45;&gt;CreateReservationModule -->
<g id="edge2" class="edge">
<title>MaterialModule&#45;&gt;CreateReservationModule</title>
<path fill="none" stroke="black" d="M194,-84.91C194,-84.91 194,-103.79 194,-103.79"/>
<polygon fill="black" stroke="black" points="190.5,-103.79 194,-113.79 197.5,-103.79 190.5,-103.79"/>
</g>
<!-- SharedModule -->
<g id="node4" class="node">
<title>SharedModule</title>
<polygon fill="#8dd3c7" stroke="black" points="122.42,-84.8 119.42,-88.8 98.42,-88.8 95.42,-84.8 23.58,-84.8 23.58,-48.8 122.42,-48.8 122.42,-84.8"/>
<text text-anchor="middle" x="73" y="-62.6" font-family="Times,serif" font-size="14.00">SharedModule</text>
</g>
<!-- SharedModule&#45;&gt;CreateReservationModule -->
<g id="edge3" class="edge">
<title>SharedModule&#45;&gt;CreateReservationModule</title>
<path fill="none" stroke="black" d="M117.37,-84.91C117.37,-84.91 117.37,-103.79 117.37,-103.79"/>
<polygon fill="black" stroke="black" points="113.87,-103.79 117.37,-113.79 120.87,-103.79 113.87,-103.79"/>
</g>
</g>
</svg>
