<?xml version="1.0" encoding="UTF-8" standalone="no"?>
<!DOCTYPE svg PUBLIC "-//W3C//DTD SVG 1.1//EN"
 "http://www.w3.org/Graphics/SVG/1.1/DTD/svg11.dtd">
<!-- Generated by graphviz version 2.47.3 (20210619.1520)
 -->
<!-- Title: dependencies Pages: 1 -->
<svg width="607pt" height="247pt"
 viewBox="0.00 0.00 607.00 246.80" xmlns="http://www.w3.org/2000/svg" xmlns:xlink="http://www.w3.org/1999/xlink">
<g id="graph0" class="graph" transform="scale(1 1) rotate(0) translate(4 242.8)">
<title>dependencies</title>
<polygon fill="white" stroke="transparent" points="-4,4 -4,-242.8 603,-242.8 603,4 -4,4"/>
<text text-anchor="middle" x="299.5" y="-8.2" font-family="sans-serif" font-size="14.00">dependencies</text>
<g id="clust1" class="cluster">
<title>cluster_SharedModule</title>
<polygon fill="none" stroke="black" stroke-dasharray="1,5" points="8,-32.8 8,-230.8 591,-230.8 591,-32.8 8,-32.8"/>
</g>
<g id="clust2" class="cluster">
<title>cluster_SharedModule_declarations</title>
<polygon fill="none" stroke="black" points="473,-40.8 473,-92.8 583,-92.8 583,-40.8 473,-40.8"/>
</g>
<g id="clust5" class="cluster">
<title>cluster_SharedModule_exports</title>
<polygon fill="none" stroke="black" points="154,-170.8 154,-222.8 446,-222.8 446,-170.8 154,-170.8"/>
</g>
<g id="clust4" class="cluster">
<title>cluster_SharedModule_imports</title>
<polygon fill="none" stroke="black" points="16,-40.8 16,-92.8 465,-92.8 465,-40.8 16,-40.8"/>
</g>
<!-- SafeHtmlPipe -->
<g id="node1" class="node">
<title>SafeHtmlPipe</title>
<polygon fill="#ffffb3" stroke="black" points="575.04,-84.8 480.96,-84.8 480.96,-48.8 575.04,-48.8 575.04,-84.8"/>
<text text-anchor="middle" x="528" y="-62.6" font-family="Times,serif" font-size="14.00">SafeHtmlPipe</text>
</g>
<!-- SharedModule -->
<g id="node2" class="node">
<title>SharedModule</title>
<polygon fill="#8dd3c7" stroke="black" points="364.42,-149.8 361.42,-153.8 340.42,-153.8 337.42,-149.8 265.58,-149.8 265.58,-113.8 364.42,-113.8 364.42,-149.8"/>
<text text-anchor="middle" x="315" y="-127.6" font-family="Times,serif" font-size="14.00">SharedModule</text>
</g>
<!-- SafeHtmlPipe&#45;&gt;SharedModule -->
<g id="edge1" class="edge">
<title>SafeHtmlPipe&#45;&gt;SharedModule</title>
<path fill="none" stroke="black" d="M528,-84.91C528,-104.14 528,-131.8 528,-131.8 528,-131.8 374.4,-131.8 374.4,-131.8"/>
<polygon fill="black" stroke="black" points="374.4,-128.3 364.4,-131.8 374.4,-135.3 374.4,-128.3"/>
</g>
<!-- SafeHtmlPipe  -->
<g id="node6" class="node">
<title>SafeHtmlPipe </title>
<polygon fill="#fb8072" stroke="black" points="438.04,-214.8 339.96,-214.8 339.96,-178.8 438.04,-178.8 438.04,-214.8"/>
<text text-anchor="middle" x="389" y="-192.6" font-family="Times,serif" font-size="14.00">SafeHtmlPipe </text>
</g>
<!-- SharedModule&#45;&gt;SafeHtmlPipe  -->
<g id="edge5" class="edge">
<title>SharedModule&#45;&gt;SafeHtmlPipe </title>
<path fill="none" stroke="black" stroke-dasharray="5,2" d="M352.1,-149.91C352.1,-149.91 352.1,-168.79 352.1,-168.79"/>
<polygon fill="black" stroke="black" points="348.6,-168.79 352.1,-178.79 355.6,-168.79 348.6,-168.79"/>
</g>
<!-- SharedDirectivesModule  -->
<g id="node7" class="node">
<title>SharedDirectivesModule </title>
<polygon fill="#fb8072" stroke="black" points="321.95,-214.8 162.05,-214.8 162.05,-178.8 321.95,-178.8 321.95,-214.8"/>
<text text-anchor="middle" x="242" y="-192.6" font-family="Times,serif" font-size="14.00">SharedDirectivesModule </text>
</g>
<!-- SharedModule&#45;&gt;SharedDirectivesModule  -->
<g id="edge6" class="edge">
<title>SharedModule&#45;&gt;SharedDirectivesModule </title>
<path fill="none" stroke="black" stroke-dasharray="5,2" d="M293.76,-149.91C293.76,-149.91 293.76,-168.79 293.76,-168.79"/>
<polygon fill="black" stroke="black" points="290.26,-168.79 293.76,-178.79 297.26,-168.79 290.26,-168.79"/>
</g>
<!-- ErrorHandlerModule -->
<g id="node3" class="node">
<title>ErrorHandlerModule</title>
<polygon fill="#8dd3c7" stroke="black" points="457.17,-84.8 454.17,-88.8 433.17,-88.8 430.17,-84.8 322.83,-84.8 322.83,-48.8 457.17,-48.8 457.17,-84.8"/>
<text text-anchor="middle" x="390" y="-62.6" font-family="Times,serif" font-size="14.00">ErrorHandlerModule</text>
</g>
<!-- ErrorHandlerModule&#45;&gt;SharedModule -->
<g id="edge2" class="edge">
<title>ErrorHandlerModule&#45;&gt;SharedModule</title>
<path fill="none" stroke="black" d="M343.56,-84.91C343.56,-84.91 343.56,-103.79 343.56,-103.79"/>
<polygon fill="black" stroke="black" points="340.06,-103.79 343.56,-113.79 347.06,-103.79 340.06,-103.79"/>
</g>
<!-- MaterialModule -->
<g id="node4" class="node">
<title>MaterialModule</title>
<polygon fill="#8dd3c7" stroke="black" points="304.47,-84.8 301.47,-88.8 280.47,-88.8 277.47,-84.8 197.53,-84.8 197.53,-48.8 304.47,-48.8 304.47,-84.8"/>
<text text-anchor="middle" x="251" y="-62.6" font-family="Times,serif" font-size="14.00">MaterialModule</text>
</g>
<!-- MaterialModule&#45;&gt;SharedModule -->
<g id="edge3" class="edge">
<title>MaterialModule&#45;&gt;SharedModule</title>
<path fill="none" stroke="black" d="M285.14,-84.91C285.14,-84.91 285.14,-103.79 285.14,-103.79"/>
<polygon fill="black" stroke="black" points="281.64,-103.79 285.14,-113.79 288.64,-103.79 281.64,-103.79"/>
</g>
<!-- SharedDirectivesModule -->
<g id="node5" class="node">
<title>SharedDirectivesModule</title>
<polygon fill="#8dd3c7" stroke="black" points="179.95,-84.8 176.95,-88.8 155.95,-88.8 152.95,-84.8 24.05,-84.8 24.05,-48.8 179.95,-48.8 179.95,-84.8"/>
<text text-anchor="middle" x="102" y="-62.6" font-family="Times,serif" font-size="14.00">SharedDirectivesModule</text>
</g>
<!-- SharedDirectivesModule&#45;&gt;SharedModule -->
<g id="edge4" class="edge">
<title>SharedDirectivesModule&#45;&gt;SharedModule</title>
<path fill="none" stroke="black" d="M171.12,-84.91C171.12,-104.14 171.12,-131.8 171.12,-131.8 171.12,-131.8 255.49,-131.8 255.49,-131.8"/>
<polygon fill="black" stroke="black" points="255.49,-135.3 265.49,-131.8 255.49,-128.3 255.49,-135.3"/>
</g>
</g>
</svg>
