<svg width="172" height="172" viewBox="0 0 172 172" fill="none" xmlns="http://www.w3.org/2000/svg">
<path d="M156.968 121.912C156.964 121.912 156.962 121.914 156.958 121.914H118.531C118.527 121.914 118.525 121.912 118.521 121.912C115.174 121.912 112.45 119.304 112.45 116.1C112.45 112.896 115.174 110.288 118.521 110.288H146.85C152.429 110.288 156.968 105.942 156.968 100.601C156.968 95.2601 152.429 90.9143 146.85 90.9143H138.756C137.637 90.9143 136.733 91.7799 136.733 92.8517C136.733 93.9235 137.637 94.789 138.756 94.789H146.85C150.197 94.789 152.921 97.3971 152.921 100.601C152.921 103.805 150.197 106.413 146.85 106.413H118.521C112.942 106.413 108.403 110.759 108.403 116.1C108.403 121.435 112.932 125.775 118.501 125.785C118.509 125.785 118.513 125.789 118.521 125.789H156.968C156.97 125.789 156.972 125.787 156.974 125.787C160.318 125.791 163.039 128.397 163.039 131.599C163.039 134.803 160.315 137.411 156.968 137.411H100.309C99.1897 137.411 98.2856 138.277 98.2856 139.348C98.2856 140.42 99.1897 141.286 100.309 141.286H156.968C162.547 141.286 167.086 136.94 167.086 131.599C167.086 126.258 162.547 121.912 156.968 121.912Z" fill="#A40909"/>
<path d="M120 63C114.48 63 110 58.5195 110 53V61C110 66.5195 114.48 71 120 71C125.52 71 130 66.5195 130 61V53C130 58.5195 125.52 63 120 63Z" fill="#A40909"/>
<path d="M120 33C132.16 33 142 42.8398 142 55C142 67.1377 126 91 120 91C114 91 98 67.1377 98 55C98 42.8398 107.84 33 120 33ZM130 61V53C130 47.4805 125.52 43 120 43C114.48 43 110 47.4805 110 53V61C110 66.5195 114.48 71 120 71C125.52 71 130 66.5195 130 61Z" fill="#A40909"/>
<path d="M95.1926 131.8L89.573 128.99C89.5404 128.974 89.5201 128.941 89.5201 128.905L89.5204 126.081C91.8274 124.492 93.4602 121.981 93.8688 119.034C94.9064 117.241 95.4531 115.215 95.4531 113.156C95.4531 109.316 93.604 105.9 90.75 103.75C90.9172 103.193 91.0036 102.618 91.0036 102.032C91.0036 98.4044 87.7196 95.4531 83.6832 95.4531C79.6469 95.4531 76.3628 98.4044 76.3628 102.032C76.3628 102.619 76.4483 103.194 76.6156 103.751C74.9139 105.033 73.5721 106.766 72.7642 108.77C72.4203 105.39 72.0621 101.394 71.7185 96.7387C71.2652 90.5969 69.0563 85.4102 65.331 81.7396C61.634 78.0968 56.6965 76.1714 51.0526 76.1714C45.4088 76.1714 40.4713 78.0968 36.7747 81.7395C33.0494 85.4102 30.8405 90.5969 30.3872 96.7385C30.2667 98.3691 30.1446 99.9146 30.0219 101.386H16.9391C12.0847 101.386 8.13531 105.335 8.13531 110.19V110.272C8.13531 111.403 8.40249 112.535 8.90817 113.546L9.61849 114.967V117.233C9.61849 120.823 11.3879 124.045 14.068 125.984V127.988C14.068 128.245 13.8954 128.474 13.6484 128.545L7.91939 130.181C5.42671 130.893 3.68579 133.201 3.68579 135.794V147.269C3.68579 148.036 4.30711 148.657 5.07349 148.657C5.83987 148.657 6.46119 148.036 6.46119 147.269V135.794C6.46119 134.434 7.37448 133.223 8.68188 132.85L14.4111 131.213C14.6177 131.154 14.814 131.074 15.0009 130.979L18.5177 134.495V147.269C18.5177 148.036 19.139 148.657 19.9054 148.657C20.6718 148.657 21.2931 148.036 21.2931 147.269V134.495L24.8345 130.954C25.3078 131.186 25.7795 131.321 26.1251 131.42L27.5319 131.822C25.6255 133.177 24.4506 135.388 24.4506 137.786V147.269C24.4506 148.035 25.0719 148.657 25.8383 148.657C26.6047 148.657 27.226 148.035 27.226 147.269V137.786C27.226 135.987 28.2894 134.355 29.935 133.628L37.8689 130.124C40.3551 135.103 45.4356 138.275 51.0528 138.275C56.691 138.275 61.7544 135.11 64.2391 130.125L72.1707 133.628C73.8163 134.355 74.8796 135.987 74.8796 137.786V147.269C74.8796 148.035 75.501 148.657 76.2673 148.657C77.0337 148.657 77.6551 148.035 77.6551 147.269V137.786C77.6551 136.011 77.0099 134.338 75.9025 133.038L78.0501 131.965L79.6622 133.497C80.7898 134.568 82.2363 135.104 83.6834 135.104C85.1299 135.104 86.5772 134.568 87.7044 133.497L89.3164 131.965L93.9517 134.282C94.9958 134.804 95.6443 135.854 95.6443 137.021V147.269C95.6443 148.036 96.2656 148.657 97.032 148.657C97.7984 148.657 98.4197 148.036 98.4197 147.269V137.021C98.4195 134.796 97.183 132.795 95.1926 131.8ZM83.683 98.2283C86.189 98.2283 88.228 99.9346 88.228 102.032C88.228 102.12 88.221 102.207 88.214 102.294C86.8185 101.71 85.288 101.386 83.683 101.386C82.0783 101.386 80.5479 101.71 79.1528 102.294C79.1456 102.207 79.138 102.12 79.138 102.032C79.138 99.9346 81.177 98.2283 83.683 98.2283ZM19.9056 131.958L16.7435 128.796C16.8088 128.536 16.8438 128.265 16.8438 127.988V127.403C17.7167 127.689 18.6374 127.859 19.5901 127.888C19.6969 127.891 19.8031 127.893 19.9095 127.893C20.9619 127.893 21.9894 127.734 22.9671 127.43V127.987C22.9671 128.288 22.998 128.562 23.0529 128.811L19.9056 131.958ZM19.6734 125.113C15.6594 124.993 12.3939 121.458 12.3939 117.233V114.639C12.3939 114.424 12.3437 114.211 12.2473 114.019L11.3905 112.305C11.0767 111.677 10.9107 110.974 10.9107 110.272V110.19C10.9107 106.866 13.6151 104.161 16.9391 104.161H28.9003V109.922C28.9003 110.853 28.6803 111.785 28.2638 112.618L27.5635 114.018C27.4671 114.211 27.417 114.424 27.417 114.639V117.605C27.417 119.654 26.6069 121.569 25.1359 122.996C23.6657 124.423 21.7246 125.175 19.6734 125.113ZM31.2714 130.004L26.8876 128.751C25.7423 128.424 25.7425 128.297 25.7425 127.988L25.7428 126.076C26.2089 125.753 26.6533 125.392 27.0691 124.988C27.3489 124.717 27.6094 124.431 27.8536 124.135C28.0766 124.587 28.4183 124.982 28.86 125.268C29.9724 125.988 32.0715 127.185 35.1585 128.287L31.2714 130.004ZM51.0526 135.499C46.5376 135.499 42.4485 132.976 40.4093 129.002L42.4293 128.11C44.0057 127.414 45.0243 125.85 45.0243 124.127V120.797C46.8888 121.546 48.9234 121.96 51.0526 121.96C53.1819 121.96 55.2163 121.546 57.081 120.797V124.127C57.081 125.85 58.0996 127.414 59.676 128.11L61.6956 129.002C59.6579 132.98 55.5845 135.499 51.0526 135.499ZM63.0857 126.582L60.7973 125.571C60.2257 125.319 59.8564 124.752 59.8564 124.127V119.356C64.3159 116.463 67.2725 111.44 67.2725 105.74V103.138C67.2725 101.447 66.5534 99.8514 65.2997 98.7612C62.5115 96.3362 56.2001 92.1045 45.258 91.0102C44.4973 90.934 43.8153 91.4902 43.7391 92.253C43.6629 93.0157 44.2192 93.6957 44.9819 93.7719C55.1593 94.7896 60.939 98.6468 63.4785 100.855C64.1259 101.418 64.4971 102.25 64.4971 103.138V105.74C64.4971 113.153 58.4659 119.184 51.0528 119.184C43.6397 119.184 37.6086 113.153 37.6086 105.74V104.579C37.6086 104.046 37.9043 103.557 38.3994 103.272C40.1344 102.273 42.4224 100.423 43.4702 97.2795C43.7126 96.5525 43.3196 95.7665 42.5925 95.5241C41.8657 95.2817 41.0795 95.6747 40.8371 96.4019C40.0652 98.7177 38.3322 100.108 37.0145 100.867C35.669 101.642 34.833 103.064 34.833 104.579V105.74C34.833 111.441 37.7894 116.463 42.2491 119.356V124.127C42.2491 124.752 41.8798 125.319 41.3082 125.571L39.0196 126.582C34.5501 125.386 31.6863 123.792 30.3683 122.939C30.342 122.922 30.3272 122.902 30.3346 122.858C30.8187 119.997 32.0624 111.744 33.1552 96.9429C33.5582 91.4819 35.4834 86.908 38.7226 83.7163C41.8894 80.5962 46.153 78.9468 51.0526 78.9468C55.9523 78.9468 60.2159 80.5962 63.3826 83.7163C66.6219 86.908 68.5471 91.4817 68.9503 96.9427C70.0429 111.743 71.2866 119.997 71.7708 122.858C71.7782 122.902 71.7634 122.922 71.737 122.939C70.4172 123.793 67.5533 125.386 63.0857 126.582ZM77.8458 128.905C77.8458 128.941 77.8256 128.974 77.7931 128.99L73.4453 131.164C73.3937 131.14 73.3441 131.113 73.2919 131.09L66.9472 128.287C70.0327 127.186 72.1314 125.99 73.2453 125.268C74.2023 124.649 74.6978 123.521 74.5074 122.395C74.497 122.334 74.4857 122.266 74.4746 122.2C75.2551 123.769 76.422 125.1 77.8458 126.081V128.905ZM85.792 131.485C84.6095 132.609 82.7566 132.609 81.5737 131.485L80.2839 130.259C80.5015 129.852 80.621 129.389 80.621 128.905V127.428C81.5902 127.729 82.6182 127.892 83.6829 127.892C84.7473 127.892 85.7755 127.729 86.7445 127.428L86.7443 128.904C86.7443 129.389 86.8638 129.852 87.0816 130.26L85.792 131.485ZM83.683 125.117C79.8408 125.117 76.6317 122.24 76.2185 118.424C76.1963 118.22 76.1291 118.023 76.0214 117.847C75.1492 116.427 74.6883 114.805 74.6883 113.156C74.6883 108.196 78.7232 104.161 83.683 104.161C88.6427 104.161 92.6777 108.196 92.6777 113.156C92.6777 114.112 92.5218 115.059 92.2215 115.963C88.2811 111.96 81.3495 110.391 81.0153 110.317C80.6049 110.227 80.1753 110.328 79.8474 110.591C79.5198 110.854 79.329 111.252 79.329 111.673C79.329 111.682 79.2657 112.644 78.2523 113.658C77.7104 114.2 77.7104 115.078 78.2523 115.62C78.7943 116.162 79.673 116.162 80.2147 115.62C80.9951 114.84 81.4537 114.048 81.7227 113.379C84.0577 114.072 88.9041 115.824 91.0791 118.899C90.4619 122.475 87.3638 125.117 83.683 125.117Z" fill="#A40909"/>
</svg>
