<svg width="24" height="19" viewBox="0 0 24 19" fill="none" xmlns="http://www.w3.org/2000/svg">
<path d="M20.9103 3.30435H18.4321L17.0639 1.23913C16.5476 0.464674 15.644 0 14.7147 0H9.03533C8.10598 0 7.20245 0.464674 6.68614 1.23913L5.31794 3.30435H2.83967C1.26495 3.30435 0 4.56929 0 6.14402V16.1603C0 17.7351 1.26495 19 2.83967 19H20.9103C22.4851 19 23.75 17.7351 23.75 16.1603V6.14402C23.75 4.56929 22.4851 3.30435 20.9103 3.30435ZM11.875 16.6766C8.33832 16.6766 5.47283 13.8111 5.47283 10.2745C5.47283 6.73777 8.33832 3.8981 11.875 3.8981C15.4117 3.8981 18.2772 6.76359 18.2772 10.3003C18.2772 13.8111 15.4117 16.6766 11.875 16.6766ZM20.5489 7.30571C20.5231 7.30571 20.4973 7.30571 20.4457 7.30571H19.413C18.9484 7.27989 18.587 6.89266 18.6128 6.42799C18.6386 5.98913 18.9742 5.65353 19.413 5.62772H20.4457C20.9103 5.6019 21.2976 5.96332 21.3234 6.42799C21.3492 6.89266 21.0136 7.27989 20.5489 7.30571Z" fill="#FAFAFA"/>
<path d="M11.875 6.73779C9.91304 6.73779 8.3125 8.33834 8.3125 10.3003C8.3125 12.2622 9.91304 13.837 11.875 13.837C13.837 13.837 15.4375 12.2364 15.4375 10.2745C15.4375 8.31252 13.837 6.73779 11.875 6.73779Z" fill="#FAFAFA"/>
</svg>
