<svg width="44" height="38" viewBox="0 0 44 38" fill="none" xmlns="http://www.w3.org/2000/svg">
<path d="M43.1818 12.9191V13.8784C43.1818 16.8946 42.4354 19.864 41.0093 22.5212C39.5831 25.1784 37.5217 27.4408 35.0089 29.1063L26.8025 34.5455L23.8245 36.5191L21.5909 38L20.8464 37.512L18.6129 36.0469L17.5426 35.3456L9.51768 30.0843L8.46326 29.3932L8.24829 29.2516C5.71455 27.5902 3.63388 25.3238 2.19392 22.6567C0.753951 19.9897 -2.03312e-05 17.0058 4.11185e-10 13.9743V11.82C5.8441e-05 9.45343 0.674466 7.1359 1.94411 5.13931C2.94531 3.56428 4.32744 2.26754 5.96252 1.36919C7.59759 0.470828 9.43273 -0.00010448 11.298 1.73867e-08H11.58C13.3013 7.95416e-05 14.9989 0.401233 16.5385 1.17169C18.078 1.94215 19.4172 3.06076 20.4499 4.43892L21.5909 5.96078L22.7319 4.43892C23.8295 2.97413 25.2723 1.80394 26.9315 1.03267C28.5908 0.261394 30.4149 -0.0869792 32.2414 0.0186066C34.0678 0.124192 35.8398 0.680456 37.3993 1.6378C38.9587 2.59514 40.2573 3.92381 41.1791 5.50534C42.4902 7.75579 43.1812 10.314 43.1818 12.9191Z" fill="#E10000"/>
<path d="M23.75 30.0714V36.6948V36.7045L26.7727 34.6406V27.6364L23.75 30.0714Z" fill="#DCBC64"/>
<path d="M31.0909 10.4392V12.3014C31.091 12.546 31.0432 12.7882 30.9504 13.0141C30.8576 13.2401 30.7215 13.4454 30.5499 13.6184C30.3784 13.7913 30.1747 13.9285 29.9505 14.022C29.7263 14.1156 29.486 14.1637 29.2434 14.1636H27.3959V18.633L27.1254 19.379L27.5936 20.1227L27.9538 22.8453C28.0425 23.5117 28.0703 24.1849 28.037 24.8565C27.974 26.133 27.4881 27.3513 26.6569 28.3165L23.75 30.6591V36.7045L21.5909 38L20.9432 37.5682L20.7449 32.0409L17.4655 35.3463L9.5 30.0865L15.5718 21.6125L17.0498 19.3778L18.9851 17.4272L19.9636 17.1857L20.0059 16.3983V14.3238C20.006 12.3132 20.7985 10.385 22.209 8.9634C22.6913 8.4777 23.3452 8.20478 24.027 8.20455H25.6269C26.2866 8.20468 26.9193 8.46894 27.3857 8.93919L28.8739 10.4392H31.0909Z" fill="#FCD770"/>
<path d="M22.5913 22.4292V23.9025C22.5911 24.4886 22.3589 25.0506 21.9455 25.465C21.5322 25.8794 20.9717 26.1123 20.3872 26.1125V28.792C20.3875 29.4466 20.1941 30.0865 19.8316 30.6309L18.9178 32.0056V34.2156L19.185 34.7515L19.4073 35.1981L19.6525 35.6889V36.7045L18.5963 36.0112L10.6772 30.8095L9.63672 30.1263L13.7749 23.9025V21.5968C13.7749 21.5407 13.7758 21.4836 13.7777 21.4274C13.8242 20.3501 14.2319 19.32 14.9348 18.5038L15.979 17.2727L16.7137 20.2193H18.4729C18.8357 20.2193 19.1929 20.3091 19.5128 20.4809C19.8326 20.6526 20.1052 20.9009 20.3064 21.2036C20.5573 21.5806 20.8971 21.8897 21.2957 22.1034C21.6942 22.3172 22.1392 22.4291 22.5913 22.4292Z" fill="#FAEBD5"/>
</svg>
