<svg width="56" height="56" viewBox="0 0 56 56" fill="none" xmlns="http://www.w3.org/2000/svg">
<g opacity="0.5">
<path d="M49.1818 23.9191V24.8784C49.1818 27.8946 48.4354 30.864 47.0093 33.5212C45.5831 36.1784 43.5217 38.4408 41.0089 40.1063L32.8025 45.5455L29.8245 47.5191L27.5909 49L26.8464 48.512L24.6129 47.0469L23.5426 46.3456L15.5177 41.0843L14.4633 40.3932L14.2483 40.2516C11.7146 38.5902 9.63388 36.3238 8.19392 33.6567C6.75395 30.9897 5.99998 28.0058 6 24.9743V22.82C6.00006 20.4534 6.67447 18.1359 7.94411 16.1393C8.94531 14.5643 10.3274 13.2675 11.9625 12.3692C13.5976 11.4708 15.4327 10.9999 17.298 11H17.58C19.3013 11.0001 20.9989 11.4012 22.5385 12.1717C24.078 12.9422 25.4172 14.0608 26.4499 15.4389L27.5909 16.9608L28.7319 15.4389C29.8295 13.9741 31.2723 12.8039 32.9315 12.0327C34.5908 11.2614 36.4149 10.913 38.2414 11.0186C40.0678 11.1242 41.8398 11.6805 43.3993 12.6378C44.9587 13.5951 46.2573 14.9238 47.1791 16.5053C48.4902 18.7558 49.1812 21.314 49.1818 23.9191V23.9191Z" fill="#E10000"/>
<path d="M29.75 41.0714V47.6948V47.7045L32.7727 45.6406V38.6364L29.75 41.0714Z" fill="#DCBC64"/>
<path d="M37.0909 21.4392V23.3014C37.091 23.546 37.0432 23.7882 36.9504 24.0141C36.8576 24.2401 36.7215 24.4454 36.5499 24.6184C36.3784 24.7913 36.1747 24.9285 35.9505 25.022C35.7263 25.1156 35.486 25.1637 35.2434 25.1636H33.3959V29.633L33.1254 30.379L33.5936 31.1227L33.9538 33.8453C34.0425 34.5117 34.0703 35.1849 34.037 35.8565C33.974 37.133 33.4881 38.3513 32.6569 39.3165L29.75 41.6591V47.7045L27.5909 49L26.9432 48.5682L26.7449 43.0409L23.4655 46.3463L15.5 41.0865L21.5718 32.6125L23.0498 30.3778L24.9851 28.4272L25.9636 28.1857L26.0059 27.3983V25.3238C26.006 23.3132 26.7985 21.385 28.209 19.9634C28.6913 19.4777 29.3452 19.2048 30.027 19.2045H31.6269C32.2866 19.2047 32.9193 19.4689 33.3857 19.9392L34.8739 21.4392H37.0909Z" fill="#FCD770"/>
<path d="M28.5913 33.4292V34.9025C28.5911 35.4886 28.3589 36.0506 27.9455 36.465C27.5322 36.8794 26.9717 37.1123 26.3872 37.1125V39.792C26.3875 40.4466 26.1941 41.0865 25.8316 41.6309L24.9178 43.0056V45.2156L25.185 45.7515L25.4073 46.1981L25.6525 46.6889V47.7045L24.5963 47.0112L16.6772 41.8095L15.6367 41.1263L19.7749 34.9025V32.5968C19.7749 32.5407 19.7758 32.4836 19.7777 32.4274C19.8242 31.3501 20.2319 30.32 20.9348 29.5038L21.979 28.2727L22.7137 31.2193H24.4729C24.8357 31.2193 25.1929 31.3091 25.5128 31.4809C25.8326 31.6526 26.1052 31.9009 26.3064 32.2036C26.5573 32.5806 26.8971 32.8897 27.2957 33.1034C27.6942 33.3172 28.1392 33.4291 28.5913 33.4292V33.4292Z" fill="#FAEBD5"/>
</g>
<path fill-rule="evenodd" clip-rule="evenodd" d="M9.41638 27.999V28.0012C9.41186 31.5508 10.4284 35.0103 12.3218 37.9764L37.9736 12.3246C35.6492 10.8457 33.0167 9.89707 30.2639 9.55898C26.7716 9.13006 23.2293 9.70145 20.0491 11.2067C16.8688 12.7119 14.1812 15.0891 12.299 18.0618C10.4167 21.0345 9.41707 24.4805 9.41638 27.999ZM39.4189 10.8793C39.9784 11.2525 40.5208 11.6539 41.044 12.0826L12.0826 41.044C11.6527 40.5213 11.2505 39.9796 10.877 39.4212C8.62423 36.054 7.41118 32.0801 7.41638 27.9986C7.41714 24.1014 8.52434 20.2845 10.6092 16.9919C12.6941 13.6992 15.6709 11.0662 19.1935 9.39894C22.716 7.7317 26.6395 7.09881 30.5077 7.57389C33.7045 7.96651 36.7548 9.10254 39.4189 10.8793ZM27.9955 46.5782L27.9984 46.5782C31.5164 46.5777 34.962 45.5785 37.9346 43.6968C40.9071 41.8152 43.2844 39.1283 44.7901 35.9488C46.2957 32.7692 46.8678 29.2276 46.4399 25.7356C46.1026 22.9834 45.155 20.3513 43.6774 18.0269L18.0262 43.6758C20.9905 45.5681 24.448 46.5837 27.9955 46.5782ZM16.5813 45.1205C16.023 44.7469 15.4813 44.3447 14.9587 43.9147L43.9201 14.956C44.3487 15.4794 44.7499 16.022 45.1229 16.5816C46.8985 19.2458 48.0333 22.296 48.4251 25.4924C48.899 29.3601 48.2653 33.283 46.5976 36.8047C44.9299 40.3265 42.2967 43.3025 39.0043 45.3867C35.7118 47.4709 31.8953 48.5776 27.9986 48.5782C23.9191 48.5845 19.9468 47.3724 16.5813 45.1205ZM1.51888e-07 27.9986C1.51888e-07 12.5351 12.5354 0 28.0014 0C43.4619 0 56 12.5351 56 27.9986C56 43.4647 43.4622 55.9999 28.0016 56M1.51888e-07 27.9986C-0.000382868 31.676 0.723638 35.3171 2.13071 38.7146C3.53779 42.1121 5.60035 45.1991 8.20061 47.7994C10.8009 50.3996 13.8879 52.4622 17.2854 53.8693C20.6828 55.2763 24.3243 56.0004 28.0016 56M2 27.9986C2 13.6398 13.6398 2 28.0014 2C42.3575 2 54 13.6398 54 27.9986C54 42.3602 42.3575 54 28.0014 54C24.5867 54.0004 21.2054 53.3281 18.0506 52.0215C14.8959 50.7149 12.0293 48.7997 9.61483 46.3852C7.20031 43.9707 5.28508 41.1041 3.97851 37.9494C2.67195 34.7946 1.99964 31.4133 2 27.9986Z" fill="white"/>
<path d="M28.0014 2C13.6398 2 2 13.6398 2 27.9986C1.99964 31.4133 2.67195 34.7946 3.97851 37.9494C5.28508 41.1041 7.20031 43.9707 9.61483 46.3852C12.0293 48.7997 14.8959 50.7149 18.0506 52.0215C21.2054 53.3281 24.5867 54.0004 28.0014 54C42.3575 54 54 42.3602 54 27.9986C54 13.6398 42.3575 2 28.0014 2ZM7.41638 27.9986C7.41714 24.1014 8.52434 20.2845 10.6092 16.9919C12.6941 13.6992 15.6709 11.0662 19.1935 9.39894C22.716 7.7317 26.6395 7.09881 30.5077 7.57389C34.3758 8.04897 38.0296 9.61249 41.044 12.0826L12.0826 41.044C9.06004 37.369 7.41032 32.7569 7.41638 27.9986ZM27.9986 48.5782C23.2423 48.5856 18.6317 46.9367 14.9587 43.9147L43.9201 14.956C46.3889 17.9709 47.9511 21.6246 48.4251 25.4924C48.899 29.3601 48.2653 33.283 46.5976 36.8047C44.9299 40.3265 42.2967 43.3025 39.0043 45.3867C35.7118 47.4709 31.8953 48.5776 27.9986 48.5782Z" fill="#E10000"/>
</svg>