<svg width="140" height="140" viewBox="0 0 140 140" fill="none" xmlns="http://www.w3.org/2000/svg">
<path d="M100.684 24.1105C94.7172 24.1105 89.8623 28.9654 89.8623 34.9323C89.8623 40.8992 94.7172 45.7541 100.684 45.7541C106.651 45.7541 111.506 40.8992 111.506 34.9323C111.506 28.9654 106.651 24.1105 100.684 24.1105ZM100.684 41.6443C96.9828 41.6443 93.9718 38.6333 93.9718 34.932C93.9718 31.2311 96.9826 28.2197 100.684 28.2197C104.385 28.2197 107.396 31.2308 107.396 34.932C107.396 38.6333 104.385 41.6443 100.684 41.6443Z" fill="#A40909"/>
<path d="M61.2326 98.63C54.0571 98.63 48.219 104.468 48.219 111.644C48.219 120.611 59.3074 131.802 59.7793 132.274C60.1651 132.66 60.6874 132.876 61.2323 132.876C61.7773 132.876 62.2998 132.66 62.6854 132.274C63.1571 131.803 74.2457 120.611 74.2457 111.644C74.2462 104.468 68.4081 98.63 61.2326 98.63ZM61.2326 127.825C57.8513 124.062 52.3287 116.827 52.3287 111.643C52.3287 106.734 56.3228 102.739 61.2326 102.739C66.1424 102.739 70.1365 106.734 70.1365 111.643C70.1368 116.827 64.6136 124.063 61.2326 127.825Z" fill="#A40909"/>
<path d="M61.2327 105.479C57.8339 105.479 55.0684 108.244 55.0684 111.643C55.0684 115.042 57.8339 117.808 61.2327 117.808C64.6315 117.808 67.397 115.042 67.397 111.643C67.397 108.244 64.6315 105.479 61.2327 105.479ZM61.2327 113.698C60.0996 113.698 59.1778 112.776 59.1778 111.643C59.1778 110.51 60.0996 109.588 61.2327 109.588C62.3658 109.588 63.2876 110.51 63.2876 111.643C63.2876 112.776 62.3658 113.698 61.2327 113.698Z" fill="#A40909"/>
<path d="M88.307 0.156179C87.2573 -0.27667 86.0564 0.222897 85.6238 1.2718L75.6546 25.4304L38.9989 15.7357V2.05601C38.9989 0.921252 38.0791 0.00114081 36.944 0.00114081C35.809 0.00114081 34.8892 0.921252 34.8892 2.05601V17.3181C34.8892 18.2505 35.517 19.0659 36.4185 19.3043L76.342 29.8636C76.5176 29.9098 76.6936 29.932 76.8681 29.932C77.6829 29.932 78.4434 29.445 78.7671 28.6608L89.4224 2.8394C89.8552 1.7905 89.3556 0.589028 88.307 0.156179Z" fill="#A40909"/>
<path d="M26.5108 81.8659L2.58083 75.5364C1.48463 75.2463 0.359441 75.9007 0.0687786 76.9974C-0.221337 78.0947 0.432995 79.2191 1.52975 79.5092L23.9304 85.434V99.8627C23.9304 100.997 24.8503 101.918 25.9853 101.918C27.1203 101.918 28.0402 100.997 28.0402 99.8627V83.8522C28.0402 82.92 27.4124 82.1044 26.5108 81.8659Z" fill="#A40909"/>
<path d="M25.9858 0.00256348C24.8507 0.00256348 23.9309 0.922675 23.9309 2.05743V11.7518L2.58132 6.1051C1.48512 5.81471 0.359929 6.46932 0.0692669 7.56607C-0.220848 8.66337 0.433483 9.78774 1.53023 10.0779L25.4602 16.4071C25.6336 16.4527 25.81 16.4754 25.9858 16.4754C26.4342 16.4754 26.8761 16.3283 27.2392 16.0489C27.7448 15.6598 28.0407 15.0582 28.0407 14.4206V2.05743C28.0407 0.922675 27.1205 0.00256348 25.9858 0.00256348Z" fill="#A40909"/>
<path d="M25.9853 107.671C24.8503 107.671 23.9304 108.591 23.9304 109.726V137.945C23.9304 139.079 24.8503 139.999 25.9853 139.999C27.1203 139.999 28.0402 139.079 28.0402 137.945V109.726C28.0402 108.591 27.12 107.671 25.9853 107.671Z" fill="#A40909"/>
<path d="M26.5108 23.7685L2.58083 17.4393C1.48463 17.1489 0.359441 17.8035 0.0687786 18.9003C-0.221337 19.9973 0.432995 21.1219 1.52975 21.412L23.9307 27.3371V69.8479L2.58083 64.2012C1.48463 63.9108 0.359441 64.5654 0.0687786 65.6622C-0.221337 66.7594 0.432995 67.8838 1.52975 68.1739L25.4597 74.5032C25.6331 74.5488 25.8095 74.5715 25.9853 74.5715C26.4337 74.5715 26.8756 74.4244 27.2387 74.145C27.7443 73.7559 28.0402 73.1546 28.0402 72.5166V25.7548C28.0402 24.8226 27.4124 24.0069 26.5108 23.7685Z" fill="#A40909"/>
<path d="M138.728 18.7244C137.678 18.291 136.477 18.7908 136.045 19.84L128.022 39.2813L120.125 37.1925C120.22 36.4307 120.273 35.6755 120.273 34.9317C120.273 24.1305 111.486 15.3431 100.685 15.3431C99.0238 15.3431 97.4113 15.5525 95.8702 15.9433L101.278 2.83914C101.711 1.79024 101.211 0.588759 100.162 0.155911C99.1124 -0.276938 97.9117 0.222356 97.4791 1.27153L90.4879 18.2128C84.8598 21.6584 81.0957 27.8632 81.0957 34.9315C81.0957 36.0301 81.2061 37.1523 81.4082 38.2876L37.4698 26.6671C36.8538 26.5045 36.1962 26.6365 35.6908 27.0256C35.1853 27.4147 34.8894 28.016 34.8894 28.6539V39.0634C32.3068 41.4431 30.6851 44.8509 30.6851 48.6311C30.6851 52.3668 32.6098 56.488 34.8894 60.0597V75.4153C34.8894 76.3477 35.5172 77.1631 36.4187 77.4015L107.094 96.0949C107.27 96.1412 107.446 96.1633 107.621 96.1633C108.435 96.1633 109.196 95.6763 109.52 94.8921L126.917 52.7319C127.143 52.1842 127.122 51.5659 126.859 51.0352C126.595 50.5045 126.116 50.1132 125.543 49.9617L116.618 47.6008C117.693 45.5 118.606 43.3489 119.252 41.2128L128.71 43.7145C128.886 43.7607 129.062 43.7829 129.236 43.7829C130.051 43.7829 130.812 43.2959 131.135 42.5117L139.844 21.4076C140.276 20.3587 139.777 19.1572 138.728 18.7244ZM100.684 19.4528C109.22 19.4528 116.164 26.3967 116.164 34.932C116.164 44.934 104.789 58.1782 100.684 62.6313C96.5801 58.1784 85.2051 44.934 85.2051 34.932C85.2051 26.397 92.149 19.4528 100.684 19.4528ZM34.7948 48.6306C34.7948 43.7211 38.7889 39.7267 43.6987 39.7267C48.6085 39.7267 52.6026 43.7211 52.6026 48.6306C52.6026 53.8141 47.0797 61.0498 43.6987 64.8125C40.3174 61.0492 34.7948 53.8139 34.7948 48.6306ZM122.223 53.334L106.407 91.662L38.9991 73.8332V65.6473C40.7305 67.7339 42.0873 69.103 42.2459 69.2616C42.6315 69.6471 43.1537 69.8634 43.699 69.8634C44.2442 69.8634 44.7665 69.6469 45.152 69.2616C45.6239 68.7896 56.7123 57.5979 56.7123 48.6309C56.7123 41.4554 50.8742 35.6172 43.6987 35.6172C42.0417 35.6172 40.4579 35.9317 38.9991 36.4991V31.3221L82.6693 42.8723C86.9672 54.6984 98.6281 66.466 99.231 67.0692C99.6166 67.4547 100.139 67.671 100.684 67.671C101.229 67.671 101.752 67.4545 102.137 67.0692C102.594 66.6123 109.398 59.7458 114.539 51.3015L122.223 53.334Z" fill="#A40909"/>
<path d="M138.47 111.478L114.617 105.169C113.621 104.906 112.585 105.42 112.192 106.372L99.4869 137.161C99.0541 138.21 99.5537 139.411 100.602 139.844C100.859 139.95 101.124 140 101.385 140C102.193 140 102.958 139.521 103.286 138.729L115.305 109.602L137.419 115.451C138.516 115.742 139.64 115.087 139.931 113.99C140.221 112.893 139.566 111.768 138.47 111.478Z" fill="#A40909"/>
<path d="M138.47 100.142L121.103 95.5489L137.606 55.5587C138.038 54.5098 137.539 53.3083 136.49 52.8755C135.441 52.4426 134.24 52.9419 133.807 53.9911L116.409 96.1513C116.183 96.699 116.205 97.3172 116.468 97.848C116.731 98.3787 117.21 98.77 117.783 98.9215L137.418 104.115C137.594 104.161 137.771 104.184 137.945 104.184C138.855 104.184 139.686 103.575 139.93 102.654C140.221 101.557 139.566 100.433 138.47 100.142Z" fill="#A40909"/>
<path d="M105.243 103.416C104.98 102.885 104.501 102.494 103.928 102.342L37.4696 84.7644C36.8535 84.6017 36.1959 84.7341 35.6906 85.1229C35.185 85.512 34.8892 86.1133 34.8892 86.7512V137.945C34.8892 139.079 35.809 140 36.944 140C38.0791 140 38.9989 139.079 38.9989 137.945V89.4196L100.608 105.715L87.6316 137.161C87.1988 138.21 87.6981 139.411 88.747 139.844C89.0037 139.95 89.269 140 89.5301 140C90.3373 140 91.1032 139.521 91.4305 138.728L105.302 105.112C105.528 104.565 105.506 103.946 105.243 103.416Z" fill="#A40909"/>
<path d="M43.6985 42.4662C40.2997 42.4662 37.5342 45.2315 37.5342 48.6306C37.5342 52.0297 40.2997 54.7949 43.6985 54.7949C47.0973 54.7949 49.8629 52.0297 49.8629 48.6306C49.8629 45.2315 47.0976 42.4662 43.6985 42.4662ZM43.6985 50.6855C42.5654 50.6855 41.6436 49.7637 41.6436 48.6306C41.6436 47.4975 42.5654 46.5757 43.6985 46.5757C44.8316 46.5757 45.7534 47.4975 45.7534 48.6306C45.7534 49.7637 44.8316 50.6855 43.6985 50.6855Z" fill="#A40909"/>
</svg>
