<svg width="140" height="128" viewBox="0 0 140 128" fill="none" xmlns="http://www.w3.org/2000/svg">
<path d="M45.6785 43.2814C44.3217 43.2814 43.2175 42.1532 43.2175 40.7667C43.2175 39.6154 42.2993 38.682 41.1667 38.682C40.0342 38.682 39.116 39.6154 39.116 40.7667C39.116 44.4522 42.0598 47.4508 45.6785 47.4508C49.2971 47.4508 52.241 44.4522 52.241 40.7667V40.6853C52.241 36.9998 49.2971 34.0015 45.6785 34.0015C44.3217 34.0015 43.2175 32.8735 43.2175 31.487V31.4056C43.2175 30.0191 44.3217 28.8909 45.6785 28.8909C47.0353 28.8909 48.1394 30.0191 48.1394 31.4056C48.1394 32.5569 49.0576 33.4903 50.1902 33.4903C51.3228 33.4903 52.241 32.5569 52.241 31.4056C52.241 27.7201 49.2971 24.7215 45.6785 24.7215C42.0598 24.7215 39.116 27.7201 39.116 31.4056V31.487C39.116 35.1725 42.0598 38.1709 45.6785 38.1709C47.0353 38.1709 48.1394 39.2988 48.1394 40.6853V40.7667C48.1394 42.1532 47.0353 43.2814 45.6785 43.2814Z" fill="#A40909"/>
<path d="M21.1233 32.5633V30.3291C21.1233 27.237 18.653 24.7215 15.6168 24.7215H11.3205C9.48877 24.7215 7.99881 26.238 7.99881 28.102V36.0784C7.99881 36.0812 7.99854 36.0837 7.99854 36.0864V45.3664C7.99854 46.5177 8.91674 47.4511 10.0493 47.4511C11.1819 47.4511 12.1001 46.5177 12.1001 45.3664V38.1711H13.837L16.174 45.9738C16.5041 47.0753 17.6501 47.696 18.7331 47.3608C19.8165 47.0253 20.4276 45.8606 20.0976 44.7594L17.9621 37.6297C19.8269 36.7302 21.1233 34.8003 21.1233 32.5633ZM17.0217 32.5633C17.0217 33.3563 16.3914 34.0015 15.6168 34.0015H15.3767C15.3707 34.0015 15.3649 34.0015 15.3589 34.0015H12.1001V28.8909H15.6168C16.3914 28.8909 17.0217 29.536 17.0217 30.3291V32.5633Z" fill="#A40909"/>
<path d="M25.9385 47.4508H34.1416C35.2742 47.4508 36.1924 46.5174 36.1924 45.3661C36.1924 44.2148 35.2742 43.2814 34.1416 43.2814H27.9893V39.5381H34.1416C35.2742 39.5381 36.1924 38.6047 36.1924 37.4534C36.1924 36.3021 35.2742 35.3687 34.1416 35.3687H27.9893V28.8906H34.1416C35.2742 28.8906 36.1924 27.9572 36.1924 26.8059C36.1924 25.6546 35.2742 24.7212 34.1416 24.7212H25.9385C24.8059 24.7212 23.8877 25.6546 23.8877 26.8059V45.3658C23.8877 46.5174 24.8059 47.4508 25.9385 47.4508Z" fill="#A40909"/>
<path d="M65.8225 28.8906C66.9551 28.8906 67.8733 27.9572 67.8733 26.8059C67.8733 25.6546 66.9551 24.7212 65.8225 24.7212H57.6194C56.4868 24.7212 55.5686 25.6546 55.5686 26.8059V45.3658C55.5686 46.5171 56.4868 47.4505 57.6194 47.4505H65.8225C66.9551 47.4505 67.8733 46.5171 67.8733 45.3658C67.8733 44.2145 66.9551 43.2811 65.8225 43.2811H59.6702V39.5378H65.8225C66.9551 39.5378 67.8733 38.6045 67.8733 37.4531C67.8733 36.3018 66.9551 35.3684 65.8225 35.3684H59.6702V28.8903H65.8225V28.8906Z" fill="#A40909"/>
<path d="M83.925 32.5633V30.3291C83.925 27.237 81.4548 24.7215 78.4185 24.7215H74.1223C72.2905 24.7215 70.8006 26.238 70.8006 28.102V36.0784C70.8006 36.0812 70.8003 36.0837 70.8003 36.0864V45.3664C70.8003 46.5177 71.7185 47.4511 72.8511 47.4511C73.9837 47.4511 74.9019 46.5177 74.9019 45.3664V38.1711H76.6387L78.9758 45.9738C79.3058 47.0753 80.4518 47.696 81.5349 47.3608C82.6183 47.0253 83.2294 45.8606 82.8994 44.7594L80.7638 37.6297C82.6289 36.7302 83.925 34.8003 83.925 32.5633ZM79.8235 32.5633C79.8235 33.3563 79.1932 34.0015 78.4185 34.0015C77.7563 34.0015 80.1054 34.0015 74.9019 34.0015V28.8909H78.4185C79.1932 28.8909 79.8235 29.536 79.8235 30.3291V32.5633Z" fill="#A40909"/>
<path d="M93.3817 47.4508C94.272 47.4508 95.0609 46.8665 95.3338 46.0052L101.213 27.4452C101.56 26.3492 100.967 25.1748 99.8892 24.8218C98.8105 24.4685 97.6558 25.0712 97.3085 26.1672L93.3817 38.5644L89.4549 26.1672C89.1076 25.0714 87.9534 24.4694 86.8742 24.8218C85.796 25.1748 85.2035 26.3492 85.5507 27.4452L91.4296 46.0052C91.7025 46.8665 92.4911 47.4508 93.3817 47.4508Z" fill="#A40909"/>
<path d="M113.866 28.8906C114.999 28.8906 115.917 27.9572 115.917 26.8059C115.917 25.6546 114.999 24.7212 113.866 24.7212H105.663C104.531 24.7212 103.613 25.6546 103.613 26.8059V45.3658C103.613 46.5171 104.531 47.4505 105.663 47.4505H113.866C114.999 47.4505 115.917 46.5171 115.917 45.3658C115.917 44.2145 114.999 43.2811 113.866 43.2811H107.714V39.5378H113.866C114.999 39.5378 115.917 38.6045 115.917 37.4531C115.917 36.3018 114.999 35.3684 113.866 35.3684H107.714V28.8903H113.866V28.8906Z" fill="#A40909"/>
<path d="M132.002 36.7599V35.4121C132.002 29.5171 127.284 24.7212 121.485 24.7212C120.047 24.7212 118.877 25.9106 118.877 27.3726V44.7996C118.877 46.2614 120.047 47.4508 121.485 47.4508C127.284 47.4508 132.002 42.6549 132.002 36.7599ZM122.978 29.069C125.798 29.755 127.9 32.3387 127.9 35.4121V36.7599C127.9 39.8333 125.798 42.417 122.978 43.103V29.069Z" fill="#A40909"/>
<path d="M131.113 0H27.207C26.0745 0 25.1562 0.93339 25.1562 2.0847C25.1562 3.23601 26.0745 4.1694 27.207 4.1694H131.113C133.752 4.1694 135.898 6.35166 135.898 9.0337V49.7448C135.898 50.8961 136.817 51.8295 137.949 51.8295C139.082 51.8295 140 50.8961 140 49.7448V9.0337C140 4.05266 136.013 0 131.113 0Z" fill="#A40909"/>
<path d="M137.949 57.3887C136.817 57.3887 135.898 58.3221 135.898 59.4734V63.1144C135.898 65.7964 133.752 67.9787 131.113 67.9787H89.0039H49.3555H8.88672C6.24832 67.9787 4.10156 65.7964 4.10156 63.1144V9.0337C4.10156 6.35166 6.24832 4.1694 8.88672 4.1694H17.6367C18.7693 4.1694 19.6875 3.23601 19.6875 2.0847C19.6875 0.933389 18.7693 0 17.6367 0H8.88672C3.98672 0 0 4.05266 0 9.0337V63.1144C0 68.0955 3.98672 72.1481 8.88672 72.1481H49.3555H63.0273V114.102H50.7227C46.9533 114.102 43.8867 117.219 43.8867 121.051C43.8867 124.883 46.9533 128 50.7227 128H87.6367C91.4061 128 94.4727 124.883 94.4727 121.051C94.4727 117.219 91.4061 114.102 87.6367 114.102H75.332V72.1481H89.0039H131.113C136.013 72.1481 140 68.0955 140 63.1144V59.4734C140 58.3221 139.082 57.3887 137.949 57.3887ZM87.6367 118.271C89.1445 118.271 90.3711 119.518 90.3711 121.051C90.3711 122.584 89.1445 123.831 87.6367 123.831H50.7227C49.2149 123.831 47.9883 122.584 47.9883 121.051C47.9883 119.518 49.2149 118.271 50.7227 118.271H87.6367ZM67.1289 114.102V72.1481H71.2305V114.102H67.1289Z" fill="#A40909"/>
</svg>
