<svg width="140" height="130" viewBox="0 0 140 130" fill="none" xmlns="http://www.w3.org/2000/svg">
<path d="M134.026 66.4505H129.166C128.711 59.0613 126.911 51.9295 123.797 45.2249C123.321 44.1985 122.104 43.7541 121.077 44.2294C120.051 44.7058 119.605 45.9235 120.082 46.9499C122.943 53.1119 124.613 59.6626 125.061 66.4505H31.2531C30.1219 66.4505 29.2055 67.3669 29.2055 68.4981C29.2055 69.6292 30.1219 70.5457 31.2531 70.5457H134.026C135.062 70.5457 135.904 71.3884 135.904 72.4245V74.9239C135.904 75.9599 135.062 76.8027 134.026 76.8027H5.97397C4.9379 76.8027 4.09622 75.9599 4.09622 74.9239V72.4245C4.09622 71.3884 4.9379 70.5457 5.97397 70.5457H21.7073C22.8384 70.5457 23.756 69.6292 23.756 68.4981C23.756 67.3669 22.8384 66.4505 21.7073 66.4505H14.9387C15.8412 52.8459 21.6753 40.1898 31.5083 30.6174C40.9846 21.3931 53.2295 15.9628 66.3161 15.1019C66.3235 15.1019 66.331 15.103 66.3385 15.1019C66.8961 15.0656 67.4472 15.0378 67.9919 15.0175C68.1009 15.0143 68.2088 15.009 68.3177 15.0058C68.5121 14.9994 68.7054 14.9951 68.8966 14.9908C69.2641 14.9844 69.6315 14.978 70 14.978C70.4892 14.978 70.9784 14.9876 71.4665 15.0005C71.6107 15.0047 71.7538 15.009 71.8991 15.0133C72.2751 15.0261 72.65 15.0453 73.0249 15.0656C73.2236 15.0763 73.4222 15.087 73.622 15.0998C90.4352 16.2042 105.904 24.9478 115.529 38.9679C116.169 39.8993 117.445 40.1375 118.377 39.4966C119.31 38.8568 119.547 37.5815 118.906 36.649C109.434 22.8522 94.6906 13.8159 78.3954 11.4853C79.4165 9.90021 79.9901 8.03421 79.9901 6.07956C79.9901 4.96658 79.4934 2.91473 76.1673 1.69067C74.5064 1.07971 72.3157 0.742188 70 0.742188C67.6833 0.742188 65.4926 1.07971 63.8316 1.69067C60.5055 2.91473 60.0099 4.96658 60.0099 6.07956C60.0099 8.02887 60.5814 9.89166 61.5961 11.4735C49.2241 13.2242 37.7493 18.8254 28.6511 27.6822C18.0223 38.029 11.7429 51.7308 10.8339 66.4494H5.97397C2.6799 66.4505 0 69.1304 0 72.4245V74.9239C0 78.219 2.6799 80.8989 5.97397 80.8989H28.0359C26.9347 81.653 25.8794 82.4989 24.8914 83.4378L24.8508 83.4763C24.7878 83.535 24.7279 83.598 24.6735 83.6653L14.9504 95.4723C13.7306 94.6979 12.2865 94.4159 10.8617 94.6893C9.37592 94.9734 8.09097 95.8194 7.24289 97.0712L3.41904 102.71C1.67053 105.289 2.34558 108.813 4.92294 110.564L31.0886 128.339C32.037 128.983 33.1329 129.319 34.2555 129.319C34.6123 129.319 34.9722 129.285 35.3311 129.216C36.8158 128.932 38.1007 128.086 38.9488 126.834L42.7727 121.196C44.5212 118.616 43.8472 115.092 41.2698 113.342L41.1203 113.24C42.9414 111.174 45.3693 109.692 48.0107 109.081C53.5767 107.792 60.1263 108.622 64.5686 109.358C70.0641 110.268 75.8362 109.957 81.2611 108.458L88.802 106.375C93.8254 104.986 98.4482 102.648 102.543 99.4243C102.574 99.3997 102.604 99.3752 102.634 99.3484L115.581 87.8822C117.787 86.1935 118.268 83.269 117.507 80.8989H134.026C137.32 80.8989 140 78.219 140 74.9249V72.4245C140 69.1304 137.32 66.4505 134.026 66.4505ZM70 4.83841C73.4489 4.83841 75.5157 5.69183 75.8939 6.16608C75.8661 8.10898 74.8834 9.90128 73.2845 10.9758C72.8818 10.9544 72.4844 10.9373 72.0882 10.9224C71.9547 10.9181 71.8211 10.9117 71.6876 10.9085C71.1162 10.8914 70.5522 10.8829 70 10.8829C69.608 10.8829 69.2085 10.8882 68.8058 10.8968C68.6115 10.9 68.416 10.9053 68.2205 10.9117C67.9877 10.9192 67.7527 10.9267 67.5177 10.9363C67.2496 10.948 66.9815 10.9598 66.7145 10.9747C65.1155 9.90021 64.1339 8.10791 64.1061 6.16608C64.4843 5.69183 66.5511 4.83841 70 4.83841ZM84.6866 81.8869C84.5338 81.5408 84.3512 81.2119 84.1451 80.8989H103.789L95.2951 86.5204L83.188 90.0227L82.7768 90.0323C85.1074 88.0894 85.9576 84.7719 84.6866 81.8869ZM62.4783 80.8989L59.5229 81.5152L57.2382 80.8989H62.4783ZM39.3825 118.897L35.5597 124.536C35.3258 124.882 34.9712 125.115 34.561 125.194C34.1519 125.272 33.7354 125.186 33.3904 124.951L7.22473 107.176C6.51337 106.693 6.32751 105.721 6.8103 105.009L10.6342 99.3698C10.8681 99.0248 11.2216 98.7909 11.6318 98.7129C11.7311 98.6937 11.8304 98.6841 11.9287 98.6841C12.2385 98.6841 12.5407 98.777 12.8024 98.9554L14.2155 99.9146C14.2155 99.9156 14.2166 99.9156 14.2166 99.9156L38.968 116.73C39.6794 117.213 39.8653 118.186 39.3825 118.897ZM113.067 84.648C113.018 84.6832 112.971 84.7217 112.925 84.7623L99.9649 96.2424C96.3109 99.1081 92.188 101.189 87.7115 102.426L80.1706 104.51C75.3149 105.852 70.1517 106.131 65.2394 105.317C60.4521 104.525 53.3641 103.637 47.0868 105.091C43.4509 105.932 40.1312 108.022 37.7162 110.927L18.3588 97.7773L27.7539 86.3676C31.3075 83.0127 35.8139 81.0207 40.1291 80.8989H40.2124C41.5508 80.8765 42.9671 81.2706 44.4656 81.6904C44.7668 81.7737 45.067 81.8581 45.3682 81.9392L58.929 85.5975C59.2398 85.6808 59.5656 85.6905 59.8807 85.6242L77.6413 81.9211C78.4467 81.7545 79.2926 81.9179 79.9623 82.3718C80.3949 82.6656 80.7324 83.0693 80.9386 83.5382C81.5474 84.9193 80.9738 86.5407 79.613 87.2414L73.5536 90.45C72.7151 90.8943 72.2922 91.8556 72.5304 92.7742C72.7696 93.6938 73.606 94.3198 74.5566 94.3069L83.5448 94.1125C83.7231 94.1083 83.8994 94.0816 84.0692 94.0324L96.7339 90.3688C96.9336 90.3111 97.1227 90.2235 97.2957 90.1093L110.072 81.6519C111.145 80.9897 112.572 80.4449 113.331 81.5654C113.923 82.437 113.937 84.006 113.067 84.648Z" fill="#A40909"/>
</svg>
