<?xml version="1.0" encoding="UTF-8" standalone="no"?>
<!DOCTYPE svg PUBLIC "-//W3C//DTD SVG 1.1//EN"
 "http://www.w3.org/Graphics/SVG/1.1/DTD/svg11.dtd">
<!-- Generated by graphviz version 2.47.3 (20210619.1520)
 -->
<!-- Title: dependencies Pages: 1 -->
<svg width="1165pt" height="174pt"
 viewBox="0.00 0.00 1165.00 173.80" xmlns="http://www.w3.org/2000/svg" xmlns:xlink="http://www.w3.org/1999/xlink">
<g id="graph0" class="graph" transform="scale(1 1) rotate(0) translate(4 169.8)">
<title>dependencies</title>
<polygon fill="white" stroke="transparent" points="-4,4 -4,-169.8 1161,-169.8 1161,4 -4,4"/>
<text text-anchor="middle" x="578.5" y="-8.2" font-family="sans-serif" font-size="14.00">dependencies</text>
<g id="clust1" class="cluster">
<title>cluster_BusinessDetailsModule</title>
<polygon fill="none" stroke="black" stroke-dasharray="1,5" points="8,-32.8 8,-157.8 1149,-157.8 1149,-32.8 8,-32.8"/>
</g>
<g id="clust2" class="cluster">
<title>cluster_BusinessDetailsModule_declarations</title>
<polygon fill="none" stroke="black" points="585,-40.8 585,-92.8 1141,-92.8 1141,-40.8 585,-40.8"/>
</g>
<g id="clust6" class="cluster">
<title>cluster_BusinessDetailsModule_imports</title>
<polygon fill="none" stroke="black" points="16,-40.8 16,-92.8 577,-92.8 577,-40.8 16,-40.8"/>
</g>
<!-- BusinessDetailsBodyComponent -->
<g id="node1" class="node">
<title>BusinessDetailsBodyComponent</title>
<polygon fill="#ffffb3" stroke="black" points="1132.6,-84.8 931.4,-84.8 931.4,-48.8 1132.6,-48.8 1132.6,-84.8"/>
<text text-anchor="middle" x="1032" y="-62.6" font-family="Times,serif" font-size="14.00">BusinessDetailsBodyComponent</text>
</g>
<!-- BusinessDetailsModule -->
<g id="node4" class="node">
<title>BusinessDetailsModule</title>
<polygon fill="#8dd3c7" stroke="black" points="596.48,-149.8 593.48,-153.8 572.48,-153.8 569.48,-149.8 447.52,-149.8 447.52,-113.8 596.48,-113.8 596.48,-149.8"/>
<text text-anchor="middle" x="522" y="-127.6" font-family="Times,serif" font-size="14.00">BusinessDetailsModule</text>
</g>
<!-- BusinessDetailsBodyComponent&#45;&gt;BusinessDetailsModule -->
<g id="edge1" class="edge">
<title>BusinessDetailsBodyComponent&#45;&gt;BusinessDetailsModule</title>
<path fill="none" stroke="black" d="M1032,-85.08C1032,-106.12 1032,-137.8 1032,-137.8 1032,-137.8 606.7,-137.8 606.7,-137.8"/>
<polygon fill="black" stroke="black" points="606.7,-134.3 596.7,-137.8 606.7,-141.3 606.7,-134.3"/>
</g>
<!-- BusinessDetailsComponent -->
<g id="node2" class="node">
<title>BusinessDetailsComponent</title>
<polygon fill="#ffffb3" stroke="black" points="913.26,-84.8 742.74,-84.8 742.74,-48.8 913.26,-48.8 913.26,-84.8"/>
<text text-anchor="middle" x="828" y="-62.6" font-family="Times,serif" font-size="14.00">BusinessDetailsComponent</text>
</g>
<!-- BusinessDetailsComponent&#45;&gt;BusinessDetailsModule -->
<g id="edge2" class="edge">
<title>BusinessDetailsComponent&#45;&gt;BusinessDetailsModule</title>
<path fill="none" stroke="black" d="M828,-84.82C828,-102.17 828,-125.8 828,-125.8 828,-125.8 606.86,-125.8 606.86,-125.8"/>
<polygon fill="black" stroke="black" points="606.86,-122.3 596.86,-125.8 606.86,-129.3 606.86,-122.3"/>
</g>
<!-- CarouselComponent -->
<g id="node3" class="node">
<title>CarouselComponent</title>
<polygon fill="#ffffb3" stroke="black" points="724.59,-84.8 593.41,-84.8 593.41,-48.8 724.59,-48.8 724.59,-84.8"/>
<text text-anchor="middle" x="659" y="-62.6" font-family="Times,serif" font-size="14.00">CarouselComponent</text>
</g>
<!-- CarouselComponent&#45;&gt;BusinessDetailsModule -->
<g id="edge3" class="edge">
<title>CarouselComponent&#45;&gt;BusinessDetailsModule</title>
<path fill="none" stroke="black" d="M593.33,-66.8C586.03,-66.8 581.17,-66.8 581.17,-66.8 581.17,-66.8 581.17,-103.69 581.17,-103.69"/>
<polygon fill="black" stroke="black" points="577.67,-103.69 581.17,-113.69 584.67,-103.69 577.67,-103.69"/>
</g>
<!-- HomeModule -->
<g id="node5" class="node">
<title>HomeModule</title>
<polygon fill="#8dd3c7" stroke="black" points="568.76,-84.8 565.76,-88.8 544.76,-88.8 541.76,-84.8 475.24,-84.8 475.24,-48.8 568.76,-48.8 568.76,-84.8"/>
<text text-anchor="middle" x="522" y="-62.6" font-family="Times,serif" font-size="14.00">HomeModule</text>
</g>
<!-- HomeModule&#45;&gt;BusinessDetailsModule -->
<g id="edge4" class="edge">
<title>HomeModule&#45;&gt;BusinessDetailsModule</title>
<path fill="none" stroke="black" d="M522,-84.91C522,-84.91 522,-103.79 522,-103.79"/>
<polygon fill="black" stroke="black" points="518.5,-103.79 522,-113.79 525.5,-103.79 518.5,-103.79"/>
</g>
<!-- MaterialModule -->
<g id="node6" class="node">
<title>MaterialModule</title>
<polygon fill="#8dd3c7" stroke="black" points="457.47,-84.8 454.47,-88.8 433.47,-88.8 430.47,-84.8 350.53,-84.8 350.53,-48.8 457.47,-48.8 457.47,-84.8"/>
<text text-anchor="middle" x="404" y="-62.6" font-family="Times,serif" font-size="14.00">MaterialModule</text>
</g>
<!-- MaterialModule&#45;&gt;BusinessDetailsModule -->
<g id="edge5" class="edge">
<title>MaterialModule&#45;&gt;BusinessDetailsModule</title>
<path fill="none" stroke="black" d="M452.5,-84.91C452.5,-84.91 452.5,-103.79 452.5,-103.79"/>
<polygon fill="black" stroke="black" points="449,-103.79 452.5,-113.79 456,-103.79 449,-103.79"/>
</g>
<!-- SharedModule -->
<g id="node7" class="node">
<title>SharedModule</title>
<polygon fill="#8dd3c7" stroke="black" points="332.42,-84.8 329.42,-88.8 308.42,-88.8 305.42,-84.8 233.58,-84.8 233.58,-48.8 332.42,-48.8 332.42,-84.8"/>
<text text-anchor="middle" x="283" y="-62.6" font-family="Times,serif" font-size="14.00">SharedModule</text>
</g>
<!-- SharedModule&#45;&gt;BusinessDetailsModule -->
<g id="edge6" class="edge">
<title>SharedModule&#45;&gt;BusinessDetailsModule</title>
<path fill="none" stroke="black" d="M283,-84.82C283,-102.17 283,-125.8 283,-125.8 283,-125.8 437.36,-125.8 437.36,-125.8"/>
<polygon fill="black" stroke="black" points="437.36,-129.3 447.36,-125.8 437.36,-122.3 437.36,-129.3"/>
</g>
<!-- businessDetailsRoutingModule -->
<g id="node8" class="node">
<title>businessDetailsRoutingModule</title>
<polygon fill="#8dd3c7" stroke="black" points="215.76,-84.8 212.76,-88.8 191.76,-88.8 188.76,-84.8 24.24,-84.8 24.24,-48.8 215.76,-48.8 215.76,-84.8"/>
<text text-anchor="middle" x="120" y="-62.6" font-family="Times,serif" font-size="14.00">businessDetailsRoutingModule</text>
</g>
<!-- businessDetailsRoutingModule&#45;&gt;BusinessDetailsModule -->
<g id="edge7" class="edge">
<title>businessDetailsRoutingModule&#45;&gt;BusinessDetailsModule</title>
<path fill="none" stroke="black" d="M120,-85.08C120,-106.12 120,-137.8 120,-137.8 120,-137.8 437.33,-137.8 437.33,-137.8"/>
<polygon fill="black" stroke="black" points="437.33,-141.3 447.33,-137.8 437.33,-134.3 437.33,-141.3"/>
</g>
</g>
</svg>
