<?xml version="1.0" encoding="UTF-8" standalone="no"?>
<!DOCTYPE svg PUBLIC "-//W3C//DTD SVG 1.1//EN"
 "http://www.w3.org/Graphics/SVG/1.1/DTD/svg11.dtd">
<!-- Generated by graphviz version 2.47.3 (20210619.1520)
 -->
<!-- Title: dependencies Pages: 1 -->
<svg width="831pt" height="174pt"
 viewBox="0.00 0.00 831.00 173.80" xmlns="http://www.w3.org/2000/svg" xmlns:xlink="http://www.w3.org/1999/xlink">
<g id="graph0" class="graph" transform="scale(1 1) rotate(0) translate(4 169.8)">
<title>dependencies</title>
<polygon fill="white" stroke="transparent" points="-4,4 -4,-169.8 827,-169.8 827,4 -4,4"/>
<text text-anchor="middle" x="411.5" y="-8.2" font-family="sans-serif" font-size="14.00">dependencies</text>
<g id="clust1" class="cluster">
<title>cluster_FrequentQuestionsModule</title>
<polygon fill="none" stroke="black" stroke-dasharray="1,5" points="8,-32.8 8,-157.8 815,-157.8 815,-32.8 8,-32.8"/>
</g>
<g id="clust2" class="cluster">
<title>cluster_FrequentQuestionsModule_declarations</title>
<polygon fill="none" stroke="black" points="603,-40.8 603,-92.8 807,-92.8 807,-40.8 603,-40.8"/>
</g>
<g id="clust4" class="cluster">
<title>cluster_FrequentQuestionsModule_imports</title>
<polygon fill="none" stroke="black" points="16,-40.8 16,-92.8 595,-92.8 595,-40.8 16,-40.8"/>
</g>
<!-- FrequentQuestionsComponent -->
<g id="node1" class="node">
<title>FrequentQuestionsComponent</title>
<polygon fill="#ffffb3" stroke="black" points="798.59,-84.8 611.41,-84.8 611.41,-48.8 798.59,-48.8 798.59,-84.8"/>
<text text-anchor="middle" x="705" y="-62.6" font-family="Times,serif" font-size="14.00">FrequentQuestionsComponent</text>
</g>
<!-- FrequentQuestionsModule -->
<g id="node2" class="node">
<title>FrequentQuestionsModule</title>
<polygon fill="#8dd3c7" stroke="black" points="394.8,-149.8 391.8,-153.8 370.8,-153.8 367.8,-149.8 229.2,-149.8 229.2,-113.8 394.8,-113.8 394.8,-149.8"/>
<text text-anchor="middle" x="312" y="-127.6" font-family="Times,serif" font-size="14.00">FrequentQuestionsModule</text>
</g>
<!-- FrequentQuestionsComponent&#45;&gt;FrequentQuestionsModule -->
<g id="edge1" class="edge">
<title>FrequentQuestionsComponent&#45;&gt;FrequentQuestionsModule</title>
<path fill="none" stroke="black" d="M705,-84.91C705,-104.14 705,-131.8 705,-131.8 705,-131.8 404.86,-131.8 404.86,-131.8"/>
<polygon fill="black" stroke="black" points="404.87,-128.3 394.86,-131.8 404.86,-135.3 404.87,-128.3"/>
</g>
<!-- FrequentQuestionsRoutingModule -->
<g id="node3" class="node">
<title>FrequentQuestionsRoutingModule</title>
<polygon fill="#8dd3c7" stroke="black" points="587.42,-84.8 584.42,-88.8 563.42,-88.8 560.42,-84.8 376.58,-84.8 376.58,-48.8 587.42,-48.8 587.42,-84.8"/>
<text text-anchor="middle" x="482" y="-62.6" font-family="Times,serif" font-size="14.00">FrequentQuestionsRoutingModule</text>
</g>
<!-- FrequentQuestionsRoutingModule&#45;&gt;FrequentQuestionsModule -->
<g id="edge2" class="edge">
<title>FrequentQuestionsRoutingModule&#45;&gt;FrequentQuestionsModule</title>
<path fill="none" stroke="black" d="M385.72,-84.91C385.72,-84.91 385.72,-103.79 385.72,-103.79"/>
<polygon fill="black" stroke="black" points="382.22,-103.79 385.72,-113.79 389.22,-103.79 382.22,-103.79"/>
</g>
<!-- HomeModule -->
<g id="node4" class="node">
<title>HomeModule</title>
<polygon fill="#8dd3c7" stroke="black" points="358.76,-84.8 355.76,-88.8 334.76,-88.8 331.76,-84.8 265.24,-84.8 265.24,-48.8 358.76,-48.8 358.76,-84.8"/>
<text text-anchor="middle" x="312" y="-62.6" font-family="Times,serif" font-size="14.00">HomeModule</text>
</g>
<!-- HomeModule&#45;&gt;FrequentQuestionsModule -->
<g id="edge3" class="edge">
<title>HomeModule&#45;&gt;FrequentQuestionsModule</title>
<path fill="none" stroke="black" d="M312,-84.91C312,-84.91 312,-103.79 312,-103.79"/>
<polygon fill="black" stroke="black" points="308.5,-103.79 312,-113.79 315.5,-103.79 308.5,-103.79"/>
</g>
<!-- MaterialModule -->
<g id="node5" class="node">
<title>MaterialModule</title>
<polygon fill="#8dd3c7" stroke="black" points="247.47,-84.8 244.47,-88.8 223.47,-88.8 220.47,-84.8 140.53,-84.8 140.53,-48.8 247.47,-48.8 247.47,-84.8"/>
<text text-anchor="middle" x="194" y="-62.6" font-family="Times,serif" font-size="14.00">MaterialModule</text>
</g>
<!-- MaterialModule&#45;&gt;FrequentQuestionsModule -->
<g id="edge4" class="edge">
<title>MaterialModule&#45;&gt;FrequentQuestionsModule</title>
<path fill="none" stroke="black" d="M238.42,-84.91C238.42,-84.91 238.42,-103.79 238.42,-103.79"/>
<polygon fill="black" stroke="black" points="234.92,-103.79 238.42,-113.79 241.92,-103.79 234.92,-103.79"/>
</g>
<!-- SharedModule -->
<g id="node6" class="node">
<title>SharedModule</title>
<polygon fill="#8dd3c7" stroke="black" points="122.42,-84.8 119.42,-88.8 98.42,-88.8 95.42,-84.8 23.58,-84.8 23.58,-48.8 122.42,-48.8 122.42,-84.8"/>
<text text-anchor="middle" x="73" y="-62.6" font-family="Times,serif" font-size="14.00">SharedModule</text>
</g>
<!-- SharedModule&#45;&gt;FrequentQuestionsModule -->
<g id="edge5" class="edge">
<title>SharedModule&#45;&gt;FrequentQuestionsModule</title>
<path fill="none" stroke="black" d="M73,-84.91C73,-104.14 73,-131.8 73,-131.8 73,-131.8 219.08,-131.8 219.08,-131.8"/>
<polygon fill="black" stroke="black" points="219.08,-135.3 229.08,-131.8 219.08,-128.3 219.08,-135.3"/>
</g>
</g>
</svg>
