<?xml version="1.0" encoding="UTF-8" standalone="no"?>
<!DOCTYPE svg PUBLIC "-//W3C//DTD SVG 1.1//EN"
 "http://www.w3.org/Graphics/SVG/1.1/DTD/svg11.dtd">
<!-- Generated by graphviz version 2.47.3 (20210619.1520)
 -->
<!-- Title: dependencies Pages: 1 -->
<svg width="487pt" height="174pt"
 viewBox="0.00 0.00 487.00 173.80" xmlns="http://www.w3.org/2000/svg" xmlns:xlink="http://www.w3.org/1999/xlink">
<g id="graph0" class="graph" transform="scale(1 1) rotate(0) translate(4 169.8)">
<title>dependencies</title>
<polygon fill="white" stroke="transparent" points="-4,4 -4,-169.8 483,-169.8 483,4 -4,4"/>
<text text-anchor="middle" x="239.5" y="-8.2" font-family="sans-serif" font-size="14.00">dependencies</text>
<g id="clust1" class="cluster">
<title>cluster_ClientRegistrationModule</title>
<polygon fill="none" stroke="black" stroke-dasharray="1,5" points="8,-32.8 8,-157.8 471,-157.8 471,-32.8 8,-32.8"/>
</g>
<g id="clust4" class="cluster">
<title>cluster_ClientRegistrationModule_imports</title>
<polygon fill="none" stroke="black" points="224,-40.8 224,-92.8 463,-92.8 463,-40.8 224,-40.8"/>
</g>
<g id="clust2" class="cluster">
<title>cluster_ClientRegistrationModule_declarations</title>
<polygon fill="none" stroke="black" points="16,-40.8 16,-92.8 216,-92.8 216,-40.8 16,-40.8"/>
</g>
<!-- ClientRegistrationComponent -->
<g id="node1" class="node">
<title>ClientRegistrationComponent</title>
<polygon fill="#ffffb3" stroke="black" points="207.99,-84.8 24.01,-84.8 24.01,-48.8 207.99,-48.8 207.99,-84.8"/>
<text text-anchor="middle" x="116" y="-62.6" font-family="Times,serif" font-size="14.00">ClientRegistrationComponent</text>
</g>
<!-- ClientRegistrationModule -->
<g id="node2" class="node">
<title>ClientRegistrationModule</title>
<polygon fill="#8dd3c7" stroke="black" points="362.21,-149.8 359.21,-153.8 338.21,-153.8 335.21,-149.8 199.79,-149.8 199.79,-113.8 362.21,-113.8 362.21,-149.8"/>
<text text-anchor="middle" x="281" y="-127.6" font-family="Times,serif" font-size="14.00">ClientRegistrationModule</text>
</g>
<!-- ClientRegistrationComponent&#45;&gt;ClientRegistrationModule -->
<g id="edge1" class="edge">
<title>ClientRegistrationComponent&#45;&gt;ClientRegistrationModule</title>
<path fill="none" stroke="black" d="M203.95,-84.91C203.95,-84.91 203.95,-103.79 203.95,-103.79"/>
<polygon fill="black" stroke="black" points="200.45,-103.79 203.95,-113.79 207.45,-103.79 200.45,-103.79"/>
</g>
<!-- MaterialModule -->
<g id="node3" class="node">
<title>MaterialModule</title>
<polygon fill="#8dd3c7" stroke="black" points="455.47,-84.8 452.47,-88.8 431.47,-88.8 428.47,-84.8 348.53,-84.8 348.53,-48.8 455.47,-48.8 455.47,-84.8"/>
<text text-anchor="middle" x="402" y="-62.6" font-family="Times,serif" font-size="14.00">MaterialModule</text>
</g>
<!-- MaterialModule&#45;&gt;ClientRegistrationModule -->
<g id="edge2" class="edge">
<title>MaterialModule&#45;&gt;ClientRegistrationModule</title>
<path fill="none" stroke="black" d="M355.31,-84.91C355.31,-84.91 355.31,-103.79 355.31,-103.79"/>
<polygon fill="black" stroke="black" points="351.81,-103.79 355.31,-113.79 358.81,-103.79 351.81,-103.79"/>
</g>
<!-- SharedModule -->
<g id="node4" class="node">
<title>SharedModule</title>
<polygon fill="#8dd3c7" stroke="black" points="330.42,-84.8 327.42,-88.8 306.42,-88.8 303.42,-84.8 231.58,-84.8 231.58,-48.8 330.42,-48.8 330.42,-84.8"/>
<text text-anchor="middle" x="281" y="-62.6" font-family="Times,serif" font-size="14.00">SharedModule</text>
</g>
<!-- SharedModule&#45;&gt;ClientRegistrationModule -->
<g id="edge3" class="edge">
<title>SharedModule&#45;&gt;ClientRegistrationModule</title>
<path fill="none" stroke="black" d="M281,-84.91C281,-84.91 281,-103.79 281,-103.79"/>
<polygon fill="black" stroke="black" points="277.5,-103.79 281,-113.79 284.5,-103.79 277.5,-103.79"/>
</g>
</g>
</svg>
