<?xml version="1.0" encoding="UTF-8" standalone="no"?>
<!DOCTYPE svg PUBLIC "-//W3C//DTD SVG 1.1//EN"
 "http://www.w3.org/Graphics/SVG/1.1/DTD/svg11.dtd">
<!-- Generated by graphviz version 2.47.3 (20210619.1520)
 -->
<!-- Title: dependencies Pages: 1 -->
<svg width="853pt" height="174pt"
 viewBox="0.00 0.00 853.00 173.80" xmlns="http://www.w3.org/2000/svg" xmlns:xlink="http://www.w3.org/1999/xlink">
<g id="graph0" class="graph" transform="scale(1 1) rotate(0) translate(4 169.8)">
<title>dependencies</title>
<polygon fill="white" stroke="transparent" points="-4,4 -4,-169.8 849,-169.8 849,4 -4,4"/>
<text text-anchor="middle" x="422.5" y="-8.2" font-family="sans-serif" font-size="14.00">dependencies</text>
<g id="clust1" class="cluster">
<title>cluster_BusinessNewBranchModule</title>
<polygon fill="none" stroke="black" stroke-dasharray="1,5" points="8,-32.8 8,-157.8 837,-157.8 837,-32.8 8,-32.8"/>
</g>
<g id="clust4" class="cluster">
<title>cluster_BusinessNewBranchModule_imports</title>
<polygon fill="none" stroke="black" points="238,-40.8 238,-92.8 829,-92.8 829,-40.8 238,-40.8"/>
</g>
<g id="clust2" class="cluster">
<title>cluster_BusinessNewBranchModule_declarations</title>
<polygon fill="none" stroke="black" points="16,-40.8 16,-92.8 230,-92.8 230,-40.8 16,-40.8"/>
</g>
<!-- BusinessNewBranchComponent -->
<g id="node1" class="node">
<title>BusinessNewBranchComponent</title>
<polygon fill="#ffffb3" stroke="black" points="221.96,-84.8 24.04,-84.8 24.04,-48.8 221.96,-48.8 221.96,-84.8"/>
<text text-anchor="middle" x="123" y="-62.6" font-family="Times,serif" font-size="14.00">BusinessNewBranchComponent</text>
</g>
<!-- BusinessNewBranchModule -->
<g id="node2" class="node">
<title>BusinessNewBranchModule</title>
<polygon fill="#8dd3c7" stroke="black" points="504.18,-149.8 501.18,-153.8 480.18,-153.8 477.18,-149.8 327.82,-149.8 327.82,-113.8 504.18,-113.8 504.18,-149.8"/>
<text text-anchor="middle" x="416" y="-127.6" font-family="Times,serif" font-size="14.00">BusinessNewBranchModule</text>
</g>
<!-- BusinessNewBranchComponent&#45;&gt;BusinessNewBranchModule -->
<g id="edge1" class="edge">
<title>BusinessNewBranchComponent&#45;&gt;BusinessNewBranchModule</title>
<path fill="none" stroke="black" d="M123,-84.91C123,-104.14 123,-131.8 123,-131.8 123,-131.8 317.69,-131.8 317.69,-131.8"/>
<polygon fill="black" stroke="black" points="317.69,-135.3 327.69,-131.8 317.69,-128.3 317.69,-135.3"/>
</g>
<!-- BusinessNewBranchRoutingModule -->
<g id="node3" class="node">
<title>BusinessNewBranchRoutingModule</title>
<polygon fill="#8dd3c7" stroke="black" points="820.8,-84.8 817.8,-88.8 796.8,-88.8 793.8,-84.8 599.2,-84.8 599.2,-48.8 820.8,-48.8 820.8,-84.8"/>
<text text-anchor="middle" x="710" y="-62.6" font-family="Times,serif" font-size="14.00">BusinessNewBranchRoutingModule</text>
</g>
<!-- BusinessNewBranchRoutingModule&#45;&gt;BusinessNewBranchModule -->
<g id="edge2" class="edge">
<title>BusinessNewBranchRoutingModule&#45;&gt;BusinessNewBranchModule</title>
<path fill="none" stroke="black" d="M710,-84.91C710,-104.14 710,-131.8 710,-131.8 710,-131.8 514.21,-131.8 514.21,-131.8"/>
<polygon fill="black" stroke="black" points="514.21,-128.3 504.21,-131.8 514.21,-135.3 514.21,-128.3"/>
</g>
<!-- HomeModule -->
<g id="node4" class="node">
<title>HomeModule</title>
<polygon fill="#8dd3c7" stroke="black" points="580.76,-84.8 577.76,-88.8 556.76,-88.8 553.76,-84.8 487.24,-84.8 487.24,-48.8 580.76,-48.8 580.76,-84.8"/>
<text text-anchor="middle" x="534" y="-62.6" font-family="Times,serif" font-size="14.00">HomeModule</text>
</g>
<!-- HomeModule&#45;&gt;BusinessNewBranchModule -->
<g id="edge3" class="edge">
<title>HomeModule&#45;&gt;BusinessNewBranchModule</title>
<path fill="none" stroke="black" d="M495.6,-84.91C495.6,-84.91 495.6,-103.79 495.6,-103.79"/>
<polygon fill="black" stroke="black" points="492.1,-103.79 495.6,-113.79 499.1,-103.79 492.1,-103.79"/>
</g>
<!-- MaterialModule -->
<g id="node5" class="node">
<title>MaterialModule</title>
<polygon fill="#8dd3c7" stroke="black" points="469.47,-84.8 466.47,-88.8 445.47,-88.8 442.47,-84.8 362.53,-84.8 362.53,-48.8 469.47,-48.8 469.47,-84.8"/>
<text text-anchor="middle" x="416" y="-62.6" font-family="Times,serif" font-size="14.00">MaterialModule</text>
</g>
<!-- MaterialModule&#45;&gt;BusinessNewBranchModule -->
<g id="edge4" class="edge">
<title>MaterialModule&#45;&gt;BusinessNewBranchModule</title>
<path fill="none" stroke="black" d="M416,-84.91C416,-84.91 416,-103.79 416,-103.79"/>
<polygon fill="black" stroke="black" points="412.5,-103.79 416,-113.79 419.5,-103.79 412.5,-103.79"/>
</g>
<!-- SharedModule -->
<g id="node6" class="node">
<title>SharedModule</title>
<polygon fill="#8dd3c7" stroke="black" points="344.42,-84.8 341.42,-88.8 320.42,-88.8 317.42,-84.8 245.58,-84.8 245.58,-48.8 344.42,-48.8 344.42,-84.8"/>
<text text-anchor="middle" x="295" y="-62.6" font-family="Times,serif" font-size="14.00">SharedModule</text>
</g>
<!-- SharedModule&#45;&gt;BusinessNewBranchModule -->
<g id="edge5" class="edge">
<title>SharedModule&#45;&gt;BusinessNewBranchModule</title>
<path fill="none" stroke="black" d="M336.06,-84.91C336.06,-84.91 336.06,-103.79 336.06,-103.79"/>
<polygon fill="black" stroke="black" points="332.56,-103.79 336.06,-113.79 339.56,-103.79 332.56,-103.79"/>
</g>
</g>
</svg>
