<?xml version="1.0" encoding="UTF-8" standalone="no"?>
<!DOCTYPE svg PUBLIC "-//W3C//DTD SVG 1.1//EN"
 "http://www.w3.org/Graphics/SVG/1.1/DTD/svg11.dtd">
<!-- Generated by graphviz version 2.47.3 (20210619.1520)
 -->
<!-- Title: dependencies Pages: 1 -->
<svg width="262pt" height="247pt"
 viewBox="0.00 0.00 262.00 246.80" xmlns="http://www.w3.org/2000/svg" xmlns:xlink="http://www.w3.org/1999/xlink">
<g id="graph0" class="graph" transform="scale(1 1) rotate(0) translate(4 242.8)">
<title>dependencies</title>
<polygon fill="white" stroke="transparent" points="-4,4 -4,-242.8 258,-242.8 258,4 -4,4"/>
<text text-anchor="middle" x="127" y="-8.2" font-family="sans-serif" font-size="14.00">dependencies</text>
<g id="clust1" class="cluster">
<title>cluster_BusinessNewBranchRoutingModule</title>
<polygon fill="none" stroke="black" stroke-dasharray="1,5" points="8,-32.8 8,-230.8 246,-230.8 246,-32.8 8,-32.8"/>
</g>
<g id="clust3" class="cluster">
<title>cluster_BusinessNewBranchRoutingModule_imports</title>
<polygon fill="none" stroke="black" points="28,-40.8 28,-92.8 226,-92.8 226,-40.8 28,-40.8"/>
</g>
<g id="clust4" class="cluster">
<title>cluster_BusinessNewBranchRoutingModule_exports</title>
<polygon fill="none" stroke="black" points="68,-170.8 68,-222.8 186,-222.8 186,-170.8 68,-170.8"/>
</g>
<!-- RouterModule.forChild(args) -->
<g id="node1" class="node">
<title>RouterModule.forChild(args)</title>
<polygon fill="#8dd3c7" stroke="black" points="217.73,-84.8 214.73,-88.8 193.73,-88.8 190.73,-84.8 36.27,-84.8 36.27,-48.8 217.73,-48.8 217.73,-84.8"/>
<text text-anchor="middle" x="127" y="-62.6" font-family="Times,serif" font-size="14.00">RouterModule.forChild(args)</text>
</g>
<!-- BusinessNewBranchRoutingModule -->
<g id="node2" class="node">
<title>BusinessNewBranchRoutingModule</title>
<polygon fill="#8dd3c7" stroke="black" points="237.8,-149.8 234.8,-153.8 213.8,-153.8 210.8,-149.8 16.2,-149.8 16.2,-113.8 237.8,-113.8 237.8,-149.8"/>
<text text-anchor="middle" x="127" y="-127.6" font-family="Times,serif" font-size="14.00">BusinessNewBranchRoutingModule</text>
</g>
<!-- RouterModule.forChild(args)&#45;&gt;BusinessNewBranchRoutingModule -->
<g id="edge1" class="edge">
<title>RouterModule.forChild(args)&#45;&gt;BusinessNewBranchRoutingModule</title>
<path fill="none" stroke="black" d="M127,-84.91C127,-84.91 127,-103.79 127,-103.79"/>
<polygon fill="black" stroke="black" points="123.5,-103.79 127,-113.79 130.5,-103.79 123.5,-103.79"/>
</g>
<!-- RouterModule  -->
<g id="node3" class="node">
<title>RouterModule </title>
<polygon fill="#fb8072" stroke="black" points="177.65,-214.8 76.35,-214.8 76.35,-178.8 177.65,-178.8 177.65,-214.8"/>
<text text-anchor="middle" x="127" y="-192.6" font-family="Times,serif" font-size="14.00">RouterModule </text>
</g>
<!-- BusinessNewBranchRoutingModule&#45;&gt;RouterModule  -->
<g id="edge2" class="edge">
<title>BusinessNewBranchRoutingModule&#45;&gt;RouterModule </title>
<path fill="none" stroke="black" stroke-dasharray="5,2" d="M127,-149.91C127,-149.91 127,-168.79 127,-168.79"/>
<polygon fill="black" stroke="black" points="123.5,-168.79 127,-178.79 130.5,-168.79 123.5,-168.79"/>
</g>
</g>
</svg>
