<?xml version="1.0" encoding="UTF-8" standalone="no"?>
<!DOCTYPE svg PUBLIC "-//W3C//DTD SVG 1.1//EN"
 "http://www.w3.org/Graphics/SVG/1.1/DTD/svg11.dtd">
<!-- Generated by graphviz version 2.47.3 (20210619.1520)
 -->
<!-- Title: dependencies Pages: 1 -->
<svg width="242pt" height="247pt"
 viewBox="0.00 0.00 242.00 246.80" xmlns="http://www.w3.org/2000/svg" xmlns:xlink="http://www.w3.org/1999/xlink">
<g id="graph0" class="graph" transform="scale(1 1) rotate(0) translate(4 242.8)">
<title>dependencies</title>
<polygon fill="white" stroke="transparent" points="-4,4 -4,-242.8 238,-242.8 238,4 -4,4"/>
<text text-anchor="middle" x="117" y="-8.2" font-family="sans-serif" font-size="14.00">dependencies</text>
<g id="clust1" class="cluster">
<title>cluster_SearchRestaurantRoutingModule</title>
<polygon fill="none" stroke="black" stroke-dasharray="1,5" points="8,-32.8 8,-230.8 226,-230.8 226,-32.8 8,-32.8"/>
</g>
<g id="clust4" class="cluster">
<title>cluster_SearchRestaurantRoutingModule_exports</title>
<polygon fill="none" stroke="black" points="58,-170.8 58,-222.8 176,-222.8 176,-170.8 58,-170.8"/>
</g>
<g id="clust3" class="cluster">
<title>cluster_SearchRestaurantRoutingModule_imports</title>
<polygon fill="none" stroke="black" points="18,-40.8 18,-92.8 216,-92.8 216,-40.8 18,-40.8"/>
</g>
<!-- RouterModule.forChild(args) -->
<g id="node1" class="node">
<title>RouterModule.forChild(args)</title>
<polygon fill="#8dd3c7" stroke="black" points="207.73,-84.8 204.73,-88.8 183.73,-88.8 180.73,-84.8 26.27,-84.8 26.27,-48.8 207.73,-48.8 207.73,-84.8"/>
<text text-anchor="middle" x="117" y="-62.6" font-family="Times,serif" font-size="14.00">RouterModule.forChild(args)</text>
</g>
<!-- SearchRestaurantRoutingModule -->
<g id="node2" class="node">
<title>SearchRestaurantRoutingModule</title>
<polygon fill="#8dd3c7" stroke="black" points="218.12,-149.8 215.12,-153.8 194.12,-153.8 191.12,-149.8 15.88,-149.8 15.88,-113.8 218.12,-113.8 218.12,-149.8"/>
<text text-anchor="middle" x="117" y="-127.6" font-family="Times,serif" font-size="14.00">SearchRestaurantRoutingModule</text>
</g>
<!-- RouterModule.forChild(args)&#45;&gt;SearchRestaurantRoutingModule -->
<g id="edge1" class="edge">
<title>RouterModule.forChild(args)&#45;&gt;SearchRestaurantRoutingModule</title>
<path fill="none" stroke="black" d="M117,-84.91C117,-84.91 117,-103.79 117,-103.79"/>
<polygon fill="black" stroke="black" points="113.5,-103.79 117,-113.79 120.5,-103.79 113.5,-103.79"/>
</g>
<!-- RouterModule  -->
<g id="node3" class="node">
<title>RouterModule </title>
<polygon fill="#fb8072" stroke="black" points="167.65,-214.8 66.35,-214.8 66.35,-178.8 167.65,-178.8 167.65,-214.8"/>
<text text-anchor="middle" x="117" y="-192.6" font-family="Times,serif" font-size="14.00">RouterModule </text>
</g>
<!-- SearchRestaurantRoutingModule&#45;&gt;RouterModule  -->
<g id="edge2" class="edge">
<title>SearchRestaurantRoutingModule&#45;&gt;RouterModule </title>
<path fill="none" stroke="black" stroke-dasharray="5,2" d="M117,-149.91C117,-149.91 117,-168.79 117,-168.79"/>
<polygon fill="black" stroke="black" points="113.5,-168.79 117,-178.79 120.5,-168.79 113.5,-168.79"/>
</g>
</g>
</svg>
