<?xml version="1.0" encoding="UTF-8" standalone="no"?>
<!DOCTYPE svg PUBLIC "-//W3C//DTD SVG 1.1//EN"
 "http://www.w3.org/Graphics/SVG/1.1/DTD/svg11.dtd">
<!-- Generated by graphviz version 2.47.3 (20210619.1520)
 -->
<!-- Title: dependencies Pages: 1 -->
<svg width="517pt" height="247pt"
 viewBox="0.00 0.00 517.00 246.80" xmlns="http://www.w3.org/2000/svg" xmlns:xlink="http://www.w3.org/1999/xlink">
<g id="graph0" class="graph" transform="scale(1 1) rotate(0) translate(4 242.8)">
<title>dependencies</title>
<polygon fill="white" stroke="transparent" points="-4,4 -4,-242.8 513,-242.8 513,4 -4,4"/>
<text text-anchor="middle" x="254.5" y="-8.2" font-family="sans-serif" font-size="14.00">dependencies</text>
<g id="clust1" class="cluster">
<title>cluster_HeaderModule</title>
<polygon fill="none" stroke="black" stroke-dasharray="1,5" points="8,-32.8 8,-230.8 501,-230.8 501,-32.8 8,-32.8"/>
</g>
<g id="clust6" class="cluster">
<title>cluster_HeaderModule_exports</title>
<polygon fill="none" stroke="black" points="78,-170.8 78,-222.8 432,-222.8 432,-170.8 78,-170.8"/>
</g>
<g id="clust5" class="cluster">
<title>cluster_HeaderModule_imports</title>
<polygon fill="none" stroke="black" points="371,-40.8 371,-92.8 493,-92.8 493,-40.8 371,-40.8"/>
</g>
<g id="clust2" class="cluster">
<title>cluster_HeaderModule_declarations</title>
<polygon fill="none" stroke="black" points="16,-40.8 16,-92.8 363,-92.8 363,-40.8 16,-40.8"/>
</g>
<!-- HeaderLoginComponent -->
<g id="node1" class="node">
<title>HeaderLoginComponent</title>
<polygon fill="#ffffb3" stroke="black" points="354.69,-84.8 199.31,-84.8 199.31,-48.8 354.69,-48.8 354.69,-84.8"/>
<text text-anchor="middle" x="277" y="-62.6" font-family="Times,serif" font-size="14.00">HeaderLoginComponent</text>
</g>
<!-- HeaderModule -->
<g id="node3" class="node">
<title>HeaderModule</title>
<polygon fill="#8dd3c7" stroke="black" points="326.96,-149.8 323.96,-153.8 302.96,-153.8 299.96,-149.8 227.04,-149.8 227.04,-113.8 326.96,-113.8 326.96,-149.8"/>
<text text-anchor="middle" x="277" y="-127.6" font-family="Times,serif" font-size="14.00">HeaderModule</text>
</g>
<!-- HeaderLoginComponent&#45;&gt;HeaderModule -->
<g id="edge1" class="edge">
<title>HeaderLoginComponent&#45;&gt;HeaderModule</title>
<path fill="none" stroke="black" d="M277,-84.91C277,-84.91 277,-103.79 277,-103.79"/>
<polygon fill="black" stroke="black" points="273.5,-103.79 277,-113.79 280.5,-103.79 273.5,-103.79"/>
</g>
<!-- HeaderPublicComponent -->
<g id="node2" class="node">
<title>HeaderPublicComponent</title>
<polygon fill="#ffffb3" stroke="black" points="181.52,-84.8 24.48,-84.8 24.48,-48.8 181.52,-48.8 181.52,-84.8"/>
<text text-anchor="middle" x="103" y="-62.6" font-family="Times,serif" font-size="14.00">HeaderPublicComponent</text>
</g>
<!-- HeaderPublicComponent&#45;&gt;HeaderModule -->
<g id="edge2" class="edge">
<title>HeaderPublicComponent&#45;&gt;HeaderModule</title>
<path fill="none" stroke="black" d="M134.12,-84.91C134.12,-104.14 134.12,-131.8 134.12,-131.8 134.12,-131.8 217.03,-131.8 217.03,-131.8"/>
<polygon fill="black" stroke="black" points="217.03,-135.3 227.03,-131.8 217.03,-128.3 217.03,-135.3"/>
</g>
<!-- HeaderLoginComponent  -->
<g id="node5" class="node">
<title>HeaderLoginComponent </title>
<polygon fill="#fb8072" stroke="black" points="424.19,-214.8 265.81,-214.8 265.81,-178.8 424.19,-178.8 424.19,-214.8"/>
<text text-anchor="middle" x="345" y="-192.6" font-family="Times,serif" font-size="14.00">HeaderLoginComponent </text>
</g>
<!-- HeaderModule&#45;&gt;HeaderLoginComponent  -->
<g id="edge4" class="edge">
<title>HeaderModule&#45;&gt;HeaderLoginComponent </title>
<path fill="none" stroke="black" stroke-dasharray="5,2" d="M296.32,-149.91C296.32,-149.91 296.32,-168.79 296.32,-168.79"/>
<polygon fill="black" stroke="black" points="292.82,-168.79 296.32,-178.79 299.82,-168.79 292.82,-168.79"/>
</g>
<!-- HeaderPublicComponent  -->
<g id="node6" class="node">
<title>HeaderPublicComponent </title>
<polygon fill="#fb8072" stroke="black" points="247.52,-214.8 86.48,-214.8 86.48,-178.8 247.52,-178.8 247.52,-214.8"/>
<text text-anchor="middle" x="167" y="-192.6" font-family="Times,serif" font-size="14.00">HeaderPublicComponent </text>
</g>
<!-- HeaderModule&#45;&gt;HeaderPublicComponent  -->
<g id="edge5" class="edge">
<title>HeaderModule&#45;&gt;HeaderPublicComponent </title>
<path fill="none" stroke="black" stroke-dasharray="5,2" d="M237.27,-149.91C237.27,-149.91 237.27,-168.79 237.27,-168.79"/>
<polygon fill="black" stroke="black" points="233.77,-168.79 237.27,-178.79 240.77,-168.79 233.77,-168.79"/>
</g>
<!-- MaterialModule -->
<g id="node4" class="node">
<title>MaterialModule</title>
<polygon fill="#8dd3c7" stroke="black" points="485.47,-84.8 482.47,-88.8 461.47,-88.8 458.47,-84.8 378.53,-84.8 378.53,-48.8 485.47,-48.8 485.47,-84.8"/>
<text text-anchor="middle" x="432" y="-62.6" font-family="Times,serif" font-size="14.00">MaterialModule</text>
</g>
<!-- MaterialModule&#45;&gt;HeaderModule -->
<g id="edge3" class="edge">
<title>MaterialModule&#45;&gt;HeaderModule</title>
<path fill="none" stroke="black" d="M401.43,-84.91C401.43,-104.14 401.43,-131.8 401.43,-131.8 401.43,-131.8 337.25,-131.8 337.25,-131.8"/>
<polygon fill="black" stroke="black" points="337.25,-128.3 327.25,-131.8 337.25,-135.3 337.25,-128.3"/>
</g>
</g>
</svg>
