<?xml version="1.0" encoding="UTF-8" standalone="no"?>
<!DOCTYPE svg PUBLIC "-//W3C//DTD SVG 1.1//EN"
 "http://www.w3.org/Graphics/SVG/1.1/DTD/svg11.dtd">
<!-- Generated by graphviz version 2.47.3 (20210619.1520)
 -->
<!-- Title: dependencies Pages: 1 -->
<svg width="3219pt" height="174pt"
 viewBox="0.00 0.00 3219.00 173.80" xmlns="http://www.w3.org/2000/svg" xmlns:xlink="http://www.w3.org/1999/xlink">
<g id="graph0" class="graph" transform="scale(1 1) rotate(0) translate(4 169.8)">
<title>dependencies</title>
<polygon fill="white" stroke="transparent" points="-4,4 -4,-169.8 3215,-169.8 3215,4 -4,4"/>
<text text-anchor="middle" x="1605.5" y="-8.2" font-family="sans-serif" font-size="14.00">dependencies</text>
<g id="clust1" class="cluster">
<title>cluster_BusinessProfileModule</title>
<polygon fill="none" stroke="black" stroke-dasharray="1,5" points="8,-32.8 8,-157.8 3203,-157.8 3203,-32.8 8,-32.8"/>
</g>
<g id="clust2" class="cluster">
<title>cluster_BusinessProfileModule_declarations</title>
<polygon fill="none" stroke="black" points="585,-40.8 585,-92.8 3195,-92.8 3195,-40.8 585,-40.8"/>
</g>
<g id="clust13" class="cluster">
<title>cluster_BusinessProfileModule_imports</title>
<polygon fill="none" stroke="black" points="16,-40.8 16,-92.8 577,-92.8 577,-40.8 16,-40.8"/>
</g>
<!-- BusinessProfileBodyComponent -->
<g id="node1" class="node">
<title>BusinessProfileBodyComponent</title>
<polygon fill="#ffffb3" stroke="black" points="3186.54,-84.8 2987.46,-84.8 2987.46,-48.8 3186.54,-48.8 3186.54,-84.8"/>
<text text-anchor="middle" x="3087" y="-62.6" font-family="Times,serif" font-size="14.00">BusinessProfileBodyComponent</text>
</g>
<!-- BusinessProfileModule -->
<g id="node11" class="node">
<title>BusinessProfileModule</title>
<polygon fill="#8dd3c7" stroke="black" points="1486.93,-149.8 1483.93,-153.8 1462.93,-153.8 1459.93,-149.8 1339.07,-149.8 1339.07,-113.8 1486.93,-113.8 1486.93,-149.8"/>
<text text-anchor="middle" x="1413" y="-127.6" font-family="Times,serif" font-size="14.00">BusinessProfileModule</text>
</g>
<!-- BusinessProfileBodyComponent&#45;&gt;BusinessProfileModule -->
<g id="edge1" class="edge">
<title>BusinessProfileBodyComponent&#45;&gt;BusinessProfileModule</title>
<path fill="none" stroke="black" d="M3087,-84.89C3087,-107.93 3087,-144.8 3087,-144.8 3087,-144.8 1496.82,-144.8 1496.82,-144.8"/>
<polygon fill="black" stroke="black" points="1496.82,-141.3 1486.82,-144.8 1496.82,-148.3 1496.82,-141.3"/>
</g>
<!-- BusinessProfileCarouselUploadImageComponent -->
<g id="node2" class="node">
<title>BusinessProfileCarouselUploadImageComponent</title>
<polygon fill="#ffffb3" stroke="black" points="2969.66,-84.8 2674.34,-84.8 2674.34,-48.8 2969.66,-48.8 2969.66,-84.8"/>
<text text-anchor="middle" x="2822" y="-62.6" font-family="Times,serif" font-size="14.00">BusinessProfileCarouselUploadImageComponent</text>
</g>
<!-- BusinessProfileCarouselUploadImageComponent&#45;&gt;BusinessProfileModule -->
<g id="edge2" class="edge">
<title>BusinessProfileCarouselUploadImageComponent&#45;&gt;BusinessProfileModule</title>
<path fill="none" stroke="black" d="M2822,-84.84C2822,-106.46 2822,-139.8 2822,-139.8 2822,-139.8 1496.77,-139.8 1496.77,-139.8"/>
<polygon fill="black" stroke="black" points="1496.77,-136.3 1486.77,-139.8 1496.77,-143.3 1496.77,-136.3"/>
</g>
<!-- BusinessProfileCloseUploadImageComponent -->
<g id="node3" class="node">
<title>BusinessProfileCloseUploadImageComponent</title>
<polygon fill="#ffffb3" stroke="black" points="2656.79,-84.8 2379.21,-84.8 2379.21,-48.8 2656.79,-48.8 2656.79,-84.8"/>
<text text-anchor="middle" x="2518" y="-62.6" font-family="Times,serif" font-size="14.00">BusinessProfileCloseUploadImageComponent</text>
</g>
<!-- BusinessProfileCloseUploadImageComponent&#45;&gt;BusinessProfileModule -->
<g id="edge3" class="edge">
<title>BusinessProfileCloseUploadImageComponent&#45;&gt;BusinessProfileModule</title>
<path fill="none" stroke="black" d="M2518,-85.02C2518,-105.17 2518,-134.8 2518,-134.8 2518,-134.8 1496.79,-134.8 1496.79,-134.8"/>
<polygon fill="black" stroke="black" points="1496.79,-131.3 1486.79,-134.8 1496.79,-138.3 1496.79,-131.3"/>
</g>
<!-- BusinessProfileComponent -->
<g id="node4" class="node">
<title>BusinessProfileComponent</title>
<polygon fill="#ffffb3" stroke="black" points="2361.71,-84.8 2192.29,-84.8 2192.29,-48.8 2361.71,-48.8 2361.71,-84.8"/>
<text text-anchor="middle" x="2277" y="-62.6" font-family="Times,serif" font-size="14.00">BusinessProfileComponent</text>
</g>
<!-- BusinessProfileComponent&#45;&gt;BusinessProfileModule -->
<g id="edge4" class="edge">
<title>BusinessProfileComponent&#45;&gt;BusinessProfileModule</title>
<path fill="none" stroke="black" d="M2277,-85.02C2277,-103.63 2277,-129.8 2277,-129.8 2277,-129.8 1497.04,-129.8 1497.04,-129.8"/>
<polygon fill="black" stroke="black" points="1497.04,-126.3 1487.04,-129.8 1497.04,-133.3 1497.04,-126.3"/>
</g>
<!-- BusinessProfileEditBankDataComponent -->
<g id="node5" class="node">
<title>BusinessProfileEditBankDataComponent</title>
<polygon fill="#ffffb3" stroke="black" points="2174.02,-84.8 1925.98,-84.8 1925.98,-48.8 2174.02,-48.8 2174.02,-84.8"/>
<text text-anchor="middle" x="2050" y="-62.6" font-family="Times,serif" font-size="14.00">BusinessProfileEditBankDataComponent</text>
</g>
<!-- BusinessProfileEditBankDataComponent&#45;&gt;BusinessProfileModule -->
<g id="edge5" class="edge">
<title>BusinessProfileEditBankDataComponent&#45;&gt;BusinessProfileModule</title>
<path fill="none" stroke="black" d="M2050,-84.83C2050,-101.86 2050,-124.8 2050,-124.8 2050,-124.8 1497.01,-124.8 1497.01,-124.8"/>
<polygon fill="black" stroke="black" points="1497.01,-121.3 1487.01,-124.8 1497.01,-128.3 1497.01,-121.3"/>
</g>
<!-- BusinessProfileEditDataComponent -->
<g id="node6" class="node">
<title>BusinessProfileEditDataComponent</title>
<polygon fill="#ffffb3" stroke="black" points="1907.47,-84.8 1688.53,-84.8 1688.53,-48.8 1907.47,-48.8 1907.47,-84.8"/>
<text text-anchor="middle" x="1798" y="-62.6" font-family="Times,serif" font-size="14.00">BusinessProfileEditDataComponent</text>
</g>
<!-- BusinessProfileEditDataComponent&#45;&gt;BusinessProfileModule -->
<g id="edge6" class="edge">
<title>BusinessProfileEditDataComponent&#45;&gt;BusinessProfileModule</title>
<path fill="none" stroke="black" d="M1798,-85.04C1798,-100.37 1798,-119.8 1798,-119.8 1798,-119.8 1496.78,-119.8 1496.78,-119.8"/>
<polygon fill="black" stroke="black" points="1496.78,-116.3 1486.78,-119.8 1496.78,-123.3 1496.78,-116.3"/>
</g>
<!-- BusinessProfileEditPasswordComponent -->
<g id="node7" class="node">
<title>BusinessProfileEditPasswordComponent</title>
<polygon fill="#ffffb3" stroke="black" points="1670.2,-84.8 1423.8,-84.8 1423.8,-48.8 1670.2,-48.8 1670.2,-84.8"/>
<text text-anchor="middle" x="1547" y="-62.6" font-family="Times,serif" font-size="14.00">BusinessProfileEditPasswordComponent</text>
</g>
<!-- BusinessProfileEditPasswordComponent&#45;&gt;BusinessProfileModule -->
<g id="edge7" class="edge">
<title>BusinessProfileEditPasswordComponent&#45;&gt;BusinessProfileModule</title>
<path fill="none" stroke="black" d="M1455.31,-84.91C1455.31,-84.91 1455.31,-103.79 1455.31,-103.79"/>
<polygon fill="black" stroke="black" points="1451.81,-103.79 1455.31,-113.79 1458.81,-103.79 1451.81,-103.79"/>
</g>
<!-- BusinessProfileEditWorkDaysComponent -->
<g id="node8" class="node">
<title>BusinessProfileEditWorkDaysComponent</title>
<polygon fill="#ffffb3" stroke="black" points="1405.68,-84.8 1152.32,-84.8 1152.32,-48.8 1405.68,-48.8 1405.68,-84.8"/>
<text text-anchor="middle" x="1279" y="-62.6" font-family="Times,serif" font-size="14.00">BusinessProfileEditWorkDaysComponent</text>
</g>
<!-- BusinessProfileEditWorkDaysComponent&#45;&gt;BusinessProfileModule -->
<g id="edge8" class="edge">
<title>BusinessProfileEditWorkDaysComponent&#45;&gt;BusinessProfileModule</title>
<path fill="none" stroke="black" d="M1372.44,-84.91C1372.44,-84.91 1372.44,-103.79 1372.44,-103.79"/>
<polygon fill="black" stroke="black" points="1368.94,-103.79 1372.44,-113.79 1375.94,-103.79 1368.94,-103.79"/>
</g>
<!-- BusinessProfileImageLocalsComponent -->
<g id="node9" class="node">
<title>BusinessProfileImageLocalsComponent</title>
<polygon fill="#ffffb3" stroke="black" points="1134.51,-84.8 893.49,-84.8 893.49,-48.8 1134.51,-48.8 1134.51,-84.8"/>
<text text-anchor="middle" x="1014" y="-62.6" font-family="Times,serif" font-size="14.00">BusinessProfileImageLocalsComponent</text>
</g>
<!-- BusinessProfileImageLocalsComponent&#45;&gt;BusinessProfileModule -->
<g id="edge9" class="edge">
<title>BusinessProfileImageLocalsComponent&#45;&gt;BusinessProfileModule</title>
<path fill="none" stroke="black" d="M1014,-85.04C1014,-100.37 1014,-119.8 1014,-119.8 1014,-119.8 1328.89,-119.8 1328.89,-119.8"/>
<polygon fill="black" stroke="black" points="1328.89,-123.3 1338.89,-119.8 1328.89,-116.3 1328.89,-123.3"/>
</g>
<!-- BusinessProfileUploadImageLocalsComponent -->
<g id="node10" class="node">
<title>BusinessProfileUploadImageLocalsComponent</title>
<polygon fill="#ffffb3" stroke="black" points="875.22,-84.8 592.78,-84.8 592.78,-48.8 875.22,-48.8 875.22,-84.8"/>
<text text-anchor="middle" x="734" y="-62.6" font-family="Times,serif" font-size="14.00">BusinessProfileUploadImageLocalsComponent</text>
</g>
<!-- BusinessProfileUploadImageLocalsComponent&#45;&gt;BusinessProfileModule -->
<g id="edge10" class="edge">
<title>BusinessProfileUploadImageLocalsComponent&#45;&gt;BusinessProfileModule</title>
<path fill="none" stroke="black" d="M734,-84.83C734,-101.86 734,-124.8 734,-124.8 734,-124.8 1329.04,-124.8 1329.04,-124.8"/>
<polygon fill="black" stroke="black" points="1329.04,-128.3 1339.04,-124.8 1329.04,-121.3 1329.04,-128.3"/>
</g>
<!-- BusinessProfileRoutingModule -->
<g id="node12" class="node">
<title>BusinessProfileRoutingModule</title>
<polygon fill="#8dd3c7" stroke="black" points="569.04,-84.8 566.04,-88.8 545.04,-88.8 542.04,-84.8 376.96,-84.8 376.96,-48.8 569.04,-48.8 569.04,-84.8"/>
<text text-anchor="middle" x="473" y="-62.6" font-family="Times,serif" font-size="14.00">BusinessProfileRoutingModule</text>
</g>
<!-- BusinessProfileRoutingModule&#45;&gt;BusinessProfileModule -->
<g id="edge11" class="edge">
<title>BusinessProfileRoutingModule&#45;&gt;BusinessProfileModule</title>
<path fill="none" stroke="black" d="M473,-85.02C473,-103.63 473,-129.8 473,-129.8 473,-129.8 1329.24,-129.8 1329.24,-129.8"/>
<polygon fill="black" stroke="black" points="1329.24,-133.3 1339.24,-129.8 1329.24,-126.3 1329.24,-133.3"/>
</g>
<!-- HomeModule -->
<g id="node13" class="node">
<title>HomeModule</title>
<polygon fill="#8dd3c7" stroke="black" points="358.76,-84.8 355.76,-88.8 334.76,-88.8 331.76,-84.8 265.24,-84.8 265.24,-48.8 358.76,-48.8 358.76,-84.8"/>
<text text-anchor="middle" x="312" y="-62.6" font-family="Times,serif" font-size="14.00">HomeModule</text>
</g>
<!-- HomeModule&#45;&gt;BusinessProfileModule -->
<g id="edge12" class="edge">
<title>HomeModule&#45;&gt;BusinessProfileModule</title>
<path fill="none" stroke="black" d="M312,-85.02C312,-105.17 312,-134.8 312,-134.8 312,-134.8 1329.05,-134.8 1329.05,-134.8"/>
<polygon fill="black" stroke="black" points="1329.05,-138.3 1339.05,-134.8 1329.05,-131.3 1329.05,-138.3"/>
</g>
<!-- MaterialModule -->
<g id="node14" class="node">
<title>MaterialModule</title>
<polygon fill="#8dd3c7" stroke="black" points="247.47,-84.8 244.47,-88.8 223.47,-88.8 220.47,-84.8 140.53,-84.8 140.53,-48.8 247.47,-48.8 247.47,-84.8"/>
<text text-anchor="middle" x="194" y="-62.6" font-family="Times,serif" font-size="14.00">MaterialModule</text>
</g>
<!-- MaterialModule&#45;&gt;BusinessProfileModule -->
<g id="edge13" class="edge">
<title>MaterialModule&#45;&gt;BusinessProfileModule</title>
<path fill="none" stroke="black" d="M194,-84.84C194,-106.46 194,-139.8 194,-139.8 194,-139.8 1329.04,-139.8 1329.04,-139.8"/>
<polygon fill="black" stroke="black" points="1329.04,-143.3 1339.04,-139.8 1329.04,-136.3 1329.04,-143.3"/>
</g>
<!-- SharedModule -->
<g id="node15" class="node">
<title>SharedModule</title>
<polygon fill="#8dd3c7" stroke="black" points="122.42,-84.8 119.42,-88.8 98.42,-88.8 95.42,-84.8 23.58,-84.8 23.58,-48.8 122.42,-48.8 122.42,-84.8"/>
<text text-anchor="middle" x="73" y="-62.6" font-family="Times,serif" font-size="14.00">SharedModule</text>
</g>
<!-- SharedModule&#45;&gt;BusinessProfileModule -->
<g id="edge14" class="edge">
<title>SharedModule&#45;&gt;BusinessProfileModule</title>
<path fill="none" stroke="black" d="M73,-84.89C73,-107.93 73,-144.8 73,-144.8 73,-144.8 1329.05,-144.8 1329.05,-144.8"/>
<polygon fill="black" stroke="black" points="1329.05,-148.3 1339.05,-144.8 1329.05,-141.3 1329.05,-148.3"/>
</g>
</g>
</svg>
