<?xml version="1.0" encoding="UTF-8" standalone="no"?>
<!DOCTYPE svg PUBLIC "-//W3C//DTD SVG 1.1//EN"
 "http://www.w3.org/Graphics/SVG/1.1/DTD/svg11.dtd">
<!-- Generated by graphviz version 2.47.3 (20210619.1520)
 -->
<!-- Title: dependencies Pages: 1 -->
<svg width="772pt" height="174pt"
 viewBox="0.00 0.00 772.00 173.80" xmlns="http://www.w3.org/2000/svg" xmlns:xlink="http://www.w3.org/1999/xlink">
<g id="graph0" class="graph" transform="scale(1 1) rotate(0) translate(4 169.8)">
<title>dependencies</title>
<polygon fill="white" stroke="transparent" points="-4,4 -4,-169.8 768,-169.8 768,4 -4,4"/>
<text text-anchor="middle" x="382" y="-8.2" font-family="sans-serif" font-size="14.00">dependencies</text>
<g id="clust1" class="cluster">
<title>cluster_RefundPolicyModule</title>
<polygon fill="none" stroke="black" stroke-dasharray="1,5" points="8,-32.8 8,-157.8 756,-157.8 756,-32.8 8,-32.8"/>
</g>
<g id="clust2" class="cluster">
<title>cluster_RefundPolicyModule_declarations</title>
<polygon fill="none" stroke="black" points="574,-40.8 574,-92.8 748,-92.8 748,-40.8 574,-40.8"/>
</g>
<g id="clust4" class="cluster">
<title>cluster_RefundPolicyModule_imports</title>
<polygon fill="none" stroke="black" points="16,-40.8 16,-92.8 566,-92.8 566,-40.8 16,-40.8"/>
</g>
<!-- RefundPolicyComponent -->
<g id="node1" class="node">
<title>RefundPolicyComponent</title>
<polygon fill="#ffffb3" stroke="black" points="740.32,-84.8 581.68,-84.8 581.68,-48.8 740.32,-48.8 740.32,-84.8"/>
<text text-anchor="middle" x="661" y="-62.6" font-family="Times,serif" font-size="14.00">RefundPolicyComponent</text>
</g>
<!-- RefundPolicyModule -->
<g id="node2" class="node">
<title>RefundPolicyModule</title>
<polygon fill="#8dd3c7" stroke="black" points="461.04,-149.8 458.04,-153.8 437.04,-153.8 434.04,-149.8 324.96,-149.8 324.96,-113.8 461.04,-113.8 461.04,-149.8"/>
<text text-anchor="middle" x="393" y="-127.6" font-family="Times,serif" font-size="14.00">RefundPolicyModule</text>
</g>
<!-- RefundPolicyComponent&#45;&gt;RefundPolicyModule -->
<g id="edge1" class="edge">
<title>RefundPolicyComponent&#45;&gt;RefundPolicyModule</title>
<path fill="none" stroke="black" d="M661,-84.91C661,-104.14 661,-131.8 661,-131.8 661,-131.8 471.32,-131.8 471.32,-131.8"/>
<polygon fill="black" stroke="black" points="471.32,-128.3 461.32,-131.8 471.32,-135.3 471.32,-128.3"/>
</g>
<!-- HomeModule -->
<g id="node3" class="node">
<title>HomeModule</title>
<polygon fill="#8dd3c7" stroke="black" points="557.76,-84.8 554.76,-88.8 533.76,-88.8 530.76,-84.8 464.24,-84.8 464.24,-48.8 557.76,-48.8 557.76,-84.8"/>
<text text-anchor="middle" x="511" y="-62.6" font-family="Times,serif" font-size="14.00">HomeModule</text>
</g>
<!-- HomeModule&#45;&gt;RefundPolicyModule -->
<g id="edge2" class="edge">
<title>HomeModule&#45;&gt;RefundPolicyModule</title>
<path fill="none" stroke="black" d="M464.09,-66.8C458.03,-66.8 453.88,-66.8 453.88,-66.8 453.88,-66.8 453.88,-103.69 453.88,-103.69"/>
<polygon fill="black" stroke="black" points="450.38,-103.69 453.88,-113.69 457.38,-103.69 450.38,-103.69"/>
</g>
<!-- MaterialModule -->
<g id="node4" class="node">
<title>MaterialModule</title>
<polygon fill="#8dd3c7" stroke="black" points="446.47,-84.8 443.47,-88.8 422.47,-88.8 419.47,-84.8 339.53,-84.8 339.53,-48.8 446.47,-48.8 446.47,-84.8"/>
<text text-anchor="middle" x="393" y="-62.6" font-family="Times,serif" font-size="14.00">MaterialModule</text>
</g>
<!-- MaterialModule&#45;&gt;RefundPolicyModule -->
<g id="edge3" class="edge">
<title>MaterialModule&#45;&gt;RefundPolicyModule</title>
<path fill="none" stroke="black" d="M393,-84.91C393,-84.91 393,-103.79 393,-103.79"/>
<polygon fill="black" stroke="black" points="389.5,-103.79 393,-113.79 396.5,-103.79 389.5,-103.79"/>
</g>
<!-- RefundPolicyRoutingModule -->
<g id="node5" class="node">
<title>RefundPolicyRoutingModule</title>
<polygon fill="#8dd3c7" stroke="black" points="321.66,-84.8 318.66,-88.8 297.66,-88.8 294.66,-84.8 140.34,-84.8 140.34,-48.8 321.66,-48.8 321.66,-84.8"/>
<text text-anchor="middle" x="231" y="-62.6" font-family="Times,serif" font-size="14.00">RefundPolicyRoutingModule</text>
</g>
<!-- RefundPolicyRoutingModule&#45;&gt;RefundPolicyModule -->
<g id="edge4" class="edge">
<title>RefundPolicyRoutingModule&#45;&gt;RefundPolicyModule</title>
<path fill="none" stroke="black" d="M321.68,-66.8C328.11,-66.8 332.12,-66.8 332.12,-66.8 332.12,-66.8 332.12,-103.69 332.12,-103.69"/>
<polygon fill="black" stroke="black" points="328.62,-103.69 332.12,-113.69 335.62,-103.69 328.62,-103.69"/>
</g>
<!-- SharedModule -->
<g id="node6" class="node">
<title>SharedModule</title>
<polygon fill="#8dd3c7" stroke="black" points="122.42,-84.8 119.42,-88.8 98.42,-88.8 95.42,-84.8 23.58,-84.8 23.58,-48.8 122.42,-48.8 122.42,-84.8"/>
<text text-anchor="middle" x="73" y="-62.6" font-family="Times,serif" font-size="14.00">SharedModule</text>
</g>
<!-- SharedModule&#45;&gt;RefundPolicyModule -->
<g id="edge5" class="edge">
<title>SharedModule&#45;&gt;RefundPolicyModule</title>
<path fill="none" stroke="black" d="M73,-84.91C73,-104.14 73,-131.8 73,-131.8 73,-131.8 314.74,-131.8 314.74,-131.8"/>
<polygon fill="black" stroke="black" points="314.74,-135.3 324.74,-131.8 314.74,-128.3 314.74,-135.3"/>
</g>
</g>
</svg>
