<?xml version="1.0" encoding="UTF-8" standalone="no"?>
<!DOCTYPE svg PUBLIC "-//W3C//DTD SVG 1.1//EN"
 "http://www.w3.org/Graphics/SVG/1.1/DTD/svg11.dtd">
<!-- Generated by graphviz version 2.47.3 (20210619.1520)
 -->
<!-- Title: dependencies Pages: 1 -->
<svg width="477pt" height="247pt"
 viewBox="0.00 0.00 477.00 246.80" xmlns="http://www.w3.org/2000/svg" xmlns:xlink="http://www.w3.org/1999/xlink">
<g id="graph0" class="graph" transform="scale(1 1) rotate(0) translate(4 242.8)">
<title>dependencies</title>
<polygon fill="white" stroke="transparent" points="-4,4 -4,-242.8 473,-242.8 473,4 -4,4"/>
<text text-anchor="middle" x="234.5" y="-8.2" font-family="sans-serif" font-size="14.00">dependencies</text>
<g id="clust1" class="cluster">
<title>cluster_SharedDirectivesModule</title>
<polygon fill="none" stroke="black" stroke-dasharray="1,5" points="8,-32.8 8,-230.8 461,-230.8 461,-32.8 8,-32.8"/>
</g>
<g id="clust2" class="cluster">
<title>cluster_SharedDirectivesModule_declarations</title>
<polygon fill="none" stroke="black" points="21,-40.8 21,-92.8 447,-92.8 447,-40.8 21,-40.8"/>
</g>
<g id="clust7" class="cluster">
<title>cluster_SharedDirectivesModule_exports</title>
<polygon fill="none" stroke="black" points="16,-170.8 16,-222.8 453,-222.8 453,-170.8 16,-170.8"/>
</g>
<!-- PhoneMaskDirective -->
<g id="node1" class="node">
<title>PhoneMaskDirective</title>
<polygon fill="#ffffb3" stroke="black" points="439.18,-84.8 304.82,-84.8 304.82,-48.8 439.18,-48.8 439.18,-84.8"/>
<text text-anchor="middle" x="372" y="-62.6" font-family="Times,serif" font-size="14.00">PhoneMaskDirective</text>
</g>
<!-- SharedDirectivesModule -->
<g id="node4" class="node">
<title>SharedDirectivesModule</title>
<polygon fill="#8dd3c7" stroke="black" points="293.95,-149.8 290.95,-153.8 269.95,-153.8 266.95,-149.8 138.05,-149.8 138.05,-113.8 293.95,-113.8 293.95,-149.8"/>
<text text-anchor="middle" x="216" y="-127.6" font-family="Times,serif" font-size="14.00">SharedDirectivesModule</text>
</g>
<!-- PhoneMaskDirective&#45;&gt;SharedDirectivesModule -->
<g id="edge1" class="edge">
<title>PhoneMaskDirective&#45;&gt;SharedDirectivesModule</title>
<path fill="none" stroke="black" d="M395.11,-84.82C395.11,-102.17 395.11,-125.8 395.11,-125.8 395.11,-125.8 304.04,-125.8 304.04,-125.8"/>
<polygon fill="black" stroke="black" points="304.04,-122.3 294.04,-125.8 304.04,-129.3 304.04,-122.3"/>
</g>
<!-- SanitizeHtmlDirective -->
<g id="node2" class="node">
<title>SanitizeHtmlDirective</title>
<polygon fill="#ffffb3" stroke="black" points="286.96,-84.8 145.04,-84.8 145.04,-48.8 286.96,-48.8 286.96,-84.8"/>
<text text-anchor="middle" x="216" y="-62.6" font-family="Times,serif" font-size="14.00">SanitizeHtmlDirective</text>
</g>
<!-- SanitizeHtmlDirective&#45;&gt;SharedDirectivesModule -->
<g id="edge2" class="edge">
<title>SanitizeHtmlDirective&#45;&gt;SharedDirectivesModule</title>
<path fill="none" stroke="black" d="M216,-84.91C216,-84.91 216,-103.79 216,-103.79"/>
<polygon fill="black" stroke="black" points="212.5,-103.79 216,-113.79 219.5,-103.79 212.5,-103.79"/>
</g>
<!-- TimeDirective -->
<g id="node3" class="node">
<title>TimeDirective</title>
<polygon fill="#ffffb3" stroke="black" points="126.63,-84.8 29.37,-84.8 29.37,-48.8 126.63,-48.8 126.63,-84.8"/>
<text text-anchor="middle" x="78" y="-62.6" font-family="Times,serif" font-size="14.00">TimeDirective</text>
</g>
<!-- TimeDirective&#45;&gt;SharedDirectivesModule -->
<g id="edge3" class="edge">
<title>TimeDirective&#45;&gt;SharedDirectivesModule</title>
<path fill="none" stroke="black" d="M93.44,-84.82C93.44,-102.17 93.44,-125.8 93.44,-125.8 93.44,-125.8 128.03,-125.8 128.03,-125.8"/>
<polygon fill="black" stroke="black" points="128.03,-129.3 138.03,-125.8 128.03,-122.3 128.03,-129.3"/>
</g>
<!-- PhoneMaskDirective  -->
<g id="node5" class="node">
<title>PhoneMaskDirective </title>
<polygon fill="#fb8072" stroke="black" points="444.68,-214.8 307.32,-214.8 307.32,-178.8 444.68,-178.8 444.68,-214.8"/>
<text text-anchor="middle" x="376" y="-192.6" font-family="Times,serif" font-size="14.00">PhoneMaskDirective </text>
</g>
<!-- SharedDirectivesModule&#45;&gt;PhoneMaskDirective  -->
<g id="edge4" class="edge">
<title>SharedDirectivesModule&#45;&gt;PhoneMaskDirective </title>
<path fill="none" stroke="black" stroke-dasharray="5,2" d="M294.22,-137.8C324.1,-137.8 351.14,-137.8 351.14,-137.8 351.14,-137.8 351.14,-168.78 351.14,-168.78"/>
<polygon fill="black" stroke="black" points="347.64,-168.78 351.14,-178.78 354.64,-168.78 347.64,-168.78"/>
</g>
<!-- SanitizeHtmlDirective  -->
<g id="node6" class="node">
<title>SanitizeHtmlDirective </title>
<polygon fill="#fb8072" stroke="black" points="288.96,-214.8 143.04,-214.8 143.04,-178.8 288.96,-178.8 288.96,-214.8"/>
<text text-anchor="middle" x="216" y="-192.6" font-family="Times,serif" font-size="14.00">SanitizeHtmlDirective </text>
</g>
<!-- SharedDirectivesModule&#45;&gt;SanitizeHtmlDirective  -->
<g id="edge5" class="edge">
<title>SharedDirectivesModule&#45;&gt;SanitizeHtmlDirective </title>
<path fill="none" stroke="black" stroke-dasharray="5,2" d="M216,-149.91C216,-149.91 216,-168.79 216,-168.79"/>
<polygon fill="black" stroke="black" points="212.5,-168.79 216,-178.79 219.5,-168.79 212.5,-168.79"/>
</g>
<!-- TimeDirective  -->
<g id="node7" class="node">
<title>TimeDirective </title>
<polygon fill="#fb8072" stroke="black" points="125.63,-214.8 24.37,-214.8 24.37,-178.8 125.63,-178.8 125.63,-214.8"/>
<text text-anchor="middle" x="75" y="-192.6" font-family="Times,serif" font-size="14.00">TimeDirective </text>
</g>
<!-- SharedDirectivesModule&#45;&gt;TimeDirective  -->
<g id="edge6" class="edge">
<title>SharedDirectivesModule&#45;&gt;TimeDirective </title>
<path fill="none" stroke="black" stroke-dasharray="5,2" d="M137.75,-137.8C99.38,-137.8 61.31,-137.8 61.31,-137.8 61.31,-137.8 61.31,-168.78 61.31,-168.78"/>
<polygon fill="black" stroke="black" points="57.81,-168.78 61.31,-178.78 64.81,-168.78 57.81,-168.78"/>
</g>
</g>
</svg>
