<?xml version="1.0" encoding="UTF-8" standalone="no"?>
<!DOCTYPE svg PUBLIC "-//W3C//DTD SVG 1.1//EN"
 "http://www.w3.org/Graphics/SVG/1.1/DTD/svg11.dtd">
<!-- Generated by graphviz version 2.47.3 (20210619.1520)
 -->
<!-- Title: dependencies Pages: 1 -->
<svg width="855pt" height="174pt"
 viewBox="0.00 0.00 855.00 173.80" xmlns="http://www.w3.org/2000/svg" xmlns:xlink="http://www.w3.org/1999/xlink">
<g id="graph0" class="graph" transform="scale(1 1) rotate(0) translate(4 169.8)">
<title>dependencies</title>
<polygon fill="white" stroke="transparent" points="-4,4 -4,-169.8 851,-169.8 851,4 -4,4"/>
<text text-anchor="middle" x="423.5" y="-8.2" font-family="sans-serif" font-size="14.00">dependencies</text>
<g id="clust1" class="cluster">
<title>cluster_BusinessRegistrationModule</title>
<polygon fill="none" stroke="black" stroke-dasharray="1,5" points="8,-32.8 8,-157.8 839,-157.8 839,-32.8 8,-32.8"/>
</g>
<g id="clust2" class="cluster">
<title>cluster_BusinessRegistrationModule_declarations</title>
<polygon fill="none" stroke="black" points="615,-40.8 615,-92.8 831,-92.8 831,-40.8 615,-40.8"/>
</g>
<g id="clust4" class="cluster">
<title>cluster_BusinessRegistrationModule_imports</title>
<polygon fill="none" stroke="black" points="16,-40.8 16,-92.8 607,-92.8 607,-40.8 16,-40.8"/>
</g>
<!-- BusinessRegistrationComponent -->
<g id="node1" class="node">
<title>BusinessRegistrationComponent</title>
<polygon fill="#ffffb3" stroke="black" points="822.54,-84.8 623.46,-84.8 623.46,-48.8 822.54,-48.8 822.54,-84.8"/>
<text text-anchor="middle" x="723" y="-62.6" font-family="Times,serif" font-size="14.00">BusinessRegistrationComponent</text>
</g>
<!-- BusinessRegistrationModule -->
<g id="node2" class="node">
<title>BusinessRegistrationModule</title>
<polygon fill="#8dd3c7" stroke="black" points="400.76,-149.8 397.76,-153.8 376.76,-153.8 373.76,-149.8 223.24,-149.8 223.24,-113.8 400.76,-113.8 400.76,-149.8"/>
<text text-anchor="middle" x="312" y="-127.6" font-family="Times,serif" font-size="14.00">BusinessRegistrationModule</text>
</g>
<!-- BusinessRegistrationComponent&#45;&gt;BusinessRegistrationModule -->
<g id="edge1" class="edge">
<title>BusinessRegistrationComponent&#45;&gt;BusinessRegistrationModule</title>
<path fill="none" stroke="black" d="M723,-84.91C723,-104.14 723,-131.8 723,-131.8 723,-131.8 410.93,-131.8 410.93,-131.8"/>
<polygon fill="black" stroke="black" points="410.93,-128.3 400.93,-131.8 410.93,-135.3 410.93,-128.3"/>
</g>
<!-- BusinessRegistrationRoutingModule -->
<g id="node3" class="node">
<title>BusinessRegistrationRoutingModule</title>
<polygon fill="#8dd3c7" stroke="black" points="599.38,-84.8 596.38,-88.8 575.38,-88.8 572.38,-84.8 376.62,-84.8 376.62,-48.8 599.38,-48.8 599.38,-84.8"/>
<text text-anchor="middle" x="488" y="-62.6" font-family="Times,serif" font-size="14.00">BusinessRegistrationRoutingModule</text>
</g>
<!-- BusinessRegistrationRoutingModule&#45;&gt;BusinessRegistrationModule -->
<g id="edge2" class="edge">
<title>BusinessRegistrationRoutingModule&#45;&gt;BusinessRegistrationModule</title>
<path fill="none" stroke="black" d="M388.72,-84.91C388.72,-84.91 388.72,-103.79 388.72,-103.79"/>
<polygon fill="black" stroke="black" points="385.22,-103.79 388.72,-113.79 392.22,-103.79 385.22,-103.79"/>
</g>
<!-- HomeModule -->
<g id="node4" class="node">
<title>HomeModule</title>
<polygon fill="#8dd3c7" stroke="black" points="358.76,-84.8 355.76,-88.8 334.76,-88.8 331.76,-84.8 265.24,-84.8 265.24,-48.8 358.76,-48.8 358.76,-84.8"/>
<text text-anchor="middle" x="312" y="-62.6" font-family="Times,serif" font-size="14.00">HomeModule</text>
</g>
<!-- HomeModule&#45;&gt;BusinessRegistrationModule -->
<g id="edge3" class="edge">
<title>HomeModule&#45;&gt;BusinessRegistrationModule</title>
<path fill="none" stroke="black" d="M312,-84.91C312,-84.91 312,-103.79 312,-103.79"/>
<polygon fill="black" stroke="black" points="308.5,-103.79 312,-113.79 315.5,-103.79 308.5,-103.79"/>
</g>
<!-- MaterialModule -->
<g id="node5" class="node">
<title>MaterialModule</title>
<polygon fill="#8dd3c7" stroke="black" points="247.47,-84.8 244.47,-88.8 223.47,-88.8 220.47,-84.8 140.53,-84.8 140.53,-48.8 247.47,-48.8 247.47,-84.8"/>
<text text-anchor="middle" x="194" y="-62.6" font-family="Times,serif" font-size="14.00">MaterialModule</text>
</g>
<!-- MaterialModule&#45;&gt;BusinessRegistrationModule -->
<g id="edge4" class="edge">
<title>MaterialModule&#45;&gt;BusinessRegistrationModule</title>
<path fill="none" stroke="black" d="M235.3,-84.91C235.3,-84.91 235.3,-103.79 235.3,-103.79"/>
<polygon fill="black" stroke="black" points="231.8,-103.79 235.3,-113.79 238.8,-103.79 231.8,-103.79"/>
</g>
<!-- SharedModule -->
<g id="node6" class="node">
<title>SharedModule</title>
<polygon fill="#8dd3c7" stroke="black" points="122.42,-84.8 119.42,-88.8 98.42,-88.8 95.42,-84.8 23.58,-84.8 23.58,-48.8 122.42,-48.8 122.42,-84.8"/>
<text text-anchor="middle" x="73" y="-62.6" font-family="Times,serif" font-size="14.00">SharedModule</text>
</g>
<!-- SharedModule&#45;&gt;BusinessRegistrationModule -->
<g id="edge5" class="edge">
<title>SharedModule&#45;&gt;BusinessRegistrationModule</title>
<path fill="none" stroke="black" d="M73,-84.91C73,-104.14 73,-131.8 73,-131.8 73,-131.8 213.01,-131.8 213.01,-131.8"/>
<polygon fill="black" stroke="black" points="213.01,-135.3 223.01,-131.8 213.01,-128.3 213.01,-135.3"/>
</g>
</g>
</svg>
