<?xml version="1.0" encoding="UTF-8" standalone="no"?>
<!DOCTYPE svg PUBLIC "-//W3C//DTD SVG 1.1//EN"
 "http://www.w3.org/Graphics/SVG/1.1/DTD/svg11.dtd">
<!-- Generated by graphviz version 2.47.3 (20210619.1520)
 -->
<!-- Title: dependencies Pages: 1 -->
<svg width="864pt" height="247pt"
 viewBox="0.00 0.00 864.00 246.80" xmlns="http://www.w3.org/2000/svg" xmlns:xlink="http://www.w3.org/1999/xlink">
<g id="graph0" class="graph" transform="scale(1 1) rotate(0) translate(4 242.8)">
<title>dependencies</title>
<polygon fill="white" stroke="transparent" points="-4,4 -4,-242.8 860,-242.8 860,4 -4,4"/>
<text text-anchor="middle" x="428" y="-8.2" font-family="sans-serif" font-size="14.00">dependencies</text>
<g id="clust1" class="cluster">
<title>cluster_HomeModule</title>
<polygon fill="none" stroke="black" stroke-dasharray="1,5" points="8,-32.8 8,-230.8 848,-230.8 848,-32.8 8,-32.8"/>
</g>
<g id="clust7" class="cluster">
<title>cluster_HomeModule_exports</title>
<polygon fill="none" stroke="black" points="336,-170.8 336,-222.8 496,-222.8 496,-170.8 336,-170.8"/>
</g>
<g id="clust2" class="cluster">
<title>cluster_HomeModule_declarations</title>
<polygon fill="none" stroke="black" points="420,-40.8 420,-92.8 840,-92.8 840,-40.8 420,-40.8"/>
</g>
<g id="clust6" class="cluster">
<title>cluster_HomeModule_imports</title>
<polygon fill="none" stroke="black" points="16,-40.8 16,-92.8 412,-92.8 412,-40.8 16,-40.8"/>
</g>
<!-- BodyComponent -->
<g id="node1" class="node">
<title>BodyComponent</title>
<polygon fill="#ffffb3" stroke="black" points="831.67,-84.8 720.33,-84.8 720.33,-48.8 831.67,-48.8 831.67,-84.8"/>
<text text-anchor="middle" x="776" y="-62.6" font-family="Times,serif" font-size="14.00">BodyComponent</text>
</g>
<!-- HomeModule -->
<g id="node4" class="node">
<title>HomeModule</title>
<polygon fill="#8dd3c7" stroke="black" points="462.76,-149.8 459.76,-153.8 438.76,-153.8 435.76,-149.8 369.24,-149.8 369.24,-113.8 462.76,-113.8 462.76,-149.8"/>
<text text-anchor="middle" x="416" y="-127.6" font-family="Times,serif" font-size="14.00">HomeModule</text>
</g>
<!-- BodyComponent&#45;&gt;HomeModule -->
<g id="edge1" class="edge">
<title>BodyComponent&#45;&gt;HomeModule</title>
<path fill="none" stroke="black" d="M776,-85.08C776,-106.12 776,-137.8 776,-137.8 776,-137.8 473.06,-137.8 473.06,-137.8"/>
<polygon fill="black" stroke="black" points="473.06,-134.3 463.06,-137.8 473.06,-141.3 473.06,-134.3"/>
</g>
<!-- HomeComponent -->
<g id="node2" class="node">
<title>HomeComponent</title>
<polygon fill="#ffffb3" stroke="black" points="701.55,-84.8 586.45,-84.8 586.45,-48.8 701.55,-48.8 701.55,-84.8"/>
<text text-anchor="middle" x="644" y="-62.6" font-family="Times,serif" font-size="14.00">HomeComponent</text>
</g>
<!-- HomeComponent&#45;&gt;HomeModule -->
<g id="edge2" class="edge">
<title>HomeComponent&#45;&gt;HomeModule</title>
<path fill="none" stroke="black" d="M644,-84.82C644,-102.17 644,-125.8 644,-125.8 644,-125.8 472.97,-125.8 472.97,-125.8"/>
<polygon fill="black" stroke="black" points="472.97,-122.3 462.97,-125.8 472.97,-129.3 472.97,-122.3"/>
</g>
<!-- SearchBarComponent -->
<g id="node3" class="node">
<title>SearchBarComponent</title>
<polygon fill="#ffffb3" stroke="black" points="567.63,-84.8 428.37,-84.8 428.37,-48.8 567.63,-48.8 567.63,-84.8"/>
<text text-anchor="middle" x="498" y="-62.6" font-family="Times,serif" font-size="14.00">SearchBarComponent</text>
</g>
<!-- SearchBarComponent&#45;&gt;HomeModule -->
<g id="edge3" class="edge">
<title>SearchBarComponent&#45;&gt;HomeModule</title>
<path fill="none" stroke="black" d="M445.53,-84.91C445.53,-84.91 445.53,-103.79 445.53,-103.79"/>
<polygon fill="black" stroke="black" points="442.03,-103.79 445.53,-113.79 449.03,-103.79 442.03,-103.79"/>
</g>
<!-- SearchBarComponent  -->
<g id="node8" class="node">
<title>SearchBarComponent </title>
<polygon fill="#fb8072" stroke="black" points="487.63,-214.8 344.37,-214.8 344.37,-178.8 487.63,-178.8 487.63,-214.8"/>
<text text-anchor="middle" x="416" y="-192.6" font-family="Times,serif" font-size="14.00">SearchBarComponent </text>
</g>
<!-- HomeModule&#45;&gt;SearchBarComponent  -->
<g id="edge7" class="edge">
<title>HomeModule&#45;&gt;SearchBarComponent </title>
<path fill="none" stroke="black" stroke-dasharray="5,2" d="M416,-149.91C416,-149.91 416,-168.79 416,-168.79"/>
<polygon fill="black" stroke="black" points="412.5,-168.79 416,-178.79 419.5,-168.79 412.5,-168.79"/>
</g>
<!-- HomeRoutingModule -->
<g id="node5" class="node">
<title>HomeRoutingModule</title>
<polygon fill="#8dd3c7" stroke="black" points="404.38,-84.8 401.38,-88.8 380.38,-88.8 377.38,-84.8 265.62,-84.8 265.62,-48.8 404.38,-48.8 404.38,-84.8"/>
<text text-anchor="middle" x="335" y="-62.6" font-family="Times,serif" font-size="14.00">HomeRoutingModule</text>
</g>
<!-- HomeRoutingModule&#45;&gt;HomeModule -->
<g id="edge4" class="edge">
<title>HomeRoutingModule&#45;&gt;HomeModule</title>
<path fill="none" stroke="black" d="M386.78,-84.91C386.78,-84.91 386.78,-103.79 386.78,-103.79"/>
<polygon fill="black" stroke="black" points="383.28,-103.79 386.78,-113.79 390.28,-103.79 383.28,-103.79"/>
</g>
<!-- MaterialModule -->
<g id="node6" class="node">
<title>MaterialModule</title>
<polygon fill="#8dd3c7" stroke="black" points="247.47,-84.8 244.47,-88.8 223.47,-88.8 220.47,-84.8 140.53,-84.8 140.53,-48.8 247.47,-48.8 247.47,-84.8"/>
<text text-anchor="middle" x="194" y="-62.6" font-family="Times,serif" font-size="14.00">MaterialModule</text>
</g>
<!-- MaterialModule&#45;&gt;HomeModule -->
<g id="edge5" class="edge">
<title>MaterialModule&#45;&gt;HomeModule</title>
<path fill="none" stroke="black" d="M194,-84.82C194,-102.17 194,-125.8 194,-125.8 194,-125.8 359.19,-125.8 359.19,-125.8"/>
<polygon fill="black" stroke="black" points="359.19,-129.3 369.19,-125.8 359.19,-122.3 359.19,-129.3"/>
</g>
<!-- SharedModule -->
<g id="node7" class="node">
<title>SharedModule</title>
<polygon fill="#8dd3c7" stroke="black" points="122.42,-84.8 119.42,-88.8 98.42,-88.8 95.42,-84.8 23.58,-84.8 23.58,-48.8 122.42,-48.8 122.42,-84.8"/>
<text text-anchor="middle" x="73" y="-62.6" font-family="Times,serif" font-size="14.00">SharedModule</text>
</g>
<!-- SharedModule&#45;&gt;HomeModule -->
<g id="edge6" class="edge">
<title>SharedModule&#45;&gt;HomeModule</title>
<path fill="none" stroke="black" d="M73,-85.08C73,-106.12 73,-137.8 73,-137.8 73,-137.8 359.03,-137.8 359.03,-137.8"/>
<polygon fill="black" stroke="black" points="359.03,-141.3 369.03,-137.8 359.03,-134.3 359.03,-141.3"/>
</g>
</g>
</svg>
