<?xml version="1.0" encoding="UTF-8" standalone="no"?>
<!DOCTYPE svg PUBLIC "-//W3C//DTD SVG 1.1//EN"
 "http://www.w3.org/Graphics/SVG/1.1/DTD/svg11.dtd">
<!-- Generated by graphviz version 2.47.3 (20210619.1520)
 -->
<!-- Title: dependencies Pages: 1 -->
<svg width="2233pt" height="247pt"
 viewBox="0.00 0.00 2233.00 246.80" xmlns="http://www.w3.org/2000/svg" xmlns:xlink="http://www.w3.org/1999/xlink">
<g id="graph0" class="graph" transform="scale(1 1) rotate(0) translate(4 242.8)">
<title>dependencies</title>
<polygon fill="white" stroke="transparent" points="-4,4 -4,-242.8 2229,-242.8 2229,4 -4,4"/>
<text text-anchor="middle" x="1112.5" y="-8.2" font-family="sans-serif" font-size="14.00">dependencies</text>
<g id="clust1" class="cluster">
<title>cluster_AppModule</title>
<polygon fill="none" stroke="black" stroke-dasharray="1,5" points="8,-32.8 8,-230.8 2217,-230.8 2217,-32.8 8,-32.8"/>
</g>
<g id="clust2" class="cluster">
<title>cluster_AppModule_declarations</title>
<polygon fill="none" stroke="black" points="2087,-40.8 2087,-92.8 2209,-92.8 2209,-40.8 2087,-40.8"/>
</g>
<g id="clust4" class="cluster">
<title>cluster_AppModule_imports</title>
<polygon fill="none" stroke="black" points="202,-40.8 202,-92.8 2079,-92.8 2079,-40.8 202,-40.8"/>
</g>
<g id="clust6" class="cluster">
<title>cluster_AppModule_bootstrap</title>
<polygon fill="none" stroke="black" points="954,-170.8 954,-222.8 1078,-222.8 1078,-170.8 954,-170.8"/>
</g>
<g id="clust7" class="cluster">
<title>cluster_AppModule_providers</title>
<polygon fill="none" stroke="black" points="16,-40.8 16,-92.8 194,-92.8 194,-40.8 16,-40.8"/>
</g>
<!-- AppComponent -->
<g id="node1" class="node">
<title>AppComponent</title>
<polygon fill="#ffffb3" stroke="black" points="2200.94,-84.8 2095.06,-84.8 2095.06,-48.8 2200.94,-48.8 2200.94,-84.8"/>
<text text-anchor="middle" x="2148" y="-62.6" font-family="Times,serif" font-size="14.00">AppComponent</text>
</g>
<!-- AppModule -->
<g id="node2" class="node">
<title>AppModule</title>
<polygon fill="#8dd3c7" stroke="black" points="1057.66,-149.8 1054.66,-153.8 1033.66,-153.8 1030.66,-149.8 974.34,-149.8 974.34,-113.8 1057.66,-113.8 1057.66,-149.8"/>
<text text-anchor="middle" x="1016" y="-127.6" font-family="Times,serif" font-size="14.00">AppModule</text>
</g>
<!-- AppComponent&#45;&gt;AppModule -->
<g id="edge1" class="edge">
<title>AppComponent&#45;&gt;AppModule</title>
<path fill="none" stroke="black" d="M2148,-85.12C2148,-108.46 2148,-145.8 2148,-145.8 2148,-145.8 1067.97,-145.8 1067.97,-145.8"/>
<polygon fill="black" stroke="black" points="1067.97,-142.3 1057.97,-145.8 1067.97,-149.3 1067.97,-142.3"/>
</g>
<!-- AppComponent  -->
<g id="node16" class="node">
<title>AppComponent </title>
<polygon fill="#80b1d3" stroke="black" points="1070.44,-214.8 961.56,-214.8 961.56,-178.8 1070.44,-178.8 1070.44,-214.8"/>
<text text-anchor="middle" x="1016" y="-192.6" font-family="Times,serif" font-size="14.00">AppComponent </text>
</g>
<!-- AppModule&#45;&gt;AppComponent  -->
<g id="edge15" class="edge">
<title>AppModule&#45;&gt;AppComponent </title>
<path fill="none" stroke="black" stroke-dasharray="1,5" d="M1016,-149.91C1016,-149.91 1016,-168.79 1016,-168.79"/>
<polygon fill="black" stroke="black" points="1012.5,-168.79 1016,-178.79 1019.5,-168.79 1012.5,-168.79"/>
</g>
<!-- AppRoutingModule -->
<g id="node3" class="node">
<title>AppRoutingModule</title>
<polygon fill="#8dd3c7" stroke="black" points="2071.27,-84.8 2068.27,-88.8 2047.27,-88.8 2044.27,-84.8 1942.73,-84.8 1942.73,-48.8 2071.27,-48.8 2071.27,-84.8"/>
<text text-anchor="middle" x="2007" y="-62.6" font-family="Times,serif" font-size="14.00">AppRoutingModule</text>
</g>
<!-- AppRoutingModule&#45;&gt;AppModule -->
<g id="edge2" class="edge">
<title>AppRoutingModule&#45;&gt;AppModule</title>
<path fill="none" stroke="black" d="M2007,-85.09C2007,-107.01 2007,-140.8 2007,-140.8 2007,-140.8 1067.95,-140.8 1067.95,-140.8"/>
<polygon fill="black" stroke="black" points="1067.95,-137.3 1057.95,-140.8 1067.95,-144.3 1067.95,-137.3"/>
</g>
<!-- BusinessDetailsModule -->
<g id="node4" class="node">
<title>BusinessDetailsModule</title>
<polygon fill="#8dd3c7" stroke="black" points="1924.48,-84.8 1921.48,-88.8 1900.48,-88.8 1897.48,-84.8 1775.52,-84.8 1775.52,-48.8 1924.48,-48.8 1924.48,-84.8"/>
<text text-anchor="middle" x="1850" y="-62.6" font-family="Times,serif" font-size="14.00">BusinessDetailsModule</text>
</g>
<!-- BusinessDetailsModule&#45;&gt;AppModule -->
<g id="edge3" class="edge">
<title>BusinessDetailsModule&#45;&gt;AppModule</title>
<path fill="none" stroke="black" d="M1850,-84.83C1850,-105.57 1850,-136.8 1850,-136.8 1850,-136.8 1067.93,-136.8 1067.93,-136.8"/>
<polygon fill="black" stroke="black" points="1067.93,-133.3 1057.93,-136.8 1067.93,-140.3 1067.93,-133.3"/>
</g>
<!-- ClientProfileModule -->
<g id="node5" class="node">
<title>ClientProfileModule</title>
<polygon fill="#8dd3c7" stroke="black" points="1757.87,-84.8 1754.87,-88.8 1733.87,-88.8 1730.87,-84.8 1626.13,-84.8 1626.13,-48.8 1757.87,-48.8 1757.87,-84.8"/>
<text text-anchor="middle" x="1692" y="-62.6" font-family="Times,serif" font-size="14.00">ClientProfileModule</text>
</g>
<!-- ClientProfileModule&#45;&gt;AppModule -->
<g id="edge4" class="edge">
<title>ClientProfileModule&#45;&gt;AppModule</title>
<path fill="none" stroke="black" d="M1692,-84.91C1692,-104.14 1692,-131.8 1692,-131.8 1692,-131.8 1067.78,-131.8 1067.78,-131.8"/>
<polygon fill="black" stroke="black" points="1067.78,-128.3 1057.78,-131.8 1067.78,-135.3 1067.78,-128.3"/>
</g>
<!-- ClientRegistrationModule -->
<g id="node6" class="node">
<title>ClientRegistrationModule</title>
<polygon fill="#8dd3c7" stroke="black" points="1608.21,-84.8 1605.21,-88.8 1584.21,-88.8 1581.21,-84.8 1445.79,-84.8 1445.79,-48.8 1608.21,-48.8 1608.21,-84.8"/>
<text text-anchor="middle" x="1527" y="-62.6" font-family="Times,serif" font-size="14.00">ClientRegistrationModule</text>
</g>
<!-- ClientRegistrationModule&#45;&gt;AppModule -->
<g id="edge5" class="edge">
<title>ClientRegistrationModule&#45;&gt;AppModule</title>
<path fill="none" stroke="black" d="M1527,-85.1C1527,-103.07 1527,-127.8 1527,-127.8 1527,-127.8 1067.82,-127.8 1067.82,-127.8"/>
<polygon fill="black" stroke="black" points="1067.82,-124.3 1057.82,-127.8 1067.82,-131.3 1067.82,-124.3"/>
</g>
<!-- CreateReservationModule -->
<g id="node7" class="node">
<title>CreateReservationModule</title>
<polygon fill="#8dd3c7" stroke="black" points="1427.45,-84.8 1424.45,-88.8 1403.45,-88.8 1400.45,-84.8 1264.55,-84.8 1264.55,-48.8 1427.45,-48.8 1427.45,-84.8"/>
<text text-anchor="middle" x="1346" y="-62.6" font-family="Times,serif" font-size="14.00">CreateReservationModule</text>
</g>
<!-- CreateReservationModule&#45;&gt;AppModule -->
<g id="edge6" class="edge">
<title>CreateReservationModule&#45;&gt;AppModule</title>
<path fill="none" stroke="black" d="M1346,-84.83C1346,-101.2 1346,-122.8 1346,-122.8 1346,-122.8 1067.79,-122.8 1067.79,-122.8"/>
<polygon fill="black" stroke="black" points="1067.79,-119.3 1057.79,-122.8 1067.79,-126.3 1067.79,-119.3"/>
</g>
<!-- FrequentQuestionsModule -->
<g id="node8" class="node">
<title>FrequentQuestionsModule</title>
<polygon fill="#8dd3c7" stroke="black" points="1246.8,-84.8 1243.8,-88.8 1222.8,-88.8 1219.8,-84.8 1081.2,-84.8 1081.2,-48.8 1246.8,-48.8 1246.8,-84.8"/>
<text text-anchor="middle" x="1164" y="-62.6" font-family="Times,serif" font-size="14.00">FrequentQuestionsModule</text>
</g>
<!-- FrequentQuestionsModule&#45;&gt;AppModule -->
<g id="edge7" class="edge">
<title>FrequentQuestionsModule&#45;&gt;AppModule</title>
<path fill="none" stroke="black" d="M1164,-84.99C1164,-99.98 1164,-118.8 1164,-118.8 1164,-118.8 1068.01,-118.8 1068.01,-118.8"/>
<polygon fill="black" stroke="black" points="1068.02,-115.3 1058.01,-118.8 1068.01,-122.3 1068.02,-115.3"/>
</g>
<!-- HomeModule -->
<g id="node9" class="node">
<title>HomeModule</title>
<polygon fill="#8dd3c7" stroke="black" points="1062.76,-84.8 1059.76,-88.8 1038.76,-88.8 1035.76,-84.8 969.24,-84.8 969.24,-48.8 1062.76,-48.8 1062.76,-84.8"/>
<text text-anchor="middle" x="1016" y="-62.6" font-family="Times,serif" font-size="14.00">HomeModule</text>
</g>
<!-- HomeModule&#45;&gt;AppModule -->
<g id="edge8" class="edge">
<title>HomeModule&#45;&gt;AppModule</title>
<path fill="none" stroke="black" d="M1016,-84.91C1016,-84.91 1016,-103.79 1016,-103.79"/>
<polygon fill="black" stroke="black" points="1012.5,-103.79 1016,-113.79 1019.5,-103.79 1012.5,-103.79"/>
</g>
<!-- LoginModule -->
<g id="node10" class="node">
<title>LoginModule</title>
<polygon fill="#8dd3c7" stroke="black" points="951.49,-84.8 948.49,-88.8 927.49,-88.8 924.49,-84.8 858.51,-84.8 858.51,-48.8 951.49,-48.8 951.49,-84.8"/>
<text text-anchor="middle" x="905" y="-62.6" font-family="Times,serif" font-size="14.00">LoginModule</text>
</g>
<!-- LoginModule&#45;&gt;AppModule -->
<g id="edge9" class="edge">
<title>LoginModule&#45;&gt;AppModule</title>
<path fill="none" stroke="black" d="M905,-84.99C905,-99.98 905,-118.8 905,-118.8 905,-118.8 964.04,-118.8 964.04,-118.8"/>
<polygon fill="black" stroke="black" points="964.04,-122.3 974.04,-118.8 964.04,-115.3 964.04,-122.3"/>
</g>
<!-- MaterialModule -->
<g id="node11" class="node">
<title>MaterialModule</title>
<polygon fill="#8dd3c7" stroke="black" points="840.47,-84.8 837.47,-88.8 816.47,-88.8 813.47,-84.8 733.53,-84.8 733.53,-48.8 840.47,-48.8 840.47,-84.8"/>
<text text-anchor="middle" x="787" y="-62.6" font-family="Times,serif" font-size="14.00">MaterialModule</text>
</g>
<!-- MaterialModule&#45;&gt;AppModule -->
<g id="edge10" class="edge">
<title>MaterialModule&#45;&gt;AppModule</title>
<path fill="none" stroke="black" d="M787,-84.83C787,-101.2 787,-122.8 787,-122.8 787,-122.8 964.26,-122.8 964.26,-122.8"/>
<polygon fill="black" stroke="black" points="964.26,-126.3 974.26,-122.8 964.26,-119.3 964.26,-126.3"/>
</g>
<!-- PrivacyModule -->
<g id="node12" class="node">
<title>PrivacyModule</title>
<polygon fill="#8dd3c7" stroke="black" points="715.31,-84.8 712.31,-88.8 691.31,-88.8 688.31,-84.8 612.69,-84.8 612.69,-48.8 715.31,-48.8 715.31,-84.8"/>
<text text-anchor="middle" x="664" y="-62.6" font-family="Times,serif" font-size="14.00">PrivacyModule</text>
</g>
<!-- PrivacyModule&#45;&gt;AppModule -->
<g id="edge11" class="edge">
<title>PrivacyModule&#45;&gt;AppModule</title>
<path fill="none" stroke="black" d="M664,-85.1C664,-103.07 664,-127.8 664,-127.8 664,-127.8 964.24,-127.8 964.24,-127.8"/>
<polygon fill="black" stroke="black" points="964.24,-131.3 974.24,-127.8 964.24,-124.3 964.24,-131.3"/>
</g>
<!-- RefundPolicyModule -->
<g id="node13" class="node">
<title>RefundPolicyModule</title>
<polygon fill="#8dd3c7" stroke="black" points="595.04,-84.8 592.04,-88.8 571.04,-88.8 568.04,-84.8 458.96,-84.8 458.96,-48.8 595.04,-48.8 595.04,-84.8"/>
<text text-anchor="middle" x="527" y="-62.6" font-family="Times,serif" font-size="14.00">RefundPolicyModule</text>
</g>
<!-- RefundPolicyModule&#45;&gt;AppModule -->
<g id="edge12" class="edge">
<title>RefundPolicyModule&#45;&gt;AppModule</title>
<path fill="none" stroke="black" d="M527,-84.91C527,-104.14 527,-131.8 527,-131.8 527,-131.8 964.31,-131.8 964.31,-131.8"/>
<polygon fill="black" stroke="black" points="964.31,-135.3 974.31,-131.8 964.31,-128.3 964.31,-135.3"/>
</g>
<!-- SharedModule -->
<g id="node14" class="node">
<title>SharedModule</title>
<polygon fill="#8dd3c7" stroke="black" points="441.42,-84.8 438.42,-88.8 417.42,-88.8 414.42,-84.8 342.58,-84.8 342.58,-48.8 441.42,-48.8 441.42,-84.8"/>
<text text-anchor="middle" x="392" y="-62.6" font-family="Times,serif" font-size="14.00">SharedModule</text>
</g>
<!-- SharedModule&#45;&gt;AppModule -->
<g id="edge13" class="edge">
<title>SharedModule&#45;&gt;AppModule</title>
<path fill="none" stroke="black" d="M392,-84.83C392,-105.57 392,-136.8 392,-136.8 392,-136.8 964.09,-136.8 964.09,-136.8"/>
<polygon fill="black" stroke="black" points="964.09,-140.3 974.09,-136.8 964.09,-133.3 964.09,-140.3"/>
</g>
<!-- StatusPayModule -->
<g id="node15" class="node">
<title>StatusPayModule</title>
<polygon fill="#8dd3c7" stroke="black" points="324.27,-84.8 321.27,-88.8 300.27,-88.8 297.27,-84.8 209.73,-84.8 209.73,-48.8 324.27,-48.8 324.27,-84.8"/>
<text text-anchor="middle" x="267" y="-62.6" font-family="Times,serif" font-size="14.00">StatusPayModule</text>
</g>
<!-- StatusPayModule&#45;&gt;AppModule -->
<g id="edge14" class="edge">
<title>StatusPayModule&#45;&gt;AppModule</title>
<path fill="none" stroke="black" d="M267,-85.09C267,-107.01 267,-140.8 267,-140.8 267,-140.8 964.13,-140.8 964.13,-140.8"/>
<polygon fill="black" stroke="black" points="964.13,-144.3 974.13,-140.8 964.13,-137.3 964.13,-144.3"/>
</g>
<!-- RestClientService -->
<g id="node17" class="node">
<title>RestClientService</title>
<ellipse fill="#fdb462" stroke="black" cx="105" cy="-66.8" rx="80.53" ry="18"/>
<text text-anchor="middle" x="105" y="-62.6" font-family="Times,serif" font-size="14.00">RestClientService</text>
</g>
<!-- RestClientService&#45;&gt;AppModule -->
<g id="edge16" class="edge">
<title>RestClientService&#45;&gt;AppModule</title>
<path fill="none" stroke="black" d="M105,-85.12C105,-108.46 105,-145.8 105,-145.8 105,-145.8 964.19,-145.8 964.19,-145.8"/>
<polygon fill="black" stroke="black" points="964.19,-149.3 974.19,-145.8 964.19,-142.3 964.19,-149.3"/>
</g>
</g>
</svg>
