<?xml version="1.0" encoding="UTF-8" standalone="no"?>
<!DOCTYPE svg PUBLIC "-//W3C//DTD SVG 1.1//EN"
 "http://www.w3.org/Graphics/SVG/1.1/DTD/svg11.dtd">
<!-- Generated by graphviz version 2.47.3 (20210619.1520)
 -->
<!-- Title: dependencies Pages: 1 -->
<svg width="994pt" height="174pt"
 viewBox="0.00 0.00 994.00 173.80" xmlns="http://www.w3.org/2000/svg" xmlns:xlink="http://www.w3.org/1999/xlink">
<g id="graph0" class="graph" transform="scale(1 1) rotate(0) translate(4 169.8)">
<title>dependencies</title>
<polygon fill="white" stroke="transparent" points="-4,4 -4,-169.8 990,-169.8 990,4 -4,4"/>
<text text-anchor="middle" x="493" y="-8.2" font-family="sans-serif" font-size="14.00">dependencies</text>
<g id="clust1" class="cluster">
<title>cluster_SearchRestaurantModule</title>
<polygon fill="none" stroke="black" stroke-dasharray="1,5" points="8,-32.8 8,-157.8 978,-157.8 978,-32.8 8,-32.8"/>
</g>
<g id="clust5" class="cluster">
<title>cluster_SearchRestaurantModule_imports</title>
<polygon fill="none" stroke="black" points="398,-40.8 398,-92.8 970,-92.8 970,-40.8 398,-40.8"/>
</g>
<g id="clust2" class="cluster">
<title>cluster_SearchRestaurantModule_declarations</title>
<polygon fill="none" stroke="black" points="16,-40.8 16,-92.8 390,-92.8 390,-40.8 16,-40.8"/>
</g>
<!-- SearchRestaurantComponent -->
<g id="node1" class="node">
<title>SearchRestaurantComponent</title>
<polygon fill="#ffffb3" stroke="black" points="381.79,-84.8 202.21,-84.8 202.21,-48.8 381.79,-48.8 381.79,-84.8"/>
<text text-anchor="middle" x="292" y="-62.6" font-family="Times,serif" font-size="14.00">SearchRestaurantComponent</text>
</g>
<!-- SearchRestaurantModule -->
<g id="node3" class="node">
<title>SearchRestaurantModule</title>
<polygon fill="#8dd3c7" stroke="black" points="617.5,-149.8 614.5,-153.8 593.5,-153.8 590.5,-149.8 460.5,-149.8 460.5,-113.8 617.5,-113.8 617.5,-149.8"/>
<text text-anchor="middle" x="539" y="-127.6" font-family="Times,serif" font-size="14.00">SearchRestaurantModule</text>
</g>
<!-- SearchRestaurantComponent&#45;&gt;SearchRestaurantModule -->
<g id="edge1" class="edge">
<title>SearchRestaurantComponent&#45;&gt;SearchRestaurantModule</title>
<path fill="none" stroke="black" d="M292,-84.82C292,-102.17 292,-125.8 292,-125.8 292,-125.8 450.17,-125.8 450.17,-125.8"/>
<polygon fill="black" stroke="black" points="450.17,-129.3 460.17,-125.8 450.17,-122.3 450.17,-129.3"/>
</g>
<!-- SearchResultsComponent -->
<g id="node2" class="node">
<title>SearchResultsComponent</title>
<polygon fill="#ffffb3" stroke="black" points="184.14,-84.8 23.86,-84.8 23.86,-48.8 184.14,-48.8 184.14,-84.8"/>
<text text-anchor="middle" x="104" y="-62.6" font-family="Times,serif" font-size="14.00">SearchResultsComponent</text>
</g>
<!-- SearchResultsComponent&#45;&gt;SearchRestaurantModule -->
<g id="edge2" class="edge">
<title>SearchResultsComponent&#45;&gt;SearchRestaurantModule</title>
<path fill="none" stroke="black" d="M104,-85.08C104,-106.12 104,-137.8 104,-137.8 104,-137.8 450.48,-137.8 450.48,-137.8"/>
<polygon fill="black" stroke="black" points="450.48,-141.3 460.48,-137.8 450.48,-134.3 450.48,-141.3"/>
</g>
<!-- HomeModule -->
<g id="node4" class="node">
<title>HomeModule</title>
<polygon fill="#8dd3c7" stroke="black" points="961.76,-84.8 958.76,-88.8 937.76,-88.8 934.76,-84.8 868.24,-84.8 868.24,-48.8 961.76,-48.8 961.76,-84.8"/>
<text text-anchor="middle" x="915" y="-62.6" font-family="Times,serif" font-size="14.00">HomeModule</text>
</g>
<!-- HomeModule&#45;&gt;SearchRestaurantModule -->
<g id="edge3" class="edge">
<title>HomeModule&#45;&gt;SearchRestaurantModule</title>
<path fill="none" stroke="black" d="M915,-85.08C915,-106.12 915,-137.8 915,-137.8 915,-137.8 627.82,-137.8 627.82,-137.8"/>
<polygon fill="black" stroke="black" points="627.82,-134.3 617.82,-137.8 627.82,-141.3 627.82,-134.3"/>
</g>
<!-- MaterialModule -->
<g id="node5" class="node">
<title>MaterialModule</title>
<polygon fill="#8dd3c7" stroke="black" points="850.47,-84.8 847.47,-88.8 826.47,-88.8 823.47,-84.8 743.53,-84.8 743.53,-48.8 850.47,-48.8 850.47,-84.8"/>
<text text-anchor="middle" x="797" y="-62.6" font-family="Times,serif" font-size="14.00">MaterialModule</text>
</g>
<!-- MaterialModule&#45;&gt;SearchRestaurantModule -->
<g id="edge4" class="edge">
<title>MaterialModule&#45;&gt;SearchRestaurantModule</title>
<path fill="none" stroke="black" d="M797,-84.82C797,-102.17 797,-125.8 797,-125.8 797,-125.8 627.81,-125.8 627.81,-125.8"/>
<polygon fill="black" stroke="black" points="627.81,-122.3 617.81,-125.8 627.81,-129.3 627.81,-122.3"/>
</g>
<!-- SearchRestaurantRoutingModule -->
<g id="node6" class="node">
<title>SearchRestaurantRoutingModule</title>
<polygon fill="#8dd3c7" stroke="black" points="725.12,-84.8 722.12,-88.8 701.12,-88.8 698.12,-84.8 522.88,-84.8 522.88,-48.8 725.12,-48.8 725.12,-84.8"/>
<text text-anchor="middle" x="624" y="-62.6" font-family="Times,serif" font-size="14.00">SearchRestaurantRoutingModule</text>
</g>
<!-- SearchRestaurantRoutingModule&#45;&gt;SearchRestaurantModule -->
<g id="edge5" class="edge">
<title>SearchRestaurantRoutingModule&#45;&gt;SearchRestaurantModule</title>
<path fill="none" stroke="black" d="M570.22,-84.91C570.22,-84.91 570.22,-103.79 570.22,-103.79"/>
<polygon fill="black" stroke="black" points="566.72,-103.79 570.22,-113.79 573.72,-103.79 566.72,-103.79"/>
</g>
<!-- SharedModule -->
<g id="node7" class="node">
<title>SharedModule</title>
<polygon fill="#8dd3c7" stroke="black" points="504.42,-84.8 501.42,-88.8 480.42,-88.8 477.42,-84.8 405.58,-84.8 405.58,-48.8 504.42,-48.8 504.42,-84.8"/>
<text text-anchor="middle" x="455" y="-62.6" font-family="Times,serif" font-size="14.00">SharedModule</text>
</g>
<!-- SharedModule&#45;&gt;SearchRestaurantModule -->
<g id="edge6" class="edge">
<title>SharedModule&#45;&gt;SearchRestaurantModule</title>
<path fill="none" stroke="black" d="M482.23,-84.91C482.23,-84.91 482.23,-103.79 482.23,-103.79"/>
<polygon fill="black" stroke="black" points="478.73,-103.79 482.23,-113.79 485.73,-103.79 478.73,-103.79"/>
</g>
</g>
</svg>
