<?xml version="1.0" encoding="UTF-8" standalone="no"?>
<!DOCTYPE svg PUBLIC "-//W3C//DTD SVG 1.1//EN"
 "http://www.w3.org/Graphics/SVG/1.1/DTD/svg11.dtd">
<!-- Generated by graphviz version 2.47.3 (20210619.1520)
 -->
<!-- Title: dependencies Pages: 1 -->
<svg width="1318pt" height="247pt"
 viewBox="0.00 0.00 1318.00 246.80" xmlns="http://www.w3.org/2000/svg" xmlns:xlink="http://www.w3.org/1999/xlink">
<g id="graph0" class="graph" transform="scale(1 1) rotate(0) translate(4 242.8)">
<title>dependencies</title>
<polygon fill="white" stroke="transparent" points="-4,4 -4,-242.8 1314,-242.8 1314,4 -4,4"/>
<text text-anchor="middle" x="655" y="-8.2" font-family="sans-serif" font-size="14.00">dependencies</text>
<g id="clust1" class="cluster">
<title>cluster_SharedComponentsModule</title>
<polygon fill="none" stroke="black" stroke-dasharray="1,5" points="8,-32.8 8,-230.8 1302,-230.8 1302,-32.8 8,-32.8"/>
</g>
<g id="clust11" class="cluster">
<title>cluster_SharedComponentsModule_exports</title>
<polygon fill="none" stroke="black" points="140,-170.8 140,-222.8 1195,-222.8 1195,-170.8 140,-170.8"/>
</g>
<g id="clust10" class="cluster">
<title>cluster_SharedComponentsModule_imports</title>
<polygon fill="none" stroke="black" points="1054,-40.8 1054,-92.8 1294,-92.8 1294,-40.8 1054,-40.8"/>
</g>
<g id="clust2" class="cluster">
<title>cluster_SharedComponentsModule_declarations</title>
<polygon fill="none" stroke="black" points="16,-40.8 16,-92.8 1046,-92.8 1046,-40.8 16,-40.8"/>
</g>
<!-- CloseModalComponent -->
<g id="node1" class="node">
<title>CloseModalComponent</title>
<polygon fill="#ffffb3" stroke="black" points="1037.77,-84.8 888.23,-84.8 888.23,-48.8 1037.77,-48.8 1037.77,-84.8"/>
<text text-anchor="middle" x="963" y="-62.6" font-family="Times,serif" font-size="14.00">CloseModalComponent</text>
</g>
<!-- SharedComponentsModule -->
<g id="node8" class="node">
<title>SharedComponentsModule</title>
<polygon fill="#8dd3c7" stroke="black" points="757.7,-149.8 754.7,-153.8 733.7,-153.8 730.7,-149.8 588.3,-149.8 588.3,-113.8 757.7,-113.8 757.7,-149.8"/>
<text text-anchor="middle" x="673" y="-127.6" font-family="Times,serif" font-size="14.00">SharedComponentsModule</text>
</g>
<!-- CloseModalComponent&#45;&gt;SharedComponentsModule -->
<g id="edge1" class="edge">
<title>CloseModalComponent&#45;&gt;SharedComponentsModule</title>
<path fill="none" stroke="black" d="M933.51,-85.04C933.51,-100.37 933.51,-119.8 933.51,-119.8 933.51,-119.8 767.94,-119.8 767.94,-119.8"/>
<polygon fill="black" stroke="black" points="767.94,-116.3 757.94,-119.8 767.94,-123.3 767.94,-116.3"/>
</g>
<!-- DialogComponent -->
<g id="node2" class="node">
<title>DialogComponent</title>
<polygon fill="#ffffb3" stroke="black" points="869.94,-84.8 750.06,-84.8 750.06,-48.8 869.94,-48.8 869.94,-84.8"/>
<text text-anchor="middle" x="810" y="-62.6" font-family="Times,serif" font-size="14.00">DialogComponent</text>
</g>
<!-- DialogComponent&#45;&gt;SharedComponentsModule -->
<g id="edge2" class="edge">
<title>DialogComponent&#45;&gt;SharedComponentsModule</title>
<path fill="none" stroke="black" d="M753.94,-84.91C753.94,-84.91 753.94,-103.79 753.94,-103.79"/>
<polygon fill="black" stroke="black" points="750.44,-103.79 753.94,-113.79 757.44,-103.79 750.44,-103.79"/>
</g>
<!-- FooterComponent -->
<g id="node3" class="node">
<title>FooterComponent</title>
<polygon fill="#ffffb3" stroke="black" points="731.88,-84.8 614.12,-84.8 614.12,-48.8 731.88,-48.8 731.88,-84.8"/>
<text text-anchor="middle" x="673" y="-62.6" font-family="Times,serif" font-size="14.00">FooterComponent</text>
</g>
<!-- FooterComponent&#45;&gt;SharedComponentsModule -->
<g id="edge3" class="edge">
<title>FooterComponent&#45;&gt;SharedComponentsModule</title>
<path fill="none" stroke="black" d="M673,-84.91C673,-84.91 673,-103.79 673,-103.79"/>
<polygon fill="black" stroke="black" points="669.5,-103.79 673,-113.79 676.5,-103.79 669.5,-103.79"/>
</g>
<!-- HeaderComponent -->
<g id="node4" class="node">
<title>HeaderComponent</title>
<polygon fill="#ffffb3" stroke="black" points="595.74,-84.8 474.26,-84.8 474.26,-48.8 595.74,-48.8 595.74,-84.8"/>
<text text-anchor="middle" x="535" y="-62.6" font-family="Times,serif" font-size="14.00">HeaderComponent</text>
</g>
<!-- HeaderComponent&#45;&gt;SharedComponentsModule -->
<g id="edge4" class="edge">
<title>HeaderComponent&#45;&gt;SharedComponentsModule</title>
<path fill="none" stroke="black" d="M592.14,-84.91C592.14,-84.91 592.14,-103.79 592.14,-103.79"/>
<polygon fill="black" stroke="black" points="588.64,-103.79 592.14,-113.79 595.64,-103.79 588.64,-103.79"/>
</g>
<!-- MapComponent -->
<g id="node5" class="node">
<title>MapComponent</title>
<polygon fill="#ffffb3" stroke="black" points="456.49,-84.8 349.51,-84.8 349.51,-48.8 456.49,-48.8 456.49,-84.8"/>
<text text-anchor="middle" x="403" y="-62.6" font-family="Times,serif" font-size="14.00">MapComponent</text>
</g>
<!-- MapComponent&#45;&gt;SharedComponentsModule -->
<g id="edge5" class="edge">
<title>MapComponent&#45;&gt;SharedComponentsModule</title>
<path fill="none" stroke="black" d="M420.83,-85.04C420.83,-100.37 420.83,-119.8 420.83,-119.8 420.83,-119.8 578.33,-119.8 578.33,-119.8"/>
<polygon fill="black" stroke="black" points="578.33,-123.3 588.33,-119.8 578.33,-116.3 578.33,-123.3"/>
</g>
<!-- NotFoundPageComponent -->
<g id="node6" class="node">
<title>NotFoundPageComponent</title>
<polygon fill="#ffffb3" stroke="black" points="331.82,-84.8 166.18,-84.8 166.18,-48.8 331.82,-48.8 331.82,-84.8"/>
<text text-anchor="middle" x="249" y="-62.6" font-family="Times,serif" font-size="14.00">NotFoundPageComponent</text>
</g>
<!-- NotFoundPageComponent&#45;&gt;SharedComponentsModule -->
<g id="edge6" class="edge">
<title>NotFoundPageComponent&#45;&gt;SharedComponentsModule</title>
<path fill="none" stroke="black" d="M313.12,-84.82C313.12,-102.17 313.12,-125.8 313.12,-125.8 313.12,-125.8 578.17,-125.8 578.17,-125.8"/>
<polygon fill="black" stroke="black" points="578.17,-129.3 588.17,-125.8 578.17,-122.3 578.17,-129.3"/>
</g>
<!-- SpinnerComponent -->
<g id="node7" class="node">
<title>SpinnerComponent</title>
<polygon fill="#ffffb3" stroke="black" points="148.38,-84.8 23.62,-84.8 23.62,-48.8 148.38,-48.8 148.38,-84.8"/>
<text text-anchor="middle" x="86" y="-62.6" font-family="Times,serif" font-size="14.00">SpinnerComponent</text>
</g>
<!-- SpinnerComponent&#45;&gt;SharedComponentsModule -->
<g id="edge7" class="edge">
<title>SpinnerComponent&#45;&gt;SharedComponentsModule</title>
<path fill="none" stroke="black" d="M85.68,-84.91C85.68,-104.14 85.68,-131.8 85.68,-131.8 85.68,-131.8 578.23,-131.8 578.23,-131.8"/>
<polygon fill="black" stroke="black" points="578.23,-135.3 588.23,-131.8 578.23,-128.3 578.23,-135.3"/>
</g>
<!-- CloseModalComponent  -->
<g id="node11" class="node">
<title>CloseModalComponent </title>
<polygon fill="#fb8072" stroke="black" points="1186.77,-214.8 1033.23,-214.8 1033.23,-178.8 1186.77,-178.8 1186.77,-214.8"/>
<text text-anchor="middle" x="1110" y="-192.6" font-family="Times,serif" font-size="14.00">CloseModalComponent </text>
</g>
<!-- SharedComponentsModule&#45;&gt;CloseModalComponent  -->
<g id="edge10" class="edge">
<title>SharedComponentsModule&#45;&gt;CloseModalComponent </title>
<path fill="none" stroke="black" stroke-dasharray="5,2" d="M758.01,-137.8C869.11,-137.8 1049.7,-137.8 1049.7,-137.8 1049.7,-137.8 1049.7,-168.78 1049.7,-168.78"/>
<polygon fill="black" stroke="black" points="1046.2,-168.78 1049.7,-178.78 1053.2,-168.78 1046.2,-168.78"/>
</g>
<!-- DialogComponent  -->
<g id="node12" class="node">
<title>DialogComponent </title>
<polygon fill="#fb8072" stroke="black" points="1015.43,-214.8 892.57,-214.8 892.57,-178.8 1015.43,-178.8 1015.43,-214.8"/>
<text text-anchor="middle" x="954" y="-192.6" font-family="Times,serif" font-size="14.00">DialogComponent </text>
</g>
<!-- SharedComponentsModule&#45;&gt;DialogComponent  -->
<g id="edge11" class="edge">
<title>SharedComponentsModule&#45;&gt;DialogComponent </title>
<path fill="none" stroke="black" stroke-dasharray="5,2" d="M757.78,-143.8C846.96,-143.8 974.49,-143.8 974.49,-143.8 974.49,-143.8 974.49,-168.56 974.49,-168.56"/>
<polygon fill="black" stroke="black" points="970.99,-168.56 974.49,-178.56 977.99,-168.56 970.99,-168.56"/>
</g>
<!-- FooterComponent  -->
<g id="node13" class="node">
<title>FooterComponent </title>
<polygon fill="#fb8072" stroke="black" points="874.88,-214.8 753.12,-214.8 753.12,-178.8 874.88,-178.8 874.88,-214.8"/>
<text text-anchor="middle" x="814" y="-192.6" font-family="Times,serif" font-size="14.00">FooterComponent </text>
</g>
<!-- SharedComponentsModule&#45;&gt;FooterComponent  -->
<g id="edge12" class="edge">
<title>SharedComponentsModule&#45;&gt;FooterComponent </title>
<path fill="none" stroke="black" stroke-dasharray="5,2" d="M744.47,-149.91C744.47,-169.14 744.47,-196.8 744.47,-196.8 744.47,-196.8 745.35,-196.8 745.35,-196.8"/>
<polygon fill="black" stroke="black" points="743.27,-200.3 753.27,-196.8 743.27,-193.3 743.27,-200.3"/>
</g>
<!-- HeaderComponent  -->
<g id="node14" class="node">
<title>HeaderComponent </title>
<polygon fill="#fb8072" stroke="black" points="735.74,-214.8 610.26,-214.8 610.26,-178.8 735.74,-178.8 735.74,-214.8"/>
<text text-anchor="middle" x="673" y="-192.6" font-family="Times,serif" font-size="14.00">HeaderComponent </text>
</g>
<!-- SharedComponentsModule&#45;&gt;HeaderComponent  -->
<g id="edge13" class="edge">
<title>SharedComponentsModule&#45;&gt;HeaderComponent </title>
<path fill="none" stroke="black" stroke-dasharray="5,2" d="M673,-149.91C673,-149.91 673,-168.79 673,-168.79"/>
<polygon fill="black" stroke="black" points="669.5,-168.79 673,-178.79 676.5,-168.79 669.5,-168.79"/>
</g>
<!-- MapComponent  -->
<g id="node15" class="node">
<title>MapComponent </title>
<polygon fill="#fb8072" stroke="black" points="592.49,-214.8 481.51,-214.8 481.51,-178.8 592.49,-178.8 592.49,-214.8"/>
<text text-anchor="middle" x="537" y="-192.6" font-family="Times,serif" font-size="14.00">MapComponent </text>
</g>
<!-- SharedComponentsModule&#45;&gt;MapComponent  -->
<g id="edge14" class="edge">
<title>SharedComponentsModule&#45;&gt;MapComponent </title>
<path fill="none" stroke="black" stroke-dasharray="5,2" d="M601.31,-149.91C601.31,-169.14 601.31,-196.8 601.31,-196.8 601.31,-196.8 600.42,-196.8 600.42,-196.8"/>
<polygon fill="black" stroke="black" points="602.37,-193.3 592.37,-196.8 602.37,-200.3 602.37,-193.3"/>
</g>
<!-- NotFoundPageComponent  -->
<g id="node16" class="node">
<title>NotFoundPageComponent </title>
<polygon fill="#fb8072" stroke="black" points="463.32,-214.8 294.68,-214.8 294.68,-178.8 463.32,-178.8 463.32,-214.8"/>
<text text-anchor="middle" x="379" y="-192.6" font-family="Times,serif" font-size="14.00">NotFoundPageComponent </text>
</g>
<!-- SharedComponentsModule&#45;&gt;NotFoundPageComponent  -->
<g id="edge15" class="edge">
<title>SharedComponentsModule&#45;&gt;NotFoundPageComponent </title>
<path fill="none" stroke="black" stroke-dasharray="5,2" d="M588.2,-143.8C503.29,-143.8 385.17,-143.8 385.17,-143.8 385.17,-143.8 385.17,-168.56 385.17,-168.56"/>
<polygon fill="black" stroke="black" points="381.67,-168.56 385.17,-178.56 388.67,-168.56 381.67,-168.56"/>
</g>
<!-- SpinnerComponent  -->
<g id="node17" class="node">
<title>SpinnerComponent </title>
<polygon fill="#fb8072" stroke="black" points="276.38,-214.8 147.62,-214.8 147.62,-178.8 276.38,-178.8 276.38,-214.8"/>
<text text-anchor="middle" x="212" y="-192.6" font-family="Times,serif" font-size="14.00">SpinnerComponent </text>
</g>
<!-- SharedComponentsModule&#45;&gt;SpinnerComponent  -->
<g id="edge16" class="edge">
<title>SharedComponentsModule&#45;&gt;SpinnerComponent </title>
<path fill="none" stroke="black" stroke-dasharray="5,2" d="M588.3,-137.8C457.49,-137.8 221.26,-137.8 221.26,-137.8 221.26,-137.8 221.26,-168.78 221.26,-168.78"/>
<polygon fill="black" stroke="black" points="217.76,-168.78 221.26,-178.78 224.76,-168.78 217.76,-168.78"/>
</g>
<!-- HeaderModule -->
<g id="node9" class="node">
<title>HeaderModule</title>
<polygon fill="#8dd3c7" stroke="black" points="1285.96,-84.8 1282.96,-88.8 1261.96,-88.8 1258.96,-84.8 1186.04,-84.8 1186.04,-48.8 1285.96,-48.8 1285.96,-84.8"/>
<text text-anchor="middle" x="1236" y="-62.6" font-family="Times,serif" font-size="14.00">HeaderModule</text>
</g>
<!-- HeaderModule&#45;&gt;SharedComponentsModule -->
<g id="edge8" class="edge">
<title>HeaderModule&#45;&gt;SharedComponentsModule</title>
<path fill="none" stroke="black" d="M1236.31,-84.91C1236.31,-104.14 1236.31,-131.8 1236.31,-131.8 1236.31,-131.8 767.64,-131.8 767.64,-131.8"/>
<polygon fill="black" stroke="black" points="767.64,-128.3 757.64,-131.8 767.64,-135.3 767.64,-128.3"/>
</g>
<!-- MaterialModule -->
<g id="node10" class="node">
<title>MaterialModule</title>
<polygon fill="#8dd3c7" stroke="black" points="1168.47,-84.8 1165.47,-88.8 1144.47,-88.8 1141.47,-84.8 1061.53,-84.8 1061.53,-48.8 1168.47,-48.8 1168.47,-84.8"/>
<text text-anchor="middle" x="1115" y="-62.6" font-family="Times,serif" font-size="14.00">MaterialModule</text>
</g>
<!-- MaterialModule&#45;&gt;SharedComponentsModule -->
<g id="edge9" class="edge">
<title>MaterialModule&#45;&gt;SharedComponentsModule</title>
<path fill="none" stroke="black" d="M1115,-84.82C1115,-102.17 1115,-125.8 1115,-125.8 1115,-125.8 767.7,-125.8 767.7,-125.8"/>
<polygon fill="black" stroke="black" points="767.7,-122.3 757.7,-125.8 767.7,-129.3 767.7,-122.3"/>
</g>
</g>
</svg>
