<svg width="140" height="140" viewBox="0 0 140 140" fill="none" xmlns="http://www.w3.org/2000/svg">
<g clip-path="url(#clip0)">
<path d="M134.026 71.4505H129.166C128.711 64.0613 126.911 56.9295 123.797 50.2249C123.321 49.1985 122.104 48.7541 121.077 49.2294C120.051 49.7058 119.605 50.9235 120.082 51.9499C122.943 58.1119 124.613 64.6626 125.061 71.4505H31.2531C30.1219 71.4505 29.2055 72.3669 29.2055 73.4981C29.2055 74.6292 30.1219 75.5457 31.2531 75.5457H134.026C135.062 75.5457 135.904 76.3884 135.904 77.4245V79.9239C135.904 80.9599 135.062 81.8027 134.026 81.8027H5.97397C4.9379 81.8027 4.09622 80.9599 4.09622 79.9239V77.4245C4.09622 76.3884 4.9379 75.5457 5.97397 75.5457H21.7073C22.8384 75.5457 23.756 74.6292 23.756 73.4981C23.756 72.3669 22.8384 71.4505 21.7073 71.4505H14.9387C15.8412 57.8459 21.6753 45.1898 31.5083 35.6174C40.9846 26.3931 53.2295 20.9628 66.3161 20.1019C66.3235 20.1019 66.331 20.103 66.3385 20.1019C66.8961 20.0656 67.4472 20.0378 67.9919 20.0175C68.1009 20.0143 68.2088 20.009 68.3177 20.0058C68.5121 19.9994 68.7054 19.9951 68.8966 19.9908C69.2641 19.9844 69.6315 19.978 70 19.978C70.4892 19.978 70.9784 19.9876 71.4665 20.0005C71.6107 20.0047 71.7538 20.009 71.8991 20.0133C72.2751 20.0261 72.65 20.0453 73.0249 20.0656C73.2236 20.0763 73.4222 20.087 73.622 20.0998C90.4352 21.2042 105.904 29.9478 115.529 43.9679C116.169 44.8993 117.445 45.1375 118.377 44.4966C119.31 43.8568 119.547 42.5815 118.906 41.649C109.434 27.8522 94.6906 18.8159 78.3954 16.4853C79.4165 14.9002 79.9901 13.0342 79.9901 11.0796C79.9901 9.96658 79.4934 7.91473 76.1673 6.69067C74.5064 6.07971 72.3157 5.74219 70 5.74219C67.6833 5.74219 65.4926 6.07971 63.8316 6.69067C60.5055 7.91473 60.0099 9.96658 60.0099 11.0796C60.0099 13.0289 60.5814 14.8917 61.5961 16.4735C49.2241 18.2242 37.7493 23.8254 28.6511 32.6822C18.0223 43.029 11.7429 56.7308 10.8339 71.4494H5.97397C2.6799 71.4505 0 74.1304 0 77.4245V79.9239C0 83.219 2.6799 85.8989 5.97397 85.8989H28.0359C26.9347 86.653 25.8794 87.4989 24.8914 88.4378L24.8508 88.4763C24.7878 88.535 24.7279 88.598 24.6735 88.6653L14.9504 100.472C13.7306 99.6979 12.2865 99.4159 10.8617 99.6893C9.37592 99.9734 8.09097 100.819 7.24289 102.071L3.41904 107.71C1.67053 110.289 2.34558 113.813 4.92294 115.564L31.0886 133.339C32.037 133.983 33.1329 134.319 34.2555 134.319C34.6123 134.319 34.9722 134.285 35.3311 134.216C36.8158 133.932 38.1007 133.086 38.9488 131.834L42.7727 126.196C44.5212 123.616 43.8472 120.092 41.2698 118.342L41.1203 118.24C42.9414 116.174 45.3693 114.692 48.0107 114.081C53.5767 112.792 60.1263 113.622 64.5686 114.358C70.0641 115.268 75.8362 114.957 81.2611 113.458L88.802 111.375C93.8254 109.986 98.4482 107.648 102.543 104.424C102.574 104.4 102.604 104.375 102.634 104.348L115.581 92.8822C117.787 91.1935 118.268 88.269 117.507 85.8989H134.026C137.32 85.8989 140 83.219 140 79.9249V77.4245C140 74.1304 137.32 71.4505 134.026 71.4505ZM70 9.83841C73.4489 9.83841 75.5157 10.6918 75.8939 11.1661C75.8661 13.109 74.8834 14.9013 73.2845 15.9758C72.8818 15.9544 72.4844 15.9373 72.0882 15.9224C71.9547 15.9181 71.8211 15.9117 71.6876 15.9085C71.1162 15.8914 70.5522 15.8829 70 15.8829C69.608 15.8829 69.2085 15.8882 68.8058 15.8968C68.6115 15.9 68.416 15.9053 68.2205 15.9117C67.9877 15.9192 67.7527 15.9267 67.5177 15.9363C67.2496 15.948 66.9815 15.9598 66.7145 15.9747C65.1155 14.9002 64.1339 13.1079 64.1061 11.1661C64.4843 10.6918 66.5511 9.83841 70 9.83841ZM84.6866 86.8869C84.5338 86.5408 84.3512 86.2119 84.1451 85.8989H103.789L95.2951 91.5204L83.188 95.0227L82.7768 95.0323C85.1074 93.0894 85.9576 89.7719 84.6866 86.8869ZM62.4783 85.8989L59.5229 86.5152L57.2382 85.8989H62.4783ZM39.3825 123.897L35.5597 129.536C35.3258 129.882 34.9712 130.115 34.561 130.194C34.1519 130.272 33.7354 130.186 33.3904 129.951L7.22473 112.176C6.51337 111.693 6.32751 110.721 6.8103 110.009L10.6342 104.37C10.8681 104.025 11.2216 103.791 11.6318 103.713C11.7311 103.694 11.8304 103.684 11.9287 103.684C12.2385 103.684 12.5407 103.777 12.8024 103.955L14.2155 104.915C14.2155 104.916 14.2166 104.916 14.2166 104.916L38.968 121.73C39.6794 122.213 39.8653 123.186 39.3825 123.897ZM113.067 89.648C113.018 89.6832 112.971 89.7217 112.925 89.7623L99.9649 101.242C96.3109 104.108 92.188 106.189 87.7115 107.426L80.1706 109.51C75.3149 110.852 70.1517 111.131 65.2394 110.317C60.4521 109.525 53.3641 108.637 47.0868 110.091C43.4509 110.932 40.1312 113.022 37.7162 115.927L18.3588 102.777L27.7539 91.3676C31.3075 88.0127 35.8139 86.0207 40.1291 85.8989H40.2124C41.5508 85.8765 42.9671 86.2706 44.4656 86.6904C44.7668 86.7737 45.067 86.8581 45.3682 86.9392L58.929 90.5975C59.2398 90.6808 59.5656 90.6905 59.8807 90.6242L77.6413 86.9211C78.4467 86.7545 79.2926 86.9179 79.9623 87.3718C80.3949 87.6656 80.7324 88.0693 80.9386 88.5382C81.5474 89.9193 80.9738 91.5407 79.613 92.2414L73.5536 95.45C72.7151 95.8943 72.2922 96.8556 72.5304 97.7742C72.7696 98.6938 73.606 99.3198 74.5566 99.3069L83.5448 99.1125C83.7231 99.1083 83.8994 99.0816 84.0692 99.0324L96.7339 95.3688C96.9336 95.3111 97.1227 95.2235 97.2957 95.1093L110.072 86.6519C111.145 85.9897 112.572 85.4449 113.331 86.5654C113.923 87.437 113.937 89.006 113.067 89.648Z" fill="#FFFDFA"/>
</g>
<defs>
<clipPath id="clip0">
<rect width="140" height="140" fill="white"/>
</clipPath>
</defs>
</svg>
