<?xml version="1.0" encoding="UTF-8" standalone="no"?>
<!DOCTYPE svg PUBLIC "-//W3C//DTD SVG 1.1//EN"
 "http://www.w3.org/Graphics/SVG/1.1/DTD/svg11.dtd">
<!-- Generated by graphviz version 2.47.3 (20210619.1520)
 -->
<!-- Title: dependencies Pages: 1 -->
<svg width="612pt" height="174pt"
 viewBox="0.00 0.00 612.00 173.80" xmlns="http://www.w3.org/2000/svg" xmlns:xlink="http://www.w3.org/1999/xlink">
<g id="graph0" class="graph" transform="scale(1 1) rotate(0) translate(4 169.8)">
<title>dependencies</title>
<polygon fill="white" stroke="transparent" points="-4,4 -4,-169.8 608,-169.8 608,4 -4,4"/>
<text text-anchor="middle" x="302" y="-8.2" font-family="sans-serif" font-size="14.00">dependencies</text>
<g id="clust1" class="cluster">
<title>cluster_ErrorHandlerModule</title>
<polygon fill="none" stroke="black" stroke-dasharray="1,5" points="8,-32.8 8,-157.8 596,-157.8 596,-32.8 8,-32.8"/>
</g>
<g id="clust6" class="cluster">
<title>cluster_ErrorHandlerModule_providers</title>
<polygon fill="none" stroke="black" points="152,-40.8 152,-92.8 588,-92.8 588,-40.8 152,-40.8"/>
</g>
<g id="clust3" class="cluster">
<title>cluster_ErrorHandlerModule_imports</title>
<polygon fill="none" stroke="black" points="16,-40.8 16,-92.8 144,-92.8 144,-40.8 16,-40.8"/>
</g>
<!-- CommonModule -->
<g id="node1" class="node">
<title>CommonModule</title>
<polygon fill="#8dd3c7" stroke="black" points="135.67,-84.8 132.67,-88.8 111.67,-88.8 108.67,-84.8 24.33,-84.8 24.33,-48.8 135.67,-48.8 135.67,-84.8"/>
<text text-anchor="middle" x="80" y="-62.6" font-family="Times,serif" font-size="14.00">CommonModule</text>
</g>
<!-- ErrorHandlerModule -->
<g id="node2" class="node">
<title>ErrorHandlerModule</title>
<polygon fill="#8dd3c7" stroke="black" points="330.17,-149.8 327.17,-153.8 306.17,-153.8 303.17,-149.8 195.83,-149.8 195.83,-113.8 330.17,-113.8 330.17,-149.8"/>
<text text-anchor="middle" x="263" y="-127.6" font-family="Times,serif" font-size="14.00">ErrorHandlerModule</text>
</g>
<!-- CommonModule&#45;&gt;ErrorHandlerModule -->
<g id="edge1" class="edge">
<title>CommonModule&#45;&gt;ErrorHandlerModule</title>
<path fill="none" stroke="black" d="M80,-84.91C80,-104.14 80,-131.8 80,-131.8 80,-131.8 185.9,-131.8 185.9,-131.8"/>
<polygon fill="black" stroke="black" points="185.9,-135.3 195.9,-131.8 185.9,-128.3 185.9,-135.3"/>
</g>
<!-- proccessErrorProvider -->
<g id="node3" class="node">
<title>proccessErrorProvider</title>
<ellipse fill="#fdb462" stroke="black" cx="482" cy="-66.8" rx="97.81" ry="18"/>
<text text-anchor="middle" x="482" y="-62.6" font-family="Times,serif" font-size="14.00">proccessErrorProvider</text>
</g>
<!-- proccessErrorProvider&#45;&gt;ErrorHandlerModule -->
<g id="edge2" class="edge">
<title>proccessErrorProvider&#45;&gt;ErrorHandlerModule</title>
<path fill="none" stroke="black" d="M482,-84.91C482,-104.14 482,-131.8 482,-131.8 482,-131.8 340.2,-131.8 340.2,-131.8"/>
<polygon fill="black" stroke="black" points="340.2,-128.3 330.2,-131.8 340.2,-135.3 340.2,-128.3"/>
</g>
<!-- authInterceptorProvider -->
<g id="node4" class="node">
<title>authInterceptorProvider</title>
<ellipse fill="#fdb462" stroke="black" cx="263" cy="-66.8" rx="103.05" ry="18"/>
<text text-anchor="middle" x="263" y="-62.6" font-family="Times,serif" font-size="14.00">authInterceptorProvider</text>
</g>
<!-- authInterceptorProvider&#45;&gt;ErrorHandlerModule -->
<g id="edge3" class="edge">
<title>authInterceptorProvider&#45;&gt;ErrorHandlerModule</title>
<path fill="none" stroke="black" d="M263,-84.91C263,-84.91 263,-103.79 263,-103.79"/>
<polygon fill="black" stroke="black" points="259.5,-103.79 263,-113.79 266.5,-103.79 259.5,-103.79"/>
</g>
</g>
</svg>
