<?xml version="1.0" encoding="UTF-8" standalone="no"?>
<!DOCTYPE svg PUBLIC "-//W3C//DTD SVG 1.1//EN"
 "http://www.w3.org/Graphics/SVG/1.1/DTD/svg11.dtd">
<!-- Generated by graphviz version 2.47.3 (20210619.1520)
 -->
<!-- Title: dependencies Pages: 1 -->
<svg width="1223pt" height="174pt"
 viewBox="0.00 0.00 1223.00 173.80" xmlns="http://www.w3.org/2000/svg" xmlns:xlink="http://www.w3.org/1999/xlink">
<g id="graph0" class="graph" transform="scale(1 1) rotate(0) translate(4 169.8)">
<title>dependencies</title>
<polygon fill="white" stroke="transparent" points="-4,4 -4,-169.8 1219,-169.8 1219,4 -4,4"/>
<text text-anchor="middle" x="607.5" y="-8.2" font-family="sans-serif" font-size="14.00">dependencies</text>
<g id="clust1" class="cluster">
<title>cluster_StatusPayModule</title>
<polygon fill="none" stroke="black" stroke-dasharray="1,5" points="8,-32.8 8,-157.8 1207,-157.8 1207,-32.8 8,-32.8"/>
</g>
<g id="clust2" class="cluster">
<title>cluster_StatusPayModule_declarations</title>
<polygon fill="none" stroke="black" points="553,-40.8 553,-92.8 1199,-92.8 1199,-40.8 553,-40.8"/>
</g>
<g id="clust7" class="cluster">
<title>cluster_StatusPayModule_imports</title>
<polygon fill="none" stroke="black" points="16,-40.8 16,-92.8 545,-92.8 545,-40.8 16,-40.8"/>
</g>
<!-- CancelPayComponent -->
<g id="node1" class="node">
<title>CancelPayComponent</title>
<polygon fill="#ffffb3" stroke="black" points="1190.7,-84.8 1049.3,-84.8 1049.3,-48.8 1190.7,-48.8 1190.7,-84.8"/>
<text text-anchor="middle" x="1120" y="-62.6" font-family="Times,serif" font-size="14.00">CancelPayComponent</text>
</g>
<!-- StatusPayModule -->
<g id="node5" class="node">
<title>StatusPayModule</title>
<polygon fill="#8dd3c7" stroke="black" points="619.27,-149.8 616.27,-153.8 595.27,-153.8 592.27,-149.8 504.73,-149.8 504.73,-113.8 619.27,-113.8 619.27,-149.8"/>
<text text-anchor="middle" x="562" y="-127.6" font-family="Times,serif" font-size="14.00">StatusPayModule</text>
</g>
<!-- CancelPayComponent&#45;&gt;StatusPayModule -->
<g id="edge1" class="edge">
<title>CancelPayComponent&#45;&gt;StatusPayModule</title>
<path fill="none" stroke="black" d="M1120,-85.09C1120,-107.01 1120,-140.8 1120,-140.8 1120,-140.8 629.35,-140.8 629.35,-140.8"/>
<polygon fill="black" stroke="black" points="629.35,-137.3 619.35,-140.8 629.35,-144.3 629.35,-137.3"/>
</g>
<!-- RejectedPayComponent -->
<g id="node2" class="node">
<title>RejectedPayComponent</title>
<polygon fill="#ffffb3" stroke="black" points="1031.81,-84.8 880.19,-84.8 880.19,-48.8 1031.81,-48.8 1031.81,-84.8"/>
<text text-anchor="middle" x="956" y="-62.6" font-family="Times,serif" font-size="14.00">RejectedPayComponent</text>
</g>
<!-- RejectedPayComponent&#45;&gt;StatusPayModule -->
<g id="edge2" class="edge">
<title>RejectedPayComponent&#45;&gt;StatusPayModule</title>
<path fill="none" stroke="black" d="M956,-84.91C956,-104.14 956,-131.8 956,-131.8 956,-131.8 629.29,-131.8 629.29,-131.8"/>
<polygon fill="black" stroke="black" points="629.29,-128.3 619.29,-131.8 629.29,-135.3 629.29,-128.3"/>
</g>
<!-- StatusPayComponent -->
<g id="node3" class="node">
<title>StatusPayComponent</title>
<polygon fill="#ffffb3" stroke="black" points="862.05,-84.8 725.95,-84.8 725.95,-48.8 862.05,-48.8 862.05,-84.8"/>
<text text-anchor="middle" x="794" y="-62.6" font-family="Times,serif" font-size="14.00">StatusPayComponent</text>
</g>
<!-- StatusPayComponent&#45;&gt;StatusPayModule -->
<g id="edge3" class="edge">
<title>StatusPayComponent&#45;&gt;StatusPayModule</title>
<path fill="none" stroke="black" d="M794,-84.83C794,-101.2 794,-122.8 794,-122.8 794,-122.8 629.35,-122.8 629.35,-122.8"/>
<polygon fill="black" stroke="black" points="629.35,-119.3 619.35,-122.8 629.35,-126.3 629.35,-119.3"/>
</g>
<!-- SuccessPayComponent -->
<g id="node4" class="node">
<title>SuccessPayComponent</title>
<polygon fill="#ffffb3" stroke="black" points="707.15,-84.8 560.85,-84.8 560.85,-48.8 707.15,-48.8 707.15,-84.8"/>
<text text-anchor="middle" x="634" y="-62.6" font-family="Times,serif" font-size="14.00">SuccessPayComponent</text>
</g>
<!-- SuccessPayComponent&#45;&gt;StatusPayModule -->
<g id="edge4" class="edge">
<title>SuccessPayComponent&#45;&gt;StatusPayModule</title>
<path fill="none" stroke="black" d="M590.03,-84.91C590.03,-84.91 590.03,-103.79 590.03,-103.79"/>
<polygon fill="black" stroke="black" points="586.53,-103.79 590.03,-113.79 593.53,-103.79 586.53,-103.79"/>
</g>
<!-- HomeModule -->
<g id="node6" class="node">
<title>HomeModule</title>
<polygon fill="#8dd3c7" stroke="black" points="536.76,-84.8 533.76,-88.8 512.76,-88.8 509.76,-84.8 443.24,-84.8 443.24,-48.8 536.76,-48.8 536.76,-84.8"/>
<text text-anchor="middle" x="490" y="-62.6" font-family="Times,serif" font-size="14.00">HomeModule</text>
</g>
<!-- HomeModule&#45;&gt;StatusPayModule -->
<g id="edge5" class="edge">
<title>HomeModule&#45;&gt;StatusPayModule</title>
<path fill="none" stroke="black" d="M520.75,-84.91C520.75,-84.91 520.75,-103.79 520.75,-103.79"/>
<polygon fill="black" stroke="black" points="517.25,-103.79 520.75,-113.79 524.25,-103.79 517.25,-103.79"/>
</g>
<!-- MaterialModule -->
<g id="node7" class="node">
<title>MaterialModule</title>
<polygon fill="#8dd3c7" stroke="black" points="425.47,-84.8 422.47,-88.8 401.47,-88.8 398.47,-84.8 318.53,-84.8 318.53,-48.8 425.47,-48.8 425.47,-84.8"/>
<text text-anchor="middle" x="372" y="-62.6" font-family="Times,serif" font-size="14.00">MaterialModule</text>
</g>
<!-- MaterialModule&#45;&gt;StatusPayModule -->
<g id="edge6" class="edge">
<title>MaterialModule&#45;&gt;StatusPayModule</title>
<path fill="none" stroke="black" d="M372,-84.83C372,-101.2 372,-122.8 372,-122.8 372,-122.8 494.48,-122.8 494.48,-122.8"/>
<polygon fill="black" stroke="black" points="494.48,-126.3 504.48,-122.8 494.48,-119.3 494.48,-126.3"/>
</g>
<!-- SharedModule -->
<g id="node8" class="node">
<title>SharedModule</title>
<polygon fill="#8dd3c7" stroke="black" points="300.42,-84.8 297.42,-88.8 276.42,-88.8 273.42,-84.8 201.58,-84.8 201.58,-48.8 300.42,-48.8 300.42,-84.8"/>
<text text-anchor="middle" x="251" y="-62.6" font-family="Times,serif" font-size="14.00">SharedModule</text>
</g>
<!-- SharedModule&#45;&gt;StatusPayModule -->
<g id="edge7" class="edge">
<title>SharedModule&#45;&gt;StatusPayModule</title>
<path fill="none" stroke="black" d="M251,-84.91C251,-104.14 251,-131.8 251,-131.8 251,-131.8 494.6,-131.8 494.6,-131.8"/>
<polygon fill="black" stroke="black" points="494.6,-135.3 504.6,-131.8 494.6,-128.3 494.6,-135.3"/>
</g>
<!-- StatusPayRoutingModule -->
<g id="node9" class="node">
<title>StatusPayRoutingModule</title>
<polygon fill="#8dd3c7" stroke="black" points="183.89,-84.8 180.89,-88.8 159.89,-88.8 156.89,-84.8 24.11,-84.8 24.11,-48.8 183.89,-48.8 183.89,-84.8"/>
<text text-anchor="middle" x="104" y="-62.6" font-family="Times,serif" font-size="14.00">StatusPayRoutingModule</text>
</g>
<!-- StatusPayRoutingModule&#45;&gt;StatusPayModule -->
<g id="edge8" class="edge">
<title>StatusPayRoutingModule&#45;&gt;StatusPayModule</title>
<path fill="none" stroke="black" d="M104,-85.09C104,-107.01 104,-140.8 104,-140.8 104,-140.8 494.46,-140.8 494.46,-140.8"/>
<polygon fill="black" stroke="black" points="494.46,-144.3 504.46,-140.8 494.46,-137.3 494.46,-144.3"/>
</g>
</g>
</svg>
