<?xml version="1.0" encoding="UTF-8" standalone="no"?>
<!DOCTYPE svg PUBLIC "-//W3C//DTD SVG 1.1//EN"
 "http://www.w3.org/Graphics/SVG/1.1/DTD/svg11.dtd">
<!-- Generated by graphviz version 2.47.3 (20210619.1520)
 -->
<!-- Title: dependencies Pages: 1 -->
<svg width="704pt" height="174pt"
 viewBox="0.00 0.00 704.00 173.80" xmlns="http://www.w3.org/2000/svg" xmlns:xlink="http://www.w3.org/1999/xlink">
<g id="graph0" class="graph" transform="scale(1 1) rotate(0) translate(4 169.8)">
<title>dependencies</title>
<polygon fill="white" stroke="transparent" points="-4,4 -4,-169.8 700,-169.8 700,4 -4,4"/>
<text text-anchor="middle" x="348" y="-8.2" font-family="sans-serif" font-size="14.00">dependencies</text>
<g id="clust1" class="cluster">
<title>cluster_PrivacyModule</title>
<polygon fill="none" stroke="black" stroke-dasharray="1,5" points="8,-32.8 8,-157.8 688,-157.8 688,-32.8 8,-32.8"/>
</g>
<g id="clust2" class="cluster">
<title>cluster_PrivacyModule_declarations</title>
<polygon fill="none" stroke="black" points="540,-40.8 540,-92.8 680,-92.8 680,-40.8 540,-40.8"/>
</g>
<g id="clust4" class="cluster">
<title>cluster_PrivacyModule_imports</title>
<polygon fill="none" stroke="black" points="16,-40.8 16,-92.8 532,-92.8 532,-40.8 16,-40.8"/>
</g>
<!-- PrivacyComponent -->
<g id="node1" class="node">
<title>PrivacyComponent</title>
<polygon fill="#ffffb3" stroke="black" points="672.1,-84.8 547.9,-84.8 547.9,-48.8 672.1,-48.8 672.1,-84.8"/>
<text text-anchor="middle" x="610" y="-62.6" font-family="Times,serif" font-size="14.00">PrivacyComponent</text>
</g>
<!-- PrivacyModule -->
<g id="node2" class="node">
<title>PrivacyModule</title>
<polygon fill="#8dd3c7" stroke="black" points="410.31,-149.8 407.31,-153.8 386.31,-153.8 383.31,-149.8 307.69,-149.8 307.69,-113.8 410.31,-113.8 410.31,-149.8"/>
<text text-anchor="middle" x="359" y="-127.6" font-family="Times,serif" font-size="14.00">PrivacyModule</text>
</g>
<!-- PrivacyComponent&#45;&gt;PrivacyModule -->
<g id="edge1" class="edge">
<title>PrivacyComponent&#45;&gt;PrivacyModule</title>
<path fill="none" stroke="black" d="M610,-85.08C610,-106.12 610,-137.8 610,-137.8 610,-137.8 420.4,-137.8 420.4,-137.8"/>
<polygon fill="black" stroke="black" points="420.4,-134.3 410.4,-137.8 420.4,-141.3 420.4,-134.3"/>
</g>
<!-- HomeModule -->
<g id="node3" class="node">
<title>HomeModule</title>
<polygon fill="#8dd3c7" stroke="black" points="523.76,-84.8 520.76,-88.8 499.76,-88.8 496.76,-84.8 430.24,-84.8 430.24,-48.8 523.76,-48.8 523.76,-84.8"/>
<text text-anchor="middle" x="477" y="-62.6" font-family="Times,serif" font-size="14.00">HomeModule</text>
</g>
<!-- HomeModule&#45;&gt;PrivacyModule -->
<g id="edge2" class="edge">
<title>HomeModule&#45;&gt;PrivacyModule</title>
<path fill="none" stroke="black" d="M477,-84.82C477,-102.17 477,-125.8 477,-125.8 477,-125.8 420.41,-125.8 420.41,-125.8"/>
<polygon fill="black" stroke="black" points="420.41,-122.3 410.41,-125.8 420.41,-129.3 420.41,-122.3"/>
</g>
<!-- MaterialModule -->
<g id="node4" class="node">
<title>MaterialModule</title>
<polygon fill="#8dd3c7" stroke="black" points="412.47,-84.8 409.47,-88.8 388.47,-88.8 385.47,-84.8 305.53,-84.8 305.53,-48.8 412.47,-48.8 412.47,-84.8"/>
<text text-anchor="middle" x="359" y="-62.6" font-family="Times,serif" font-size="14.00">MaterialModule</text>
</g>
<!-- MaterialModule&#45;&gt;PrivacyModule -->
<g id="edge3" class="edge">
<title>MaterialModule&#45;&gt;PrivacyModule</title>
<path fill="none" stroke="black" d="M359,-84.91C359,-84.91 359,-103.79 359,-103.79"/>
<polygon fill="black" stroke="black" points="355.5,-103.79 359,-113.79 362.5,-103.79 355.5,-103.79"/>
</g>
<!-- PrivacyRoutingModule -->
<g id="node5" class="node">
<title>PrivacyRoutingModule</title>
<polygon fill="#8dd3c7" stroke="black" points="287.93,-84.8 284.93,-88.8 263.93,-88.8 260.93,-84.8 140.07,-84.8 140.07,-48.8 287.93,-48.8 287.93,-84.8"/>
<text text-anchor="middle" x="214" y="-62.6" font-family="Times,serif" font-size="14.00">PrivacyRoutingModule</text>
</g>
<!-- PrivacyRoutingModule&#45;&gt;PrivacyModule -->
<g id="edge4" class="edge">
<title>PrivacyRoutingModule&#45;&gt;PrivacyModule</title>
<path fill="none" stroke="black" d="M214,-84.82C214,-102.17 214,-125.8 214,-125.8 214,-125.8 297.47,-125.8 297.47,-125.8"/>
<polygon fill="black" stroke="black" points="297.47,-129.3 307.47,-125.8 297.47,-122.3 297.47,-129.3"/>
</g>
<!-- SharedModule -->
<g id="node6" class="node">
<title>SharedModule</title>
<polygon fill="#8dd3c7" stroke="black" points="122.42,-84.8 119.42,-88.8 98.42,-88.8 95.42,-84.8 23.58,-84.8 23.58,-48.8 122.42,-48.8 122.42,-84.8"/>
<text text-anchor="middle" x="73" y="-62.6" font-family="Times,serif" font-size="14.00">SharedModule</text>
</g>
<!-- SharedModule&#45;&gt;PrivacyModule -->
<g id="edge5" class="edge">
<title>SharedModule&#45;&gt;PrivacyModule</title>
<path fill="none" stroke="black" d="M73,-85.08C73,-106.12 73,-137.8 73,-137.8 73,-137.8 297.54,-137.8 297.54,-137.8"/>
<polygon fill="black" stroke="black" points="297.54,-141.3 307.54,-137.8 297.54,-134.3 297.54,-141.3"/>
</g>
</g>
</svg>
